<?xml version="1.0" encoding="UTF-8" standalone="no"?>
<!DOCTYPE svg PUBLIC "-//W3C//DTD SVG 1.1//EN"
 "http://www.w3.org/Graphics/SVG/1.1/DTD/svg11.dtd">
<!-- Generated by graphviz version 2.42.3 (0)
 -->
<!-- Title: parsetree Pages: 1 -->
<svg width="1403pt" height="653pt"
 viewBox="0.00 0.00 1402.50 653.00" xmlns="http://www.w3.org/2000/svg" xmlns:xlink="http://www.w3.org/1999/xlink">
<g id="graph0" class="graph" transform="scale(1 1) rotate(0) translate(4 649)">
<title>parsetree</title>
<polygon fill="white" stroke="transparent" points="-4,4 -4,-649 1398.5,-649 1398.5,4 -4,4"/>
<!-- N0 -->
<g id="node1" class="node">
<title>N0</title>
<polygon fill="none" stroke="black" points="726.5,-645 662.5,-645 662.5,-609 726.5,-609 726.5,-645"/>
<text text-anchor="middle" x="694.5" y="-623.3" font-family="Times,serif" font-size="14.00">program</text>
</g>
<!-- N1 -->
<g id="node2" class="node">
<title>N1</title>
<polygon fill="none" stroke="black" points="296,-558 193,-558 193,-522 296,-522 296,-558"/>
<text text-anchor="middle" x="244.5" y="-536.3" font-family="Times,serif" font-size="14.00">sheet_definition</text>
</g>
<!-- N0&#45;&gt;N1 -->
<g id="edge7" class="edge">
<title>N0&#45;&gt;N1</title>
<path fill="none" stroke="black" stroke-width="2" d="M662.5,-619.96C588.22,-605.93 403.09,-570.96 306.05,-552.63"/>
<polygon fill="black" stroke="black" stroke-width="2" points="306.56,-549.16 296.09,-550.74 305.26,-556.04 306.56,-549.16"/>
<text text-anchor="middle" x="534" y="-579.8" font-family="Times,serif" font-size="14.00">funcs_vars[0]</text>
</g>
<!-- N8 -->
<g id="node9" class="node">
<title>N8</title>
<polygon fill="none" stroke="black" points="736,-558 653,-558 653,-522 736,-522 736,-558"/>
<text text-anchor="middle" x="694.5" y="-536.3" font-family="Times,serif" font-size="14.00">function&#45;def</text>
</g>
<!-- N0&#45;&gt;N8 -->
<g id="edge32" class="edge">
<title>N0&#45;&gt;N8</title>
<path fill="none" stroke="black" stroke-width="2" d="M694.5,-608.8C694.5,-597.16 694.5,-581.55 694.5,-568.24"/>
<polygon fill="black" stroke="black" stroke-width="2" points="698,-568.18 694.5,-558.18 691,-568.18 698,-568.18"/>
<text text-anchor="middle" x="732" y="-579.8" font-family="Times,serif" font-size="14.00">funcs_vars[1]</text>
</g>
<!-- N33 -->
<g id="node34" class="node">
<title>N33</title>
<polygon fill="none" stroke="black" points="1091,-558 1010,-558 1010,-522 1091,-522 1091,-558"/>
<text text-anchor="middle" x="1050.5" y="-536.3" font-family="Times,serif" font-size="14.00">print_scalar</text>
</g>
<!-- N0&#45;&gt;N33 -->
<g id="edge39" class="edge">
<title>N0&#45;&gt;N33</title>
<path fill="none" stroke="black" stroke-width="2" d="M726.72,-618.31C788.76,-603.49 925.22,-570.91 999.65,-553.14"/>
<polygon fill="black" stroke="black" stroke-width="2" points="1000.81,-556.46 1009.72,-550.74 999.18,-549.65 1000.81,-556.46"/>
<text text-anchor="middle" x="926.5" y="-579.8" font-family="Times,serif" font-size="14.00">stmt_list[0]</text>
</g>
<!-- N2 -->
<g id="node3" class="node">
<title>N2</title>
<polygon fill="none" stroke="black" points="162.5,-471 6.5,-471 6.5,-435 162.5,-435 162.5,-471"/>
<text text-anchor="middle" x="84.5" y="-449.3" font-family="Times,serif" font-size="14.00">SHEET_IDENT (BARN)</text>
</g>
<!-- N1&#45;&gt;N2 -->
<g id="edge1" class="edge">
<title>N1&#45;&gt;N2</title>
<path fill="none" stroke="black" stroke-width="2" d="M212.12,-521.8C187.21,-508.56 152.61,-490.18 125.72,-475.9"/>
<polygon fill="black" stroke="black" stroke-width="2" points="127.03,-472.63 116.56,-471.03 123.75,-478.81 127.03,-472.63"/>
<text text-anchor="middle" x="190" y="-492.8" font-family="Times,serif" font-size="14.00">name</text>
</g>
<!-- N3 -->
<g id="node4" class="node">
<title>N3</title>
<polygon fill="none" stroke="black" points="290.5,-471 198.5,-471 198.5,-435 290.5,-435 290.5,-471"/>
<text text-anchor="middle" x="244.5" y="-449.3" font-family="Times,serif" font-size="14.00">sheet_init_list</text>
</g>
<!-- N1&#45;&gt;N3 -->
<g id="edge6" class="edge">
<title>N1&#45;&gt;N3</title>
<path fill="none" stroke="black" stroke-width="2" d="M244.5,-521.8C244.5,-510.16 244.5,-494.55 244.5,-481.24"/>
<polygon fill="black" stroke="black" stroke-width="2" points="248,-481.18 244.5,-471.18 241,-481.18 248,-481.18"/>
<text text-anchor="middle" x="254" y="-492.8" font-family="Times,serif" font-size="14.00">init</text>
</g>
<!-- N4 -->
<g id="node5" class="node">
<title>N4</title>
<polygon fill="none" stroke="black" points="285,-384 204,-384 204,-348 285,-348 285,-384"/>
<text text-anchor="middle" x="244.5" y="-362.3" font-family="Times,serif" font-size="14.00">col_init_list</text>
</g>
<!-- N3&#45;&gt;N4 -->
<g id="edge5" class="edge">
<title>N3&#45;&gt;N4</title>
<path fill="none" stroke="black" stroke-width="2" d="M244.5,-434.8C244.5,-423.16 244.5,-407.55 244.5,-394.24"/>
<polygon fill="black" stroke="black" stroke-width="2" points="248,-394.18 244.5,-384.18 241,-394.18 248,-394.18"/>
<text text-anchor="middle" x="266" y="-405.8" font-family="Times,serif" font-size="14.00">rows[0]</text>
</g>
<!-- N5 -->
<g id="node6" class="node">
<title>N5</title>
<polygon fill="none" stroke="black" points="139,-297 0,-297 0,-261 139,-261 139,-297"/>
<text text-anchor="middle" x="69.5" y="-275.3" font-family="Times,serif" font-size="14.00">decimal_number (4.0)</text>
</g>
<!-- N4&#45;&gt;N5 -->
<g id="edge2" class="edge">
<title>N4&#45;&gt;N5</title>
<path fill="none" stroke="black" stroke-width="2" d="M209.09,-347.8C181.6,-334.45 143.33,-315.86 113.81,-301.52"/>
<polygon fill="black" stroke="black" stroke-width="2" points="115.09,-298.25 104.56,-297.03 112.03,-304.55 115.09,-298.25"/>
<text text-anchor="middle" x="186.5" y="-318.8" font-family="Times,serif" font-size="14.00">cols[0]</text>
</g>
<!-- N6 -->
<g id="node7" class="node">
<title>N6</title>
<polygon fill="none" stroke="black" points="314,-297 175,-297 175,-261 314,-261 314,-297"/>
<text text-anchor="middle" x="244.5" y="-275.3" font-family="Times,serif" font-size="14.00">decimal_number (2.0)</text>
</g>
<!-- N4&#45;&gt;N6 -->
<g id="edge3" class="edge">
<title>N4&#45;&gt;N6</title>
<path fill="none" stroke="black" stroke-width="2" d="M244.5,-347.8C244.5,-336.16 244.5,-320.55 244.5,-307.24"/>
<polygon fill="black" stroke="black" stroke-width="2" points="248,-307.18 244.5,-297.18 241,-307.18 248,-307.18"/>
<text text-anchor="middle" x="263.5" y="-318.8" font-family="Times,serif" font-size="14.00">cols[1]</text>
</g>
<!-- N7 -->
<g id="node8" class="node">
<title>N7</title>
<polygon fill="none" stroke="black" points="489,-297 350,-297 350,-261 489,-261 489,-297"/>
<text text-anchor="middle" x="419.5" y="-275.3" font-family="Times,serif" font-size="14.00">decimal_number (1.0)</text>
</g>
<!-- N4&#45;&gt;N7 -->
<g id="edge4" class="edge">
<title>N4&#45;&gt;N7</title>
<path fill="none" stroke="black" stroke-width="2" d="M279.91,-347.8C307.4,-334.45 345.67,-315.86 375.19,-301.52"/>
<polygon fill="black" stroke="black" stroke-width="2" points="376.97,-304.55 384.44,-297.03 373.91,-298.25 376.97,-304.55"/>
<text text-anchor="middle" x="361.5" y="-318.8" font-family="Times,serif" font-size="14.00">cols[2]</text>
</g>
<!-- N9 -->
<g id="node10" class="node">
<title>N9</title>
<polygon fill="none" stroke="black" points="496,-471 327,-471 327,-435 496,-435 496,-471"/>
<text text-anchor="middle" x="411.5" y="-449.3" font-family="Times,serif" font-size="14.00">FUNC_IDENT (Total_legs)</text>
</g>
<!-- N8&#45;&gt;N9 -->
<g id="edge8" class="edge">
<title>N8&#45;&gt;N9</title>
<path fill="none" stroke="black" stroke-width="2" d="M652.73,-527.68C628.39,-520.99 597.14,-512.24 569.5,-504 537.79,-494.55 502.69,-483.5 473.64,-474.19"/>
<polygon fill="black" stroke="black" stroke-width="2" points="474.62,-470.83 464.03,-471.11 472.48,-477.5 474.62,-470.83"/>
<text text-anchor="middle" x="585" y="-492.8" font-family="Times,serif" font-size="14.00">name</text>
</g>
<!-- N10 -->
<g id="node11" class="node">
<title>N10</title>
<polygon fill="none" stroke="black" points="609,-471 532,-471 532,-435 609,-435 609,-471"/>
<text text-anchor="middle" x="570.5" y="-449.3" font-family="Times,serif" font-size="14.00">formal_arg</text>
</g>
<!-- N8&#45;&gt;N10 -->
<g id="edge10" class="edge">
<title>N8&#45;&gt;N10</title>
<path fill="none" stroke="black" stroke-width="2" d="M658.12,-522C647.92,-516.7 637.03,-510.53 627.5,-504 616.47,-496.44 605.22,-487.01 595.66,-478.38"/>
<polygon fill="black" stroke="black" stroke-width="2" points="597.8,-475.59 588.07,-471.38 593.05,-480.74 597.8,-475.59"/>
<text text-anchor="middle" x="656.5" y="-492.8" font-family="Times,serif" font-size="14.00">formals[0]</text>
</g>
<!-- N12 -->
<g id="node13" class="node">
<title>N12</title>
<polygon fill="none" stroke="black" points="743.5,-471 645.5,-471 645.5,-435 743.5,-435 743.5,-471"/>
<text text-anchor="middle" x="694.5" y="-449.3" font-family="Times,serif" font-size="14.00">rettype (scalar)</text>
</g>
<!-- N8&#45;&gt;N12 -->
<g id="edge11" class="edge">
<title>N8&#45;&gt;N12</title>
<path fill="none" stroke="black" stroke-width="2" d="M694.5,-521.8C694.5,-510.16 694.5,-494.55 694.5,-481.24"/>
<polygon fill="black" stroke="black" stroke-width="2" points="698,-481.18 694.5,-471.18 691,-481.18 698,-481.18"/>
<text text-anchor="middle" x="713.5" y="-492.8" font-family="Times,serif" font-size="14.00">rettype</text>
</g>
<!-- N13 -->
<g id="node14" class="node">
<title>N13</title>
<ellipse fill="none" stroke="black" cx="814.5" cy="-453" rx="35.19" ry="18"/>
<text text-anchor="middle" x="814.5" y="-449.3" font-family="Times,serif" font-size="14.00">NONE</text>
</g>
<!-- N8&#45;&gt;N13 -->
<g id="edge12" class="edge">
<title>N8&#45;&gt;N13</title>
<path fill="none" stroke="black" stroke-width="2" d="M718.78,-521.8C738.32,-507.96 765.8,-488.5 786.3,-473.97"/>
<polygon fill="black" stroke="black" stroke-width="2" points="788.48,-476.72 794.62,-468.08 784.44,-471 788.48,-476.72"/>
<text text-anchor="middle" x="802" y="-492.8" font-family="Times,serif" font-size="14.00">vars[EMPTY]</text>
</g>
<!-- N14 -->
<g id="node15" class="node">
<title>N14</title>
<polygon fill="none" stroke="black" points="939.5,-471 885.5,-471 885.5,-435 939.5,-435 939.5,-471"/>
<text text-anchor="middle" x="912.5" y="-449.3" font-family="Times,serif" font-size="14.00">return</text>
</g>
<!-- N8&#45;&gt;N14 -->
<g id="edge31" class="edge">
<title>N8&#45;&gt;N14</title>
<path fill="none" stroke="black" stroke-width="2" d="M736.27,-534.88C768.71,-530.46 814.13,-521.55 850.5,-504 864.1,-497.44 877.37,-487.38 888.13,-478"/>
<polygon fill="black" stroke="black" stroke-width="2" points="890.76,-480.34 895.82,-471.03 886.06,-475.15 890.76,-480.34"/>
<text text-anchor="middle" x="898.5" y="-492.8" font-family="Times,serif" font-size="14.00">stmts[0]</text>
</g>
<!-- N11 -->
<g id="node12" class="node">
<title>N11</title>
<polygon fill="none" stroke="black" points="637.5,-384 503.5,-384 503.5,-348 637.5,-348 637.5,-384"/>
<text text-anchor="middle" x="570.5" y="-362.3" font-family="Times,serif" font-size="14.00">SHEET_IDENT (SS)</text>
</g>
<!-- N10&#45;&gt;N11 -->
<g id="edge9" class="edge">
<title>N10&#45;&gt;N11</title>
<path fill="none" stroke="black" stroke-width="2" d="M570.5,-434.8C570.5,-423.16 570.5,-407.55 570.5,-394.24"/>
<polygon fill="black" stroke="black" stroke-width="2" points="574,-394.18 570.5,-384.18 567,-394.18 574,-394.18"/>
<text text-anchor="middle" x="586" y="-405.8" font-family="Times,serif" font-size="14.00">name</text>
</g>
<!-- N15 -->
<g id="node16" class="node">
<title>N15</title>
<polygon fill="none" stroke="black" points="830.5,-384 776.5,-384 776.5,-348 830.5,-348 830.5,-384"/>
<text text-anchor="middle" x="803.5" y="-362.3" font-family="Times,serif" font-size="14.00">oper +</text>
</g>
<!-- N14&#45;&gt;N15 -->
<g id="edge29" class="edge">
<title>N14&#45;&gt;N15</title>
<path fill="none" stroke="black" stroke-width="2" d="M890.44,-434.8C874.04,-422.01 851.48,-404.42 833.45,-390.36"/>
<polygon fill="black" stroke="black" stroke-width="2" points="835.56,-387.56 825.52,-384.18 831.26,-393.08 835.56,-387.56"/>
<text text-anchor="middle" x="878" y="-405.8" font-family="Times,serif" font-size="14.00">expr</text>
</g>
<!-- N32 -->
<g id="node33" class="node">
<title>N32</title>
<polygon fill="none" stroke="black" points="958.5,-384 866.5,-384 866.5,-348 958.5,-348 958.5,-384"/>
<text text-anchor="middle" x="912.5" y="-362.3" font-family="Times,serif" font-size="14.00">usage (scalar)</text>
</g>
<!-- N14&#45;&gt;N32 -->
<g id="edge30" class="edge">
<title>N14&#45;&gt;N32</title>
<path fill="none" stroke="black" stroke-width="2" d="M912.5,-434.8C912.5,-423.16 912.5,-407.55 912.5,-394.24"/>
<polygon fill="black" stroke="black" stroke-width="2" points="916,-394.18 912.5,-384.18 909,-394.18 916,-394.18"/>
<text text-anchor="middle" x="928" y="-405.8" font-family="Times,serif" font-size="14.00">usage</text>
</g>
<!-- N16 -->
<g id="node17" class="node">
<title>N16</title>
<polygon fill="none" stroke="black" points="789.5,-297 735.5,-297 735.5,-261 789.5,-261 789.5,-297"/>
<text text-anchor="middle" x="762.5" y="-275.3" font-family="Times,serif" font-size="14.00">oper +</text>
</g>
<!-- N15&#45;&gt;N16 -->
<g id="edge23" class="edge">
<title>N15&#45;&gt;N16</title>
<path fill="none" stroke="black" stroke-width="2" d="M795.2,-347.8C789.48,-335.93 781.76,-319.93 775.26,-306.45"/>
<polygon fill="black" stroke="black" stroke-width="2" points="778.28,-304.66 770.78,-297.18 771.98,-307.7 778.28,-304.66"/>
<text text-anchor="middle" x="795" y="-318.8" font-family="Times,serif" font-size="14.00">left</text>
</g>
<!-- N27 -->
<g id="node28" class="node">
<title>N27</title>
<polygon fill="none" stroke="black" points="1003.5,-297 949.5,-297 949.5,-261 1003.5,-261 1003.5,-297"/>
<text text-anchor="middle" x="976.5" y="-275.3" font-family="Times,serif" font-size="14.00">oper *</text>
</g>
<!-- N15&#45;&gt;N27 -->
<g id="edge28" class="edge">
<title>N15&#45;&gt;N27</title>
<path fill="none" stroke="black" stroke-width="2" d="M830.53,-351.72C860.03,-337.23 907.4,-313.95 940.14,-297.87"/>
<polygon fill="black" stroke="black" stroke-width="2" points="941.94,-300.88 949.37,-293.33 938.86,-294.6 941.94,-300.88"/>
<text text-anchor="middle" x="914" y="-318.8" font-family="Times,serif" font-size="14.00">right</text>
</g>
<!-- N17 -->
<g id="node18" class="node">
<title>N17</title>
<polygon fill="none" stroke="black" points="560.5,-210 506.5,-210 506.5,-174 560.5,-174 560.5,-210"/>
<text text-anchor="middle" x="533.5" y="-188.3" font-family="Times,serif" font-size="14.00">oper *</text>
</g>
<!-- N16&#45;&gt;N17 -->
<g id="edge17" class="edge">
<title>N16&#45;&gt;N17</title>
<path fill="none" stroke="black" stroke-width="2" d="M735.33,-267.92C694.27,-252.67 616.32,-223.74 570.24,-206.64"/>
<polygon fill="black" stroke="black" stroke-width="2" points="571.23,-203.27 560.63,-203.07 568.79,-209.83 571.23,-203.27"/>
<text text-anchor="middle" x="672" y="-231.8" font-family="Times,serif" font-size="14.00">left</text>
</g>
<!-- N22 -->
<g id="node23" class="node">
<title>N22</title>
<polygon fill="none" stroke="black" points="789.5,-210 735.5,-210 735.5,-174 789.5,-174 789.5,-210"/>
<text text-anchor="middle" x="762.5" y="-188.3" font-family="Times,serif" font-size="14.00">oper *</text>
</g>
<!-- N16&#45;&gt;N22 -->
<g id="edge22" class="edge">
<title>N16&#45;&gt;N22</title>
<path fill="none" stroke="black" stroke-width="2" d="M762.5,-260.8C762.5,-249.16 762.5,-233.55 762.5,-220.24"/>
<polygon fill="black" stroke="black" stroke-width="2" points="766,-220.18 762.5,-210.18 759,-220.18 766,-220.18"/>
<text text-anchor="middle" x="776" y="-231.8" font-family="Times,serif" font-size="14.00">right</text>
</g>
<!-- N18 -->
<g id="node19" class="node">
<title>N18</title>
<polygon fill="none" stroke="black" points="427.5,-123 369.5,-123 369.5,-87 427.5,-87 427.5,-123"/>
<text text-anchor="middle" x="398.5" y="-101.3" font-family="Times,serif" font-size="14.00">cell_ref</text>
</g>
<!-- N17&#45;&gt;N18 -->
<g id="edge15" class="edge">
<title>N17&#45;&gt;N18</title>
<path fill="none" stroke="black" stroke-width="2" d="M506.18,-173.8C485.5,-160.78 456.92,-142.78 434.39,-128.6"/>
<polygon fill="black" stroke="black" stroke-width="2" points="436.11,-125.54 425.78,-123.18 432.38,-131.47 436.11,-125.54"/>
<text text-anchor="middle" x="484" y="-144.8" font-family="Times,serif" font-size="14.00">left</text>
</g>
<!-- N21 -->
<g id="node22" class="node">
<title>N21</title>
<polygon fill="none" stroke="black" points="603,-123 464,-123 464,-87 603,-87 603,-123"/>
<text text-anchor="middle" x="533.5" y="-101.3" font-family="Times,serif" font-size="14.00">decimal_number (2.0)</text>
</g>
<!-- N17&#45;&gt;N21 -->
<g id="edge16" class="edge">
<title>N17&#45;&gt;N21</title>
<path fill="none" stroke="black" stroke-width="2" d="M533.5,-173.8C533.5,-162.16 533.5,-146.55 533.5,-133.24"/>
<polygon fill="black" stroke="black" stroke-width="2" points="537,-133.18 533.5,-123.18 530,-133.18 537,-133.18"/>
<text text-anchor="middle" x="547" y="-144.8" font-family="Times,serif" font-size="14.00">right</text>
</g>
<!-- N19 -->
<g id="node20" class="node">
<title>N19</title>
<polygon fill="none" stroke="black" points="329.5,-36 195.5,-36 195.5,0 329.5,0 329.5,-36"/>
<text text-anchor="middle" x="262.5" y="-14.3" font-family="Times,serif" font-size="14.00">SHEET_IDENT (SS)</text>
</g>
<!-- N18&#45;&gt;N19 -->
<g id="edge13" class="edge">
<title>N18&#45;&gt;N19</title>
<path fill="none" stroke="black" stroke-width="2" d="M370.98,-86.8C350.15,-73.78 321.35,-55.78 298.66,-41.6"/>
<polygon fill="black" stroke="black" stroke-width="2" points="300.32,-38.51 289.98,-36.18 296.61,-44.44 300.32,-38.51"/>
<text text-anchor="middle" x="355" y="-57.8" font-family="Times,serif" font-size="14.00">name</text>
</g>
<!-- N20 -->
<g id="node21" class="node">
<title>N20</title>
<polygon fill="none" stroke="black" points="485,-36 366,-36 366,0 485,0 485,-36"/>
<text text-anchor="middle" x="425.5" y="-14.3" font-family="Times,serif" font-size="14.00">coord ((0, 0, &#39;A1&#39;))</text>
</g>
<!-- N18&#45;&gt;N20 -->
<g id="edge14" class="edge">
<title>N18&#45;&gt;N20</title>
<path fill="none" stroke="black" stroke-width="2" d="M403.96,-86.8C407.7,-75.05 412.72,-59.24 416.97,-45.84"/>
<polygon fill="black" stroke="black" stroke-width="2" points="420.35,-46.77 420.04,-36.18 413.68,-44.65 420.35,-46.77"/>
<text text-anchor="middle" x="430" y="-57.8" font-family="Times,serif" font-size="14.00">coord</text>
</g>
<!-- N23 -->
<g id="node24" class="node">
<title>N23</title>
<polygon fill="none" stroke="black" points="697.5,-123 639.5,-123 639.5,-87 697.5,-87 697.5,-123"/>
<text text-anchor="middle" x="668.5" y="-101.3" font-family="Times,serif" font-size="14.00">cell_ref</text>
</g>
<!-- N22&#45;&gt;N23 -->
<g id="edge20" class="edge">
<title>N22&#45;&gt;N23</title>
<path fill="none" stroke="black" stroke-width="2" d="M743.48,-173.8C729.59,-161.24 710.58,-144.05 695.17,-130.12"/>
<polygon fill="black" stroke="black" stroke-width="2" points="697.26,-127.29 687.49,-123.18 692.56,-132.48 697.26,-127.29"/>
<text text-anchor="middle" x="731" y="-144.8" font-family="Times,serif" font-size="14.00">left</text>
</g>
<!-- N26 -->
<g id="node27" class="node">
<title>N26</title>
<polygon fill="none" stroke="black" points="873,-123 734,-123 734,-87 873,-87 873,-123"/>
<text text-anchor="middle" x="803.5" y="-101.3" font-family="Times,serif" font-size="14.00">decimal_number (4.0)</text>
</g>
<!-- N22&#45;&gt;N26 -->
<g id="edge21" class="edge">
<title>N22&#45;&gt;N26</title>
<path fill="none" stroke="black" stroke-width="2" d="M770.8,-173.8C776.52,-161.93 784.24,-145.93 790.74,-132.45"/>
<polygon fill="black" stroke="black" stroke-width="2" points="794.02,-133.7 795.22,-123.18 787.72,-130.66 794.02,-133.7"/>
<text text-anchor="middle" x="799" y="-144.8" font-family="Times,serif" font-size="14.00">right</text>
</g>
<!-- N24 -->
<g id="node25" class="node">
<title>N24</title>
<polygon fill="none" stroke="black" points="682.5,-36 548.5,-36 548.5,0 682.5,0 682.5,-36"/>
<text text-anchor="middle" x="615.5" y="-14.3" font-family="Times,serif" font-size="14.00">SHEET_IDENT (SS)</text>
</g>
<!-- N23&#45;&gt;N24 -->
<g id="edge18" class="edge">
<title>N23&#45;&gt;N24</title>
<path fill="none" stroke="black" stroke-width="2" d="M657.77,-86.8C650.23,-74.7 640.01,-58.3 631.5,-44.67"/>
<polygon fill="black" stroke="black" stroke-width="2" points="634.47,-42.81 626.21,-36.18 628.53,-46.51 634.47,-42.81"/>
<text text-anchor="middle" x="661" y="-57.8" font-family="Times,serif" font-size="14.00">name</text>
</g>
<!-- N25 -->
<g id="node26" class="node">
<title>N25</title>
<polygon fill="none" stroke="black" points="836.5,-36 718.5,-36 718.5,0 836.5,0 836.5,-36"/>
<text text-anchor="middle" x="777.5" y="-14.3" font-family="Times,serif" font-size="14.00">coord ((1, 0, &#39;B1&#39;))</text>
</g>
<!-- N23&#45;&gt;N25 -->
<g id="edge19" class="edge">
<title>N23&#45;&gt;N25</title>
<path fill="none" stroke="black" stroke-width="2" d="M690.56,-86.8C706.96,-74.01 729.52,-56.42 747.55,-42.36"/>
<polygon fill="black" stroke="black" stroke-width="2" points="749.74,-45.08 755.48,-36.18 745.44,-39.56 749.74,-45.08"/>
<text text-anchor="middle" x="746" y="-57.8" font-family="Times,serif" font-size="14.00">coord</text>
</g>
<!-- N28 -->
<g id="node29" class="node">
<title>N28</title>
<polygon fill="none" stroke="black" points="1005.5,-210 947.5,-210 947.5,-174 1005.5,-174 1005.5,-210"/>
<text text-anchor="middle" x="976.5" y="-188.3" font-family="Times,serif" font-size="14.00">cell_ref</text>
</g>
<!-- N27&#45;&gt;N28 -->
<g id="edge26" class="edge">
<title>N27&#45;&gt;N28</title>
<path fill="none" stroke="black" stroke-width="2" d="M976.5,-260.8C976.5,-249.16 976.5,-233.55 976.5,-220.24"/>
<polygon fill="black" stroke="black" stroke-width="2" points="980,-220.18 976.5,-210.18 973,-220.18 980,-220.18"/>
<text text-anchor="middle" x="986" y="-231.8" font-family="Times,serif" font-size="14.00">left</text>
</g>
<!-- N31 -->
<g id="node32" class="node">
<title>N31</title>
<polygon fill="none" stroke="black" points="1181,-210 1042,-210 1042,-174 1181,-174 1181,-210"/>
<text text-anchor="middle" x="1111.5" y="-188.3" font-family="Times,serif" font-size="14.00">decimal_number (8.0)</text>
</g>
<!-- N27&#45;&gt;N31 -->
<g id="edge27" class="edge">
<title>N27&#45;&gt;N31</title>
<path fill="none" stroke="black" stroke-width="2" d="M1003.82,-260.8C1024.5,-247.78 1053.08,-229.78 1075.61,-215.6"/>
<polygon fill="black" stroke="black" stroke-width="2" points="1077.62,-218.47 1084.22,-210.18 1073.89,-212.54 1077.62,-218.47"/>
<text text-anchor="middle" x="1066" y="-231.8" font-family="Times,serif" font-size="14.00">right</text>
</g>
<!-- N29 -->
<g id="node30" class="node">
<title>N29</title>
<polygon fill="none" stroke="black" points="1043.5,-123 909.5,-123 909.5,-87 1043.5,-87 1043.5,-123"/>
<text text-anchor="middle" x="976.5" y="-101.3" font-family="Times,serif" font-size="14.00">SHEET_IDENT (SS)</text>
</g>
<!-- N28&#45;&gt;N29 -->
<g id="edge24" class="edge">
<title>N28&#45;&gt;N29</title>
<path fill="none" stroke="black" stroke-width="2" d="M976.5,-173.8C976.5,-162.16 976.5,-146.55 976.5,-133.24"/>
<polygon fill="black" stroke="black" stroke-width="2" points="980,-133.18 976.5,-123.18 973,-133.18 980,-133.18"/>
<text text-anchor="middle" x="992" y="-144.8" font-family="Times,serif" font-size="14.00">name</text>
</g>
<!-- N30 -->
<g id="node31" class="node">
<title>N30</title>
<polygon fill="none" stroke="black" points="1197.5,-123 1079.5,-123 1079.5,-87 1197.5,-87 1197.5,-123"/>
<text text-anchor="middle" x="1138.5" y="-101.3" font-family="Times,serif" font-size="14.00">coord ((2, 0, &#39;C1&#39;))</text>
</g>
<!-- N28&#45;&gt;N30 -->
<g id="edge25" class="edge">
<title>N28&#45;&gt;N30</title>
<path fill="none" stroke="black" stroke-width="2" d="M1005.84,-175.61C1031.34,-162.22 1068.58,-142.69 1097.11,-127.72"/>
<polygon fill="black" stroke="black" stroke-width="2" points="1098.82,-130.77 1106.04,-123.03 1095.56,-124.58 1098.82,-130.77"/>
<text text-anchor="middle" x="1083" y="-144.8" font-family="Times,serif" font-size="14.00">coord</text>
</g>
<!-- N34 -->
<g id="node35" class="node">
<title>N34</title>
<polygon fill="none" stroke="black" points="1120,-471 981,-471 981,-435 1120,-435 1120,-471"/>
<text text-anchor="middle" x="1050.5" y="-449.3" font-family="Times,serif" font-size="14.00">infostring (Total legs:)</text>
</g>
<!-- N33&#45;&gt;N34 -->
<g id="edge33" class="edge">
<title>N33&#45;&gt;N34</title>
<path fill="none" stroke="black" stroke-width="2" d="M1050.5,-521.8C1050.5,-510.16 1050.5,-494.55 1050.5,-481.24"/>
<polygon fill="black" stroke="black" stroke-width="2" points="1054,-481.18 1050.5,-471.18 1047,-481.18 1054,-481.18"/>
<text text-anchor="middle" x="1068" y="-492.8" font-family="Times,serif" font-size="14.00">infostr</text>
</g>
<!-- N35 -->
<g id="node36" class="node">
<title>N35</title>
<polygon fill="none" stroke="black" points="1253.5,-471 1165.5,-471 1165.5,-435 1253.5,-435 1253.5,-471"/>
<text text-anchor="middle" x="1209.5" y="-449.3" font-family="Times,serif" font-size="14.00">function_call</text>
</g>
<!-- N33&#45;&gt;N35 -->
<g id="edge38" class="edge">
<title>N33&#45;&gt;N35</title>
<path fill="none" stroke="black" stroke-width="2" d="M1082.68,-521.8C1107.43,-508.56 1141.82,-490.18 1168.54,-475.9"/>
<polygon fill="black" stroke="black" stroke-width="2" points="1170.47,-478.83 1177.64,-471.03 1167.17,-472.66 1170.47,-478.83"/>
<text text-anchor="middle" x="1153" y="-492.8" font-family="Times,serif" font-size="14.00">expr</text>
</g>
<!-- N36 -->
<g id="node37" class="node">
<title>N36</title>
<polygon fill="none" stroke="black" points="1164,-384 995,-384 995,-348 1164,-348 1164,-384"/>
<text text-anchor="middle" x="1079.5" y="-362.3" font-family="Times,serif" font-size="14.00">FUNC_IDENT (Total_legs)</text>
</g>
<!-- N35&#45;&gt;N36 -->
<g id="edge34" class="edge">
<title>N35&#45;&gt;N36</title>
<path fill="none" stroke="black" stroke-width="2" d="M1183.19,-434.8C1163.37,-421.84 1136,-403.94 1114.35,-389.79"/>
<polygon fill="black" stroke="black" stroke-width="2" points="1116.05,-386.72 1105.77,-384.18 1112.22,-392.58 1116.05,-386.72"/>
<text text-anchor="middle" x="1168" y="-405.8" font-family="Times,serif" font-size="14.00">name</text>
</g>
<!-- N37 -->
<g id="node38" class="node">
<title>N37</title>
<polygon fill="none" stroke="black" points="1266.5,-384 1200.5,-384 1200.5,-348 1266.5,-348 1266.5,-384"/>
<text text-anchor="middle" x="1233.5" y="-362.3" font-family="Times,serif" font-size="14.00">sheet_ref</text>
</g>
<!-- N35&#45;&gt;N37 -->
<g id="edge36" class="edge">
<title>N35&#45;&gt;N37</title>
<path fill="none" stroke="black" stroke-width="2" d="M1214.36,-434.8C1217.67,-423.05 1222.14,-407.24 1225.92,-393.84"/>
<polygon fill="black" stroke="black" stroke-width="2" points="1229.3,-394.75 1228.65,-384.18 1222.56,-392.85 1229.3,-394.75"/>
<text text-anchor="middle" x="1243" y="-405.8" font-family="Times,serif" font-size="14.00">args[0]</text>
</g>
<!-- N39 -->
<g id="node40" class="node">
<title>N39</title>
<polygon fill="none" stroke="black" points="1394.5,-384 1302.5,-384 1302.5,-348 1394.5,-348 1394.5,-384"/>
<text text-anchor="middle" x="1348.5" y="-362.3" font-family="Times,serif" font-size="14.00">usage (scalar)</text>
</g>
<!-- N35&#45;&gt;N39 -->
<g id="edge37" class="edge">
<title>N35&#45;&gt;N39</title>
<path fill="none" stroke="black" stroke-width="2" d="M1240.62,-434.93C1250.57,-429.34 1261.56,-423.02 1271.5,-417 1285.81,-408.32 1301.34,-398.35 1314.67,-389.61"/>
<polygon fill="black" stroke="black" stroke-width="2" points="1316.66,-392.49 1323.09,-384.07 1312.81,-386.65 1316.66,-392.49"/>
<text text-anchor="middle" x="1310" y="-405.8" font-family="Times,serif" font-size="14.00">usage</text>
</g>
<!-- N38 -->
<g id="node39" class="node">
<title>N38</title>
<polygon fill="none" stroke="black" points="1311.5,-297 1155.5,-297 1155.5,-261 1311.5,-261 1311.5,-297"/>
<text text-anchor="middle" x="1233.5" y="-275.3" font-family="Times,serif" font-size="14.00">SHEET_IDENT (BARN)</text>
</g>
<!-- N37&#45;&gt;N38 -->
<g id="edge35" class="edge">
<title>N37&#45;&gt;N38</title>
<path fill="none" stroke="black" stroke-width="2" d="M1233.5,-347.8C1233.5,-336.16 1233.5,-320.55 1233.5,-307.24"/>
<polygon fill="black" stroke="black" stroke-width="2" points="1237,-307.18 1233.5,-297.18 1230,-307.18 1237,-307.18"/>
<text text-anchor="middle" x="1249" y="-318.8" font-family="Times,serif" font-size="14.00">name</text>
</g>
</g>
</svg>
