<?xml version="1.0" encoding="UTF-8" standalone="no"?>
<!DOCTYPE svg PUBLIC "-//W3C//DTD SVG 1.1//EN"
 "http://www.w3.org/Graphics/SVG/1.1/DTD/svg11.dtd">
<!-- Generated by graphviz version 2.42.3 (0)
 -->
<!-- Title: parsetree Pages: 1 -->
<svg width="2133pt" height="392pt"
 viewBox="0.00 0.00 2132.50 392.00" xmlns="http://www.w3.org/2000/svg" xmlns:xlink="http://www.w3.org/1999/xlink">
<g id="graph0" class="graph" transform="scale(1 1) rotate(0) translate(4 388)">
<title>parsetree</title>
<polygon fill="white" stroke="transparent" points="-4,4 -4,-388 2128.5,-388 2128.5,4 -4,4"/>
<!-- N0 -->
<g id="node1" class="node">
<title>N0</title>
<polygon fill="none" stroke="black" points="1380.5,-384 1316.5,-384 1316.5,-348 1380.5,-348 1380.5,-384"/>
<text text-anchor="middle" x="1348.5" y="-362.3" font-family="Times,serif" font-size="14.00">program</text>
</g>
<!-- N1 -->
<g id="node2" class="node">
<title>N1</title>
<polygon fill="none" stroke="black" points="580,-297 477,-297 477,-261 580,-261 580,-297"/>
<text text-anchor="middle" x="528.5" y="-275.3" font-family="Times,serif" font-size="14.00">sheet_definition</text>
</g>
<!-- N0&#45;&gt;N1 -->
<g id="edge9" class="edge">
<title>N0&#45;&gt;N1</title>
<path fill="none" stroke="black" stroke-width="2" d="M1316.36,-361.67C1193.72,-348.96 753.98,-303.37 590.38,-286.41"/>
<polygon fill="black" stroke="black" stroke-width="2" points="590.32,-282.89 580.01,-285.34 589.6,-289.85 590.32,-282.89"/>
<text text-anchor="middle" x="1026" y="-318.8" font-family="Times,serif" font-size="14.00">funcs_vars[0]</text>
</g>
<!-- N10 -->
<g id="node11" class="node">
<title>N10</title>
<polygon fill="none" stroke="black" points="1029,-297 924,-297 924,-261 1029,-261 1029,-297"/>
<text text-anchor="middle" x="976.5" y="-275.3" font-family="Times,serif" font-size="14.00">range_definition</text>
</g>
<!-- N0&#45;&gt;N10 -->
<g id="edge18" class="edge">
<title>N0&#45;&gt;N10</title>
<path fill="none" stroke="black" stroke-width="2" d="M1316.46,-357.68C1254.94,-343.62 1119.29,-312.63 1039.18,-294.32"/>
<polygon fill="black" stroke="black" stroke-width="2" points="1039.74,-290.86 1029.22,-292.05 1038.18,-297.68 1039.74,-290.86"/>
<text text-anchor="middle" x="1223" y="-318.8" font-family="Times,serif" font-size="14.00">funcs_vars[1]</text>
</g>
<!-- N19 -->
<g id="node20" class="node">
<title>N19</title>
<polygon fill="none" stroke="black" points="1334,-297 1229,-297 1229,-261 1334,-261 1334,-297"/>
<text text-anchor="middle" x="1281.5" y="-275.3" font-family="Times,serif" font-size="14.00">range_definition</text>
</g>
<!-- N0&#45;&gt;N19 -->
<g id="edge23" class="edge">
<title>N0&#45;&gt;N19</title>
<path fill="none" stroke="black" stroke-width="2" d="M1322.91,-347.93C1316.34,-342.72 1309.68,-336.61 1304.5,-330 1299.05,-323.05 1294.54,-314.6 1291,-306.64"/>
<polygon fill="black" stroke="black" stroke-width="2" points="1294.2,-305.23 1287.16,-297.31 1287.73,-307.89 1294.2,-305.23"/>
<text text-anchor="middle" x="1342" y="-318.8" font-family="Times,serif" font-size="14.00">funcs_vars[2]</text>
</g>
<!-- N24 -->
<g id="node25" class="node">
<title>N24</title>
<polygon fill="none" stroke="black" points="1472,-297 1395,-297 1395,-261 1472,-261 1472,-297"/>
<text text-anchor="middle" x="1433.5" y="-275.3" font-family="Times,serif" font-size="14.00">print_sheet</text>
</g>
<!-- N0&#45;&gt;N24 -->
<g id="edge27" class="edge">
<title>N0&#45;&gt;N24</title>
<path fill="none" stroke="black" stroke-width="2" d="M1366.16,-347.99C1372.03,-342.3 1378.57,-335.91 1384.5,-330 1392.81,-321.73 1401.81,-312.59 1409.81,-304.41"/>
<polygon fill="black" stroke="black" stroke-width="2" points="1412.34,-306.83 1416.82,-297.23 1407.33,-301.94 1412.34,-306.83"/>
<text text-anchor="middle" x="1430.5" y="-318.8" font-family="Times,serif" font-size="14.00">stmt_list[0]</text>
</g>
<!-- N28 -->
<g id="node29" class="node">
<title>N28</title>
<polygon fill="none" stroke="black" points="1721.5,-297 1641.5,-297 1641.5,-261 1721.5,-261 1721.5,-297"/>
<text text-anchor="middle" x="1681.5" y="-275.3" font-family="Times,serif" font-size="14.00">print_range</text>
</g>
<!-- N0&#45;&gt;N28 -->
<g id="edge31" class="edge">
<title>N0&#45;&gt;N28</title>
<path fill="none" stroke="black" stroke-width="2" d="M1380.73,-356.77C1438.99,-341.9 1562.2,-310.45 1631.48,-292.77"/>
<polygon fill="black" stroke="black" stroke-width="2" points="1632.48,-296.13 1641.3,-290.26 1630.75,-289.34 1632.48,-296.13"/>
<text text-anchor="middle" x="1567.5" y="-318.8" font-family="Times,serif" font-size="14.00">stmt_list[1]</text>
</g>
<!-- N32 -->
<g id="node33" class="node">
<title>N32</title>
<polygon fill="none" stroke="black" points="1968.5,-297 1888.5,-297 1888.5,-261 1968.5,-261 1968.5,-297"/>
<text text-anchor="middle" x="1928.5" y="-275.3" font-family="Times,serif" font-size="14.00">print_range</text>
</g>
<!-- N0&#45;&gt;N32 -->
<g id="edge35" class="edge">
<title>N0&#45;&gt;N32</title>
<path fill="none" stroke="black" stroke-width="2" d="M1380.55,-360.91C1429.66,-354.59 1526.47,-341.93 1608.5,-330 1704.04,-316.11 1815.36,-298.36 1878.33,-288.18"/>
<polygon fill="black" stroke="black" stroke-width="2" points="1879.07,-291.6 1888.38,-286.55 1877.95,-284.69 1879.07,-291.6"/>
<text text-anchor="middle" x="1737.5" y="-318.8" font-family="Times,serif" font-size="14.00">stmt_list[2]</text>
</g>
<!-- N2 -->
<g id="node3" class="node">
<title>N2</title>
<polygon fill="none" stroke="black" points="446.5,-210 312.5,-210 312.5,-174 446.5,-174 446.5,-210"/>
<text text-anchor="middle" x="379.5" y="-188.3" font-family="Times,serif" font-size="14.00">SHEET_IDENT (SS)</text>
</g>
<!-- N1&#45;&gt;N2 -->
<g id="edge1" class="edge">
<title>N1&#45;&gt;N2</title>
<path fill="none" stroke="black" stroke-width="2" d="M498.35,-260.8C475.25,-247.62 443.21,-229.34 418.21,-215.08"/>
<polygon fill="black" stroke="black" stroke-width="2" points="419.77,-211.95 409.35,-210.03 416.3,-218.03 419.77,-211.95"/>
<text text-anchor="middle" x="479" y="-231.8" font-family="Times,serif" font-size="14.00">name</text>
</g>
<!-- N3 -->
<g id="node4" class="node">
<title>N3</title>
<polygon fill="none" stroke="black" points="574.5,-210 482.5,-210 482.5,-174 574.5,-174 574.5,-210"/>
<text text-anchor="middle" x="528.5" y="-188.3" font-family="Times,serif" font-size="14.00">sheet_init_list</text>
</g>
<!-- N1&#45;&gt;N3 -->
<g id="edge8" class="edge">
<title>N1&#45;&gt;N3</title>
<path fill="none" stroke="black" stroke-width="2" d="M528.5,-260.8C528.5,-249.16 528.5,-233.55 528.5,-220.24"/>
<polygon fill="black" stroke="black" stroke-width="2" points="532,-220.18 528.5,-210.18 525,-220.18 532,-220.18"/>
<text text-anchor="middle" x="538" y="-231.8" font-family="Times,serif" font-size="14.00">init</text>
</g>
<!-- N4 -->
<g id="node5" class="node">
<title>N4</title>
<polygon fill="none" stroke="black" points="285,-123 204,-123 204,-87 285,-87 285,-123"/>
<text text-anchor="middle" x="244.5" y="-101.3" font-family="Times,serif" font-size="14.00">col_init_list</text>
</g>
<!-- N3&#45;&gt;N4 -->
<g id="edge4" class="edge">
<title>N3&#45;&gt;N4</title>
<path fill="none" stroke="black" stroke-width="2" d="M482.24,-177.15C430.85,-161.77 348.16,-137.02 295.09,-121.14"/>
<polygon fill="black" stroke="black" stroke-width="2" points="295.8,-117.7 285.21,-118.19 293.79,-124.41 295.8,-117.7"/>
<text text-anchor="middle" x="426" y="-144.8" font-family="Times,serif" font-size="14.00">rows[0]</text>
</g>
<!-- N7 -->
<g id="node8" class="node">
<title>N7</title>
<polygon fill="none" stroke="black" points="569,-123 488,-123 488,-87 569,-87 569,-123"/>
<text text-anchor="middle" x="528.5" y="-101.3" font-family="Times,serif" font-size="14.00">col_init_list</text>
</g>
<!-- N3&#45;&gt;N7 -->
<g id="edge7" class="edge">
<title>N3&#45;&gt;N7</title>
<path fill="none" stroke="black" stroke-width="2" d="M528.5,-173.8C528.5,-162.16 528.5,-146.55 528.5,-133.24"/>
<polygon fill="black" stroke="black" stroke-width="2" points="532,-133.18 528.5,-123.18 525,-133.18 532,-133.18"/>
<text text-anchor="middle" x="550" y="-144.8" font-family="Times,serif" font-size="14.00">rows[1]</text>
</g>
<!-- N5 -->
<g id="node6" class="node">
<title>N5</title>
<polygon fill="none" stroke="black" points="139,-36 0,-36 0,0 139,0 139,-36"/>
<text text-anchor="middle" x="69.5" y="-14.3" font-family="Times,serif" font-size="14.00">decimal_number (1.0)</text>
</g>
<!-- N4&#45;&gt;N5 -->
<g id="edge2" class="edge">
<title>N4&#45;&gt;N5</title>
<path fill="none" stroke="black" stroke-width="2" d="M209.09,-86.8C181.6,-73.45 143.33,-54.86 113.81,-40.52"/>
<polygon fill="black" stroke="black" stroke-width="2" points="115.09,-37.25 104.56,-36.03 112.03,-43.55 115.09,-37.25"/>
<text text-anchor="middle" x="186.5" y="-57.8" font-family="Times,serif" font-size="14.00">cols[0]</text>
</g>
<!-- N6 -->
<g id="node7" class="node">
<title>N6</title>
<polygon fill="none" stroke="black" points="314,-36 175,-36 175,0 314,0 314,-36"/>
<text text-anchor="middle" x="244.5" y="-14.3" font-family="Times,serif" font-size="14.00">decimal_number (2.0)</text>
</g>
<!-- N4&#45;&gt;N6 -->
<g id="edge3" class="edge">
<title>N4&#45;&gt;N6</title>
<path fill="none" stroke="black" stroke-width="2" d="M244.5,-86.8C244.5,-75.16 244.5,-59.55 244.5,-46.24"/>
<polygon fill="black" stroke="black" stroke-width="2" points="248,-46.18 244.5,-36.18 241,-46.18 248,-46.18"/>
<text text-anchor="middle" x="263.5" y="-57.8" font-family="Times,serif" font-size="14.00">cols[1]</text>
</g>
<!-- N8 -->
<g id="node9" class="node">
<title>N8</title>
<polygon fill="none" stroke="black" points="489,-36 350,-36 350,0 489,0 489,-36"/>
<text text-anchor="middle" x="419.5" y="-14.3" font-family="Times,serif" font-size="14.00">decimal_number (3.0)</text>
</g>
<!-- N7&#45;&gt;N8 -->
<g id="edge5" class="edge">
<title>N7&#45;&gt;N8</title>
<path fill="none" stroke="black" stroke-width="2" d="M506.44,-86.8C490.04,-74.01 467.48,-56.42 449.45,-42.36"/>
<polygon fill="black" stroke="black" stroke-width="2" points="451.56,-39.56 441.52,-36.18 447.26,-45.08 451.56,-39.56"/>
<text text-anchor="middle" x="500.5" y="-57.8" font-family="Times,serif" font-size="14.00">cols[0]</text>
</g>
<!-- N9 -->
<g id="node10" class="node">
<title>N9</title>
<polygon fill="none" stroke="black" points="664,-36 525,-36 525,0 664,0 664,-36"/>
<text text-anchor="middle" x="594.5" y="-14.3" font-family="Times,serif" font-size="14.00">decimal_number (4.0)</text>
</g>
<!-- N7&#45;&gt;N9 -->
<g id="edge6" class="edge">
<title>N7&#45;&gt;N9</title>
<path fill="none" stroke="black" stroke-width="2" d="M541.86,-86.8C551.34,-74.59 564.22,-57.99 574.87,-44.28"/>
<polygon fill="black" stroke="black" stroke-width="2" points="577.8,-46.22 581.16,-36.18 572.27,-41.93 577.8,-46.22"/>
<text text-anchor="middle" x="584.5" y="-57.8" font-family="Times,serif" font-size="14.00">cols[1]</text>
</g>
<!-- N11 -->
<g id="node12" class="node">
<title>N11</title>
<polygon fill="none" stroke="black" points="913,-210 764,-210 764,-174 913,-174 913,-210"/>
<text text-anchor="middle" x="838.5" y="-188.3" font-family="Times,serif" font-size="14.00">RANGE_IDENT (_rng)</text>
</g>
<!-- N10&#45;&gt;N11 -->
<g id="edge10" class="edge">
<title>N10&#45;&gt;N11</title>
<path fill="none" stroke="black" stroke-width="2" d="M948.57,-260.8C927.44,-247.78 898.22,-229.78 875.19,-215.6"/>
<polygon fill="black" stroke="black" stroke-width="2" points="876.73,-212.44 866.38,-210.18 873.06,-218.4 876.73,-212.44"/>
<text text-anchor="middle" x="932" y="-231.8" font-family="Times,serif" font-size="14.00">name</text>
</g>
<!-- N12 -->
<g id="node13" class="node">
<title>N12</title>
<polygon fill="none" stroke="black" points="1003.5,-210 949.5,-210 949.5,-174 1003.5,-174 1003.5,-210"/>
<text text-anchor="middle" x="976.5" y="-188.3" font-family="Times,serif" font-size="14.00">range</text>
</g>
<!-- N10&#45;&gt;N12 -->
<g id="edge17" class="edge">
<title>N10&#45;&gt;N12</title>
<path fill="none" stroke="black" stroke-width="2" d="M976.5,-260.8C976.5,-249.16 976.5,-233.55 976.5,-220.24"/>
<polygon fill="black" stroke="black" stroke-width="2" points="980,-220.18 976.5,-210.18 973,-220.18 980,-220.18"/>
<text text-anchor="middle" x="986" y="-231.8" font-family="Times,serif" font-size="14.00">init</text>
</g>
<!-- N13 -->
<g id="node14" class="node">
<title>N13</title>
<polygon fill="none" stroke="black" points="959.5,-123 901.5,-123 901.5,-87 959.5,-87 959.5,-123"/>
<text text-anchor="middle" x="930.5" y="-101.3" font-family="Times,serif" font-size="14.00">cell_ref</text>
</g>
<!-- N12&#45;&gt;N13 -->
<g id="edge13" class="edge">
<title>N12&#45;&gt;N13</title>
<path fill="none" stroke="black" stroke-width="2" d="M967.19,-173.8C960.71,-161.82 951.94,-145.62 944.6,-132.06"/>
<polygon fill="black" stroke="black" stroke-width="2" points="947.63,-130.3 939.79,-123.18 941.48,-133.64 947.63,-130.3"/>
<text text-anchor="middle" x="975.5" y="-144.8" font-family="Times,serif" font-size="14.00">coord1</text>
</g>
<!-- N16 -->
<g id="node17" class="node">
<title>N16</title>
<polygon fill="none" stroke="black" points="1122.5,-123 1064.5,-123 1064.5,-87 1122.5,-87 1122.5,-123"/>
<text text-anchor="middle" x="1093.5" y="-101.3" font-family="Times,serif" font-size="14.00">cell_ref</text>
</g>
<!-- N12&#45;&gt;N16 -->
<g id="edge16" class="edge">
<title>N12&#45;&gt;N16</title>
<path fill="none" stroke="black" stroke-width="2" d="M1000.18,-173.8C1017.86,-160.95 1042.22,-143.26 1061.61,-129.17"/>
<polygon fill="black" stroke="black" stroke-width="2" points="1063.83,-131.88 1069.86,-123.18 1059.71,-126.22 1063.83,-131.88"/>
<text text-anchor="middle" x="1061.5" y="-144.8" font-family="Times,serif" font-size="14.00">coord2</text>
</g>
<!-- N14 -->
<g id="node15" class="node">
<title>N14</title>
<polygon fill="none" stroke="black" points="834.5,-36 700.5,-36 700.5,0 834.5,0 834.5,-36"/>
<text text-anchor="middle" x="767.5" y="-14.3" font-family="Times,serif" font-size="14.00">SHEET_IDENT (SS)</text>
</g>
<!-- N13&#45;&gt;N14 -->
<g id="edge11" class="edge">
<title>N13&#45;&gt;N14</title>
<path fill="none" stroke="black" stroke-width="2" d="M901.36,-88.8C875.74,-75.45 838.16,-55.85 809.34,-40.82"/>
<polygon fill="black" stroke="black" stroke-width="2" points="810.8,-37.63 800.31,-36.11 807.56,-43.84 810.8,-37.63"/>
<text text-anchor="middle" x="875" y="-57.8" font-family="Times,serif" font-size="14.00">name</text>
</g>
<!-- N15 -->
<g id="node16" class="node">
<title>N15</title>
<polygon fill="none" stroke="black" points="990,-36 871,-36 871,0 990,0 990,-36"/>
<text text-anchor="middle" x="930.5" y="-14.3" font-family="Times,serif" font-size="14.00">coord ((0, 0, &#39;A1&#39;))</text>
</g>
<!-- N13&#45;&gt;N15 -->
<g id="edge12" class="edge">
<title>N13&#45;&gt;N15</title>
<path fill="none" stroke="black" stroke-width="2" d="M930.5,-86.8C930.5,-75.16 930.5,-59.55 930.5,-46.24"/>
<polygon fill="black" stroke="black" stroke-width="2" points="934,-46.18 930.5,-36.18 927,-46.18 934,-46.18"/>
<text text-anchor="middle" x="946" y="-57.8" font-family="Times,serif" font-size="14.00">coord</text>
</g>
<!-- N17 -->
<g id="node18" class="node">
<title>N17</title>
<polygon fill="none" stroke="black" points="1160.5,-36 1026.5,-36 1026.5,0 1160.5,0 1160.5,-36"/>
<text text-anchor="middle" x="1093.5" y="-14.3" font-family="Times,serif" font-size="14.00">SHEET_IDENT (SS)</text>
</g>
<!-- N16&#45;&gt;N17 -->
<g id="edge14" class="edge">
<title>N16&#45;&gt;N17</title>
<path fill="none" stroke="black" stroke-width="2" d="M1093.5,-86.8C1093.5,-75.16 1093.5,-59.55 1093.5,-46.24"/>
<polygon fill="black" stroke="black" stroke-width="2" points="1097,-46.18 1093.5,-36.18 1090,-46.18 1097,-46.18"/>
<text text-anchor="middle" x="1109" y="-57.8" font-family="Times,serif" font-size="14.00">name</text>
</g>
<!-- N18 -->
<g id="node19" class="node">
<title>N18</title>
<polygon fill="none" stroke="black" points="1314.5,-36 1196.5,-36 1196.5,0 1314.5,0 1314.5,-36"/>
<text text-anchor="middle" x="1255.5" y="-14.3" font-family="Times,serif" font-size="14.00">coord ((1, 0, &#39;B1&#39;))</text>
</g>
<!-- N16&#45;&gt;N18 -->
<g id="edge15" class="edge">
<title>N16&#45;&gt;N18</title>
<path fill="none" stroke="black" stroke-width="2" d="M1122.84,-88.61C1148.34,-75.22 1185.58,-55.69 1214.11,-40.72"/>
<polygon fill="black" stroke="black" stroke-width="2" points="1215.82,-43.77 1223.04,-36.03 1212.56,-37.58 1215.82,-43.77"/>
<text text-anchor="middle" x="1200" y="-57.8" font-family="Times,serif" font-size="14.00">coord</text>
</g>
<!-- N20 -->
<g id="node21" class="node">
<title>N20</title>
<polygon fill="none" stroke="black" points="1185.5,-210 1039.5,-210 1039.5,-174 1185.5,-174 1185.5,-210"/>
<text text-anchor="middle" x="1112.5" y="-188.3" font-family="Times,serif" font-size="14.00">RANGE_IDENT (_shf)</text>
</g>
<!-- N19&#45;&gt;N20 -->
<g id="edge19" class="edge">
<title>N19&#45;&gt;N20</title>
<path fill="none" stroke="black" stroke-width="2" d="M1247.3,-260.8C1220.76,-247.45 1183.8,-228.86 1155.29,-214.52"/>
<polygon fill="black" stroke="black" stroke-width="2" points="1156.87,-211.4 1146.36,-210.03 1153.72,-217.65 1156.87,-211.4"/>
<text text-anchor="middle" x="1223" y="-231.8" font-family="Times,serif" font-size="14.00">name</text>
</g>
<!-- N21 -->
<g id="node22" class="node">
<title>N21</title>
<polygon fill="none" stroke="black" points="1341.5,-210 1221.5,-210 1221.5,-174 1341.5,-174 1341.5,-210"/>
<text text-anchor="middle" x="1281.5" y="-188.3" font-family="Times,serif" font-size="14.00">range_shift ((0, 1))</text>
</g>
<!-- N19&#45;&gt;N21 -->
<g id="edge22" class="edge">
<title>N19&#45;&gt;N21</title>
<path fill="none" stroke="black" stroke-width="2" d="M1281.5,-260.8C1281.5,-249.16 1281.5,-233.55 1281.5,-220.24"/>
<polygon fill="black" stroke="black" stroke-width="2" points="1285,-220.18 1281.5,-210.18 1278,-220.18 1285,-220.18"/>
<text text-anchor="middle" x="1291" y="-231.8" font-family="Times,serif" font-size="14.00">init</text>
</g>
<!-- N22 -->
<g id="node23" class="node">
<title>N22</title>
<polygon fill="none" stroke="black" points="1420.5,-123 1352.5,-123 1352.5,-87 1420.5,-87 1420.5,-123"/>
<text text-anchor="middle" x="1386.5" y="-101.3" font-family="Times,serif" font-size="14.00">range_ref</text>
</g>
<!-- N21&#45;&gt;N22 -->
<g id="edge21" class="edge">
<title>N21&#45;&gt;N22</title>
<path fill="none" stroke="black" stroke-width="2" d="M1302.75,-173.8C1318.4,-161.13 1339.89,-143.73 1357.18,-129.74"/>
<polygon fill="black" stroke="black" stroke-width="2" points="1359.71,-132.19 1365.28,-123.18 1355.31,-126.75 1359.71,-132.19"/>
<text text-anchor="middle" x="1353" y="-144.8" font-family="Times,serif" font-size="14.00">expr</text>
</g>
<!-- N23 -->
<g id="node24" class="node">
<title>N23</title>
<polygon fill="none" stroke="black" points="1500,-36 1351,-36 1351,0 1500,0 1500,-36"/>
<text text-anchor="middle" x="1425.5" y="-14.3" font-family="Times,serif" font-size="14.00">RANGE_IDENT (_rng)</text>
</g>
<!-- N22&#45;&gt;N23 -->
<g id="edge20" class="edge">
<title>N22&#45;&gt;N23</title>
<path fill="none" stroke="black" stroke-width="2" d="M1394.39,-86.8C1399.84,-74.93 1407.18,-58.93 1413.36,-45.45"/>
<polygon fill="black" stroke="black" stroke-width="2" points="1416.63,-46.72 1417.62,-36.18 1410.27,-43.8 1416.63,-46.72"/>
<text text-anchor="middle" x="1424" y="-57.8" font-family="Times,serif" font-size="14.00">name</text>
</g>
<!-- N25 -->
<g id="node26" class="node">
<title>N25</title>
<polygon fill="none" stroke="black" points="1489.5,-210 1377.5,-210 1377.5,-174 1489.5,-174 1489.5,-210"/>
<text text-anchor="middle" x="1433.5" y="-188.3" font-family="Times,serif" font-size="14.00">infostring (Sheet)</text>
</g>
<!-- N24&#45;&gt;N25 -->
<g id="edge24" class="edge">
<title>N24&#45;&gt;N25</title>
<path fill="none" stroke="black" stroke-width="2" d="M1433.5,-260.8C1433.5,-249.16 1433.5,-233.55 1433.5,-220.24"/>
<polygon fill="black" stroke="black" stroke-width="2" points="1437,-220.18 1433.5,-210.18 1430,-220.18 1437,-220.18"/>
<text text-anchor="middle" x="1451" y="-231.8" font-family="Times,serif" font-size="14.00">infostr</text>
</g>
<!-- N26 -->
<g id="node27" class="node">
<title>N26</title>
<polygon fill="none" stroke="black" points="1591.5,-210 1525.5,-210 1525.5,-174 1591.5,-174 1591.5,-210"/>
<text text-anchor="middle" x="1558.5" y="-188.3" font-family="Times,serif" font-size="14.00">sheet_ref</text>
</g>
<!-- N24&#45;&gt;N26 -->
<g id="edge26" class="edge">
<title>N24&#45;&gt;N26</title>
<path fill="none" stroke="black" stroke-width="2" d="M1458.8,-260.8C1477.77,-247.9 1503.94,-230.1 1524.71,-215.98"/>
<polygon fill="black" stroke="black" stroke-width="2" points="1526.94,-218.69 1533.24,-210.18 1523,-212.9 1526.94,-218.69"/>
<text text-anchor="middle" x="1516" y="-231.8" font-family="Times,serif" font-size="14.00">expr</text>
</g>
<!-- N27 -->
<g id="node28" class="node">
<title>N27</title>
<polygon fill="none" stroke="black" points="1625.5,-123 1491.5,-123 1491.5,-87 1625.5,-87 1625.5,-123"/>
<text text-anchor="middle" x="1558.5" y="-101.3" font-family="Times,serif" font-size="14.00">SHEET_IDENT (SS)</text>
</g>
<!-- N26&#45;&gt;N27 -->
<g id="edge25" class="edge">
<title>N26&#45;&gt;N27</title>
<path fill="none" stroke="black" stroke-width="2" d="M1558.5,-173.8C1558.5,-162.16 1558.5,-146.55 1558.5,-133.24"/>
<polygon fill="black" stroke="black" stroke-width="2" points="1562,-133.18 1558.5,-123.18 1555,-133.18 1562,-133.18"/>
<text text-anchor="middle" x="1574" y="-144.8" font-family="Times,serif" font-size="14.00">name</text>
</g>
<!-- N29 -->
<g id="node30" class="node">
<title>N29</title>
<polygon fill="none" stroke="black" points="1735,-210 1628,-210 1628,-174 1735,-174 1735,-210"/>
<text text-anchor="middle" x="1681.5" y="-188.3" font-family="Times,serif" font-size="14.00">infostring (_rng)</text>
</g>
<!-- N28&#45;&gt;N29 -->
<g id="edge28" class="edge">
<title>N28&#45;&gt;N29</title>
<path fill="none" stroke="black" stroke-width="2" d="M1681.5,-260.8C1681.5,-249.16 1681.5,-233.55 1681.5,-220.24"/>
<polygon fill="black" stroke="black" stroke-width="2" points="1685,-220.18 1681.5,-210.18 1678,-220.18 1685,-220.18"/>
<text text-anchor="middle" x="1699" y="-231.8" font-family="Times,serif" font-size="14.00">infostr</text>
</g>
<!-- N30 -->
<g id="node31" class="node">
<title>N30</title>
<polygon fill="none" stroke="black" points="1839.5,-210 1771.5,-210 1771.5,-174 1839.5,-174 1839.5,-210"/>
<text text-anchor="middle" x="1805.5" y="-188.3" font-family="Times,serif" font-size="14.00">range_ref</text>
</g>
<!-- N28&#45;&gt;N30 -->
<g id="edge30" class="edge">
<title>N28&#45;&gt;N30</title>
<path fill="none" stroke="black" stroke-width="2" d="M1706.59,-260.8C1725.42,-247.9 1751.38,-230.1 1771.98,-215.98"/>
<polygon fill="black" stroke="black" stroke-width="2" points="1774.17,-218.72 1780.44,-210.18 1770.22,-212.94 1774.17,-218.72"/>
<text text-anchor="middle" x="1764" y="-231.8" font-family="Times,serif" font-size="14.00">expr</text>
</g>
<!-- N31 -->
<g id="node32" class="node">
<title>N31</title>
<polygon fill="none" stroke="black" points="1880,-123 1731,-123 1731,-87 1880,-87 1880,-123"/>
<text text-anchor="middle" x="1805.5" y="-101.3" font-family="Times,serif" font-size="14.00">RANGE_IDENT (_rng)</text>
</g>
<!-- N30&#45;&gt;N31 -->
<g id="edge29" class="edge">
<title>N30&#45;&gt;N31</title>
<path fill="none" stroke="black" stroke-width="2" d="M1805.5,-173.8C1805.5,-162.16 1805.5,-146.55 1805.5,-133.24"/>
<polygon fill="black" stroke="black" stroke-width="2" points="1809,-133.18 1805.5,-123.18 1802,-133.18 1809,-133.18"/>
<text text-anchor="middle" x="1821" y="-144.8" font-family="Times,serif" font-size="14.00">name</text>
</g>
<!-- N33 -->
<g id="node34" class="node">
<title>N33</title>
<polygon fill="none" stroke="black" points="1981,-210 1876,-210 1876,-174 1981,-174 1981,-210"/>
<text text-anchor="middle" x="1928.5" y="-188.3" font-family="Times,serif" font-size="14.00">infostring (_shf)</text>
</g>
<!-- N32&#45;&gt;N33 -->
<g id="edge32" class="edge">
<title>N32&#45;&gt;N33</title>
<path fill="none" stroke="black" stroke-width="2" d="M1928.5,-260.8C1928.5,-249.16 1928.5,-233.55 1928.5,-220.24"/>
<polygon fill="black" stroke="black" stroke-width="2" points="1932,-220.18 1928.5,-210.18 1925,-220.18 1932,-220.18"/>
<text text-anchor="middle" x="1946" y="-231.8" font-family="Times,serif" font-size="14.00">infostr</text>
</g>
<!-- N34 -->
<g id="node35" class="node">
<title>N34</title>
<polygon fill="none" stroke="black" points="2085.5,-210 2017.5,-210 2017.5,-174 2085.5,-174 2085.5,-210"/>
<text text-anchor="middle" x="2051.5" y="-188.3" font-family="Times,serif" font-size="14.00">range_ref</text>
</g>
<!-- N32&#45;&gt;N34 -->
<g id="edge34" class="edge">
<title>N32&#45;&gt;N34</title>
<path fill="none" stroke="black" stroke-width="2" d="M1953.39,-260.8C1972.06,-247.9 1997.81,-230.1 2018.25,-215.98"/>
<polygon fill="black" stroke="black" stroke-width="2" points="2020.41,-218.74 2026.65,-210.18 2016.43,-212.98 2020.41,-218.74"/>
<text text-anchor="middle" x="2010" y="-231.8" font-family="Times,serif" font-size="14.00">expr</text>
</g>
<!-- N35 -->
<g id="node36" class="node">
<title>N35</title>
<polygon fill="none" stroke="black" points="2124.5,-123 1978.5,-123 1978.5,-87 2124.5,-87 2124.5,-123"/>
<text text-anchor="middle" x="2051.5" y="-101.3" font-family="Times,serif" font-size="14.00">RANGE_IDENT (_shf)</text>
</g>
<!-- N34&#45;&gt;N35 -->
<g id="edge33" class="edge">
<title>N34&#45;&gt;N35</title>
<path fill="none" stroke="black" stroke-width="2" d="M2051.5,-173.8C2051.5,-162.16 2051.5,-146.55 2051.5,-133.24"/>
<polygon fill="black" stroke="black" stroke-width="2" points="2055,-133.18 2051.5,-123.18 2048,-133.18 2055,-133.18"/>
<text text-anchor="middle" x="2067" y="-144.8" font-family="Times,serif" font-size="14.00">name</text>
</g>
</g>
</svg>
