<?xml version="1.0" encoding="UTF-8" standalone="no"?>
<!DOCTYPE svg PUBLIC "-//W3C//DTD SVG 1.1//EN"
 "http://www.w3.org/Graphics/SVG/1.1/DTD/svg11.dtd">
<!-- Generated by graphviz version 2.42.3 (0)
 -->
<!-- Title: parsetree Pages: 1 -->
<svg width="609pt" height="305pt"
 viewBox="0.00 0.00 609.00 305.00" xmlns="http://www.w3.org/2000/svg" xmlns:xlink="http://www.w3.org/1999/xlink">
<g id="graph0" class="graph" transform="scale(1 1) rotate(0) translate(4 301)">
<title>parsetree</title>
<polygon fill="white" stroke="transparent" points="-4,4 -4,-301 605,-301 605,4 -4,4"/>
<!-- N0 -->
<g id="node1" class="node">
<title>N0</title>
<polygon fill="none" stroke="black" points="341,-297 277,-297 277,-261 341,-261 341,-297"/>
<text text-anchor="middle" x="309" y="-275.3" font-family="Times,serif" font-size="14.00">program</text>
</g>
<!-- N1 -->
<g id="node2" class="node">
<title>N1</title>
<polygon fill="none" stroke="black" points="273.5,-210 166.5,-210 166.5,-174 273.5,-174 273.5,-210"/>
<text text-anchor="middle" x="220" y="-188.3" font-family="Times,serif" font-size="14.00">scalar_definition</text>
</g>
<!-- N0&#45;&gt;N1 -->
<g id="edge3" class="edge">
<title>N0&#45;&gt;N1</title>
<path fill="none" stroke="black" stroke-width="2" d="M284.35,-260.75C277.21,-255.36 269.57,-249.19 263,-243 255,-235.46 246.95,-226.55 240.02,-218.35"/>
<polygon fill="black" stroke="black" stroke-width="2" points="242.57,-215.94 233.5,-210.46 237.17,-220.4 242.57,-215.94"/>
<text text-anchor="middle" x="300.5" y="-231.8" font-family="Times,serif" font-size="14.00">funcs_vars[0]</text>
</g>
<!-- N4 -->
<g id="node5" class="node">
<title>N4</title>
<polygon fill="none" stroke="black" points="439.5,-210 358.5,-210 358.5,-174 439.5,-174 439.5,-210"/>
<text text-anchor="middle" x="399" y="-188.3" font-family="Times,serif" font-size="14.00">print_scalar</text>
</g>
<!-- N0&#45;&gt;N4 -->
<g id="edge7" class="edge">
<title>N0&#45;&gt;N4</title>
<path fill="none" stroke="black" stroke-width="2" d="M327.21,-260.8C340.51,-248.24 358.71,-231.05 373.46,-217.12"/>
<polygon fill="black" stroke="black" stroke-width="2" points="375.95,-219.59 380.81,-210.18 371.14,-214.5 375.95,-219.59"/>
<text text-anchor="middle" x="391" y="-231.8" font-family="Times,serif" font-size="14.00">stmt_list[0]</text>
</g>
<!-- N2 -->
<g id="node3" class="node">
<title>N2</title>
<polygon fill="none" stroke="black" points="114,-123 0,-123 0,-87 114,-87 114,-123"/>
<text text-anchor="middle" x="57" y="-101.3" font-family="Times,serif" font-size="14.00">IDENT (variable)</text>
</g>
<!-- N1&#45;&gt;N2 -->
<g id="edge1" class="edge">
<title>N1&#45;&gt;N2</title>
<path fill="none" stroke="black" stroke-width="2" d="M187.01,-173.8C161.52,-160.51 126.08,-142.02 98.63,-127.71"/>
<polygon fill="black" stroke="black" stroke-width="2" points="100.14,-124.55 89.66,-123.03 96.91,-130.76 100.14,-124.55"/>
<text text-anchor="middle" x="164.5" y="-144.8" font-family="Times,serif" font-size="14.00">name</text>
</g>
<!-- N3 -->
<g id="node4" class="node">
<title>N3</title>
<polygon fill="none" stroke="black" points="289.5,-123 150.5,-123 150.5,-87 289.5,-87 289.5,-123"/>
<text text-anchor="middle" x="220" y="-101.3" font-family="Times,serif" font-size="14.00">decimal_number (0.0)</text>
</g>
<!-- N1&#45;&gt;N3 -->
<g id="edge2" class="edge">
<title>N1&#45;&gt;N3</title>
<path fill="none" stroke="black" stroke-width="2" d="M220,-173.8C220,-162.16 220,-146.55 220,-133.24"/>
<polygon fill="black" stroke="black" stroke-width="2" points="223.5,-133.18 220,-123.18 216.5,-133.18 223.5,-133.18"/>
<text text-anchor="middle" x="229.5" y="-144.8" font-family="Times,serif" font-size="14.00">init</text>
</g>
<!-- N5 -->
<g id="node6" class="node">
<title>N5</title>
<polygon fill="none" stroke="black" points="472.5,-123 325.5,-123 325.5,-87 472.5,-87 472.5,-123"/>
<text text-anchor="middle" x="399" y="-101.3" font-family="Times,serif" font-size="14.00">infostring (Hello world)</text>
</g>
<!-- N4&#45;&gt;N5 -->
<g id="edge4" class="edge">
<title>N4&#45;&gt;N5</title>
<path fill="none" stroke="black" stroke-width="2" d="M399,-173.8C399,-162.16 399,-146.55 399,-133.24"/>
<polygon fill="black" stroke="black" stroke-width="2" points="402.5,-133.18 399,-123.18 395.5,-133.18 402.5,-133.18"/>
<text text-anchor="middle" x="416.5" y="-144.8" font-family="Times,serif" font-size="14.00">infostr</text>
</g>
<!-- N6 -->
<g id="node7" class="node">
<title>N6</title>
<polygon fill="none" stroke="black" points="579,-123 509,-123 509,-87 579,-87 579,-123"/>
<text text-anchor="middle" x="544" y="-101.3" font-family="Times,serif" font-size="14.00">scalar_ref</text>
</g>
<!-- N4&#45;&gt;N6 -->
<g id="edge6" class="edge">
<title>N4&#45;&gt;N6</title>
<path fill="none" stroke="black" stroke-width="2" d="M428.34,-173.8C450.65,-160.72 481.53,-142.62 505.77,-128.41"/>
<polygon fill="black" stroke="black" stroke-width="2" points="507.84,-131.25 514.7,-123.18 504.3,-125.21 507.84,-131.25"/>
<text text-anchor="middle" x="492.5" y="-144.8" font-family="Times,serif" font-size="14.00">expr</text>
</g>
<!-- N7 -->
<g id="node8" class="node">
<title>N7</title>
<polygon fill="none" stroke="black" points="601,-36 487,-36 487,0 601,0 601,-36"/>
<text text-anchor="middle" x="544" y="-14.3" font-family="Times,serif" font-size="14.00">IDENT (variable)</text>
</g>
<!-- N6&#45;&gt;N7 -->
<g id="edge5" class="edge">
<title>N6&#45;&gt;N7</title>
<path fill="none" stroke="black" stroke-width="2" d="M544,-86.8C544,-75.16 544,-59.55 544,-46.24"/>
<polygon fill="black" stroke="black" stroke-width="2" points="547.5,-46.18 544,-36.18 540.5,-46.18 547.5,-46.18"/>
<text text-anchor="middle" x="559.5" y="-57.8" font-family="Times,serif" font-size="14.00">name</text>
</g>
</g>
</svg>
