<?xml version="1.0" encoding="UTF-8" standalone="no"?>
<!DOCTYPE svg PUBLIC "-//W3C//DTD SVG 1.1//EN"
 "http://www.w3.org/Graphics/SVG/1.1/DTD/svg11.dtd">
<!-- Generated by graphviz version 2.42.3 (0)
 -->
<!-- Title: parsetree Pages: 1 -->
<svg width="2342pt" height="479pt"
 viewBox="0.00 0.00 2341.50 479.00" xmlns="http://www.w3.org/2000/svg" xmlns:xlink="http://www.w3.org/1999/xlink">
<g id="graph0" class="graph" transform="scale(1 1) rotate(0) translate(4 475)">
<title>parsetree</title>
<polygon fill="white" stroke="transparent" points="-4,4 -4,-475 2337.5,-475 2337.5,4 -4,4"/>
<!-- N0 -->
<g id="node1" class="node">
<title>N0</title>
<polygon fill="none" stroke="black" points="971.5,-471 907.5,-471 907.5,-435 971.5,-435 971.5,-471"/>
<text text-anchor="middle" x="939.5" y="-449.3" font-family="Times,serif" font-size="14.00">program</text>
</g>
<!-- N1 -->
<g id="node2" class="node">
<title>N1</title>
<polygon fill="none" stroke="black" points="280,-384 173,-384 173,-348 280,-348 280,-384"/>
<text text-anchor="middle" x="226.5" y="-362.3" font-family="Times,serif" font-size="14.00">scalar_definition</text>
</g>
<!-- N0&#45;&gt;N1 -->
<g id="edge3" class="edge">
<title>N0&#45;&gt;N1</title>
<path fill="none" stroke="black" stroke-width="2" d="M907.18,-449.34C844.09,-444.03 700.15,-431.4 579.5,-417 478.16,-404.9 360.92,-387.65 290.3,-376.89"/>
<polygon fill="black" stroke="black" stroke-width="2" points="290.64,-373.41 280.23,-375.36 289.59,-380.33 290.64,-373.41"/>
<text text-anchor="middle" x="617" y="-405.8" font-family="Times,serif" font-size="14.00">funcs_vars[0]</text>
</g>
<!-- N4 -->
<g id="node5" class="node">
<title>N4</title>
<polygon fill="none" stroke="black" points="544,-384 437,-384 437,-348 544,-348 544,-384"/>
<text text-anchor="middle" x="490.5" y="-362.3" font-family="Times,serif" font-size="14.00">scalar_definition</text>
</g>
<!-- N0&#45;&gt;N4 -->
<g id="edge6" class="edge">
<title>N0&#45;&gt;N4</title>
<path fill="none" stroke="black" stroke-width="2" d="M907.43,-446.68C867.71,-440.04 798.03,-428.18 738.5,-417 675.7,-405.2 604.19,-390.67 554.15,-380.32"/>
<polygon fill="black" stroke="black" stroke-width="2" points="554.62,-376.84 544.12,-378.24 553.2,-383.69 554.62,-376.84"/>
<text text-anchor="middle" x="776" y="-405.8" font-family="Times,serif" font-size="14.00">funcs_vars[1]</text>
</g>
<!-- N7 -->
<g id="node8" class="node">
<title>N7</title>
<polygon fill="none" stroke="black" points="800,-384 693,-384 693,-348 800,-348 800,-384"/>
<text text-anchor="middle" x="746.5" y="-362.3" font-family="Times,serif" font-size="14.00">scalar_definition</text>
</g>
<!-- N0&#45;&gt;N7 -->
<g id="edge9" class="edge">
<title>N0&#45;&gt;N7</title>
<path fill="none" stroke="black" stroke-width="2" d="M907.48,-438.97C891.76,-432.49 872.58,-424.47 855.5,-417 834.68,-407.89 811.8,-397.46 792.41,-388.49"/>
<polygon fill="black" stroke="black" stroke-width="2" points="793.73,-385.25 783.19,-384.22 790.79,-391.6 793.73,-385.25"/>
<text text-anchor="middle" x="893" y="-405.8" font-family="Times,serif" font-size="14.00">funcs_vars[2]</text>
</g>
<!-- N10 -->
<g id="node11" class="node">
<title>N10</title>
<polygon fill="none" stroke="black" points="991,-384 888,-384 888,-348 991,-348 991,-384"/>
<text text-anchor="middle" x="939.5" y="-362.3" font-family="Times,serif" font-size="14.00">sheet_definition</text>
</g>
<!-- N0&#45;&gt;N10 -->
<g id="edge18" class="edge">
<title>N0&#45;&gt;N10</title>
<path fill="none" stroke="black" stroke-width="2" d="M939.5,-434.8C939.5,-423.16 939.5,-407.55 939.5,-394.24"/>
<polygon fill="black" stroke="black" stroke-width="2" points="943,-394.18 939.5,-384.18 936,-394.18 943,-394.18"/>
<text text-anchor="middle" x="977" y="-405.8" font-family="Times,serif" font-size="14.00">funcs_vars[3]</text>
</g>
<!-- N19 -->
<g id="node20" class="node">
<title>N19</title>
<polygon fill="none" stroke="black" points="1223,-384 1134,-384 1134,-348 1223,-348 1223,-384"/>
<text text-anchor="middle" x="1178.5" y="-362.3" font-family="Times,serif" font-size="14.00">scalar_assign</text>
</g>
<!-- N0&#45;&gt;N19 -->
<g id="edge22" class="edge">
<title>N0&#45;&gt;N19</title>
<path fill="none" stroke="black" stroke-width="2" d="M971.73,-440.54C1010.83,-426.63 1077.33,-402.98 1124.35,-386.26"/>
<polygon fill="black" stroke="black" stroke-width="2" points="1125.52,-389.56 1133.77,-382.91 1123.18,-382.96 1125.52,-389.56"/>
<text text-anchor="middle" x="1105.5" y="-405.8" font-family="Times,serif" font-size="14.00">stmt_list[0]</text>
</g>
<!-- N23 -->
<g id="node24" class="node">
<title>N23</title>
<polygon fill="none" stroke="black" points="1505,-384 1416,-384 1416,-348 1505,-348 1505,-384"/>
<text text-anchor="middle" x="1460.5" y="-362.3" font-family="Times,serif" font-size="14.00">scalar_assign</text>
</g>
<!-- N0&#45;&gt;N23 -->
<g id="edge28" class="edge">
<title>N0&#45;&gt;N23</title>
<path fill="none" stroke="black" stroke-width="2" d="M971.7,-446.75C1058.31,-432.62 1297.04,-393.67 1405.54,-375.97"/>
<polygon fill="black" stroke="black" stroke-width="2" points="1406.32,-379.39 1415.63,-374.32 1405.19,-372.48 1406.32,-379.39"/>
<text text-anchor="middle" x="1263.5" y="-405.8" font-family="Times,serif" font-size="14.00">stmt_list[1]</text>
</g>
<!-- N29 -->
<g id="node30" class="node">
<title>N29</title>
<polygon fill="none" stroke="black" points="1757,-384 1676,-384 1676,-348 1757,-348 1757,-384"/>
<text text-anchor="middle" x="1716.5" y="-362.3" font-family="Times,serif" font-size="14.00">print_scalar</text>
</g>
<!-- N0&#45;&gt;N29 -->
<g id="edge39" class="edge">
<title>N0&#45;&gt;N29</title>
<path fill="none" stroke="black" stroke-width="2" d="M971.75,-449.18C1035.42,-443.56 1181.72,-430.33 1304.5,-417 1434.92,-402.84 1588.23,-383.53 1665.9,-373.56"/>
<polygon fill="black" stroke="black" stroke-width="2" points="1666.42,-377.02 1675.9,-372.27 1665.53,-370.08 1666.42,-377.02"/>
<text text-anchor="middle" x="1461.5" y="-405.8" font-family="Times,serif" font-size="14.00">stmt_list[2]</text>
</g>
<!-- N2 -->
<g id="node3" class="node">
<title>N2</title>
<polygon fill="none" stroke="black" points="117,-297 0,-297 0,-261 117,-261 117,-297"/>
<text text-anchor="middle" x="58.5" y="-275.3" font-family="Times,serif" font-size="14.00">IDENT (meaning)</text>
</g>
<!-- N1&#45;&gt;N2 -->
<g id="edge1" class="edge">
<title>N1&#45;&gt;N2</title>
<path fill="none" stroke="black" stroke-width="2" d="M192.5,-347.8C166.23,-334.51 129.7,-316.02 101.41,-301.71"/>
<polygon fill="black" stroke="black" stroke-width="2" points="102.66,-298.42 92.16,-297.03 99.5,-304.67 102.66,-298.42"/>
<text text-anchor="middle" x="169" y="-318.8" font-family="Times,serif" font-size="14.00">name</text>
</g>
<!-- N3 -->
<g id="node4" class="node">
<title>N3</title>
<polygon fill="none" stroke="black" points="299.5,-297 153.5,-297 153.5,-261 299.5,-261 299.5,-297"/>
<text text-anchor="middle" x="226.5" y="-275.3" font-family="Times,serif" font-size="14.00">decimal_number (42.0)</text>
</g>
<!-- N1&#45;&gt;N3 -->
<g id="edge2" class="edge">
<title>N1&#45;&gt;N3</title>
<path fill="none" stroke="black" stroke-width="2" d="M226.5,-347.8C226.5,-336.16 226.5,-320.55 226.5,-307.24"/>
<polygon fill="black" stroke="black" stroke-width="2" points="230,-307.18 226.5,-297.18 223,-307.18 230,-307.18"/>
<text text-anchor="middle" x="236" y="-318.8" font-family="Times,serif" font-size="14.00">init</text>
</g>
<!-- N5 -->
<g id="node6" class="node">
<title>N5</title>
<polygon fill="none" stroke="black" points="419,-297 336,-297 336,-261 419,-261 419,-297"/>
<text text-anchor="middle" x="377.5" y="-275.3" font-family="Times,serif" font-size="14.00">IDENT (nn)</text>
</g>
<!-- N4&#45;&gt;N5 -->
<g id="edge4" class="edge">
<title>N4&#45;&gt;N5</title>
<path fill="none" stroke="black" stroke-width="2" d="M467.63,-347.8C450.63,-335.01 427.24,-317.42 408.55,-303.36"/>
<polygon fill="black" stroke="black" stroke-width="2" points="410.43,-300.39 400.33,-297.18 406.22,-305.98 410.43,-300.39"/>
<text text-anchor="middle" x="457" y="-318.8" font-family="Times,serif" font-size="14.00">name</text>
</g>
<!-- N6 -->
<g id="node7" class="node">
<title>N6</title>
<ellipse fill="none" stroke="black" cx="490.5" cy="-279" rx="35.19" ry="18"/>
<text text-anchor="middle" x="490.5" y="-275.3" font-family="Times,serif" font-size="14.00">NONE</text>
</g>
<!-- N4&#45;&gt;N6 -->
<g id="edge5" class="edge">
<title>N4&#45;&gt;N6</title>
<path fill="none" stroke="black" stroke-width="2" d="M490.5,-347.8C490.5,-336.16 490.5,-320.55 490.5,-307.24"/>
<polygon fill="black" stroke="black" stroke-width="2" points="494,-307.18 490.5,-297.18 487,-307.18 494,-307.18"/>
<text text-anchor="middle" x="500" y="-318.8" font-family="Times,serif" font-size="14.00">init</text>
</g>
<!-- N8 -->
<g id="node9" class="node">
<title>N8</title>
<polygon fill="none" stroke="black" points="675.5,-297 561.5,-297 561.5,-261 675.5,-261 675.5,-297"/>
<text text-anchor="middle" x="618.5" y="-275.3" font-family="Times,serif" font-size="14.00">IDENT (variable)</text>
</g>
<!-- N7&#45;&gt;N8 -->
<g id="edge7" class="edge">
<title>N7&#45;&gt;N8</title>
<path fill="none" stroke="black" stroke-width="2" d="M720.6,-347.8C701.08,-334.84 674.13,-316.94 652.82,-302.79"/>
<polygon fill="black" stroke="black" stroke-width="2" points="654.63,-299.79 644.36,-297.18 650.76,-305.62 654.63,-299.79"/>
<text text-anchor="middle" x="706" y="-318.8" font-family="Times,serif" font-size="14.00">name</text>
</g>
<!-- N9 -->
<g id="node10" class="node">
<title>N9</title>
<ellipse fill="none" stroke="black" cx="746.5" cy="-279" rx="35.19" ry="18"/>
<text text-anchor="middle" x="746.5" y="-275.3" font-family="Times,serif" font-size="14.00">NONE</text>
</g>
<!-- N7&#45;&gt;N9 -->
<g id="edge8" class="edge">
<title>N7&#45;&gt;N9</title>
<path fill="none" stroke="black" stroke-width="2" d="M746.5,-347.8C746.5,-336.16 746.5,-320.55 746.5,-307.24"/>
<polygon fill="black" stroke="black" stroke-width="2" points="750,-307.18 746.5,-297.18 743,-307.18 750,-307.18"/>
<text text-anchor="middle" x="756" y="-318.8" font-family="Times,serif" font-size="14.00">init</text>
</g>
<!-- N11 -->
<g id="node12" class="node">
<title>N11</title>
<polygon fill="none" stroke="black" points="979,-297 818,-297 818,-261 979,-261 979,-297"/>
<text text-anchor="middle" x="898.5" y="-275.3" font-family="Times,serif" font-size="14.00">SHEET_IDENT (SHEET)</text>
</g>
<!-- N10&#45;&gt;N11 -->
<g id="edge10" class="edge">
<title>N10&#45;&gt;N11</title>
<path fill="none" stroke="black" stroke-width="2" d="M931.2,-347.8C925.48,-335.93 917.76,-319.93 911.26,-306.45"/>
<polygon fill="black" stroke="black" stroke-width="2" points="914.28,-304.66 906.78,-297.18 907.98,-307.7 914.28,-304.66"/>
<text text-anchor="middle" x="937" y="-318.8" font-family="Times,serif" font-size="14.00">name</text>
</g>
<!-- N12 -->
<g id="node13" class="node">
<title>N12</title>
<polygon fill="none" stroke="black" points="1107.5,-297 1015.5,-297 1015.5,-261 1107.5,-261 1107.5,-297"/>
<text text-anchor="middle" x="1061.5" y="-275.3" font-family="Times,serif" font-size="14.00">sheet_init_list</text>
</g>
<!-- N10&#45;&gt;N12 -->
<g id="edge17" class="edge">
<title>N10&#45;&gt;N12</title>
<path fill="none" stroke="black" stroke-width="2" d="M964.19,-347.8C982.71,-334.9 1008.25,-317.1 1028.52,-302.98"/>
<polygon fill="black" stroke="black" stroke-width="2" points="1030.64,-305.76 1036.85,-297.18 1026.64,-300.02 1030.64,-305.76"/>
<text text-anchor="middle" x="1018" y="-318.8" font-family="Times,serif" font-size="14.00">init</text>
</g>
<!-- N13 -->
<g id="node14" class="node">
<title>N13</title>
<polygon fill="none" stroke="black" points="1102,-210 1021,-210 1021,-174 1102,-174 1102,-210"/>
<text text-anchor="middle" x="1061.5" y="-188.3" font-family="Times,serif" font-size="14.00">col_init_list</text>
</g>
<!-- N12&#45;&gt;N13 -->
<g id="edge16" class="edge">
<title>N12&#45;&gt;N13</title>
<path fill="none" stroke="black" stroke-width="2" d="M1061.5,-260.8C1061.5,-249.16 1061.5,-233.55 1061.5,-220.24"/>
<polygon fill="black" stroke="black" stroke-width="2" points="1065,-220.18 1061.5,-210.18 1058,-220.18 1065,-220.18"/>
<text text-anchor="middle" x="1083" y="-231.8" font-family="Times,serif" font-size="14.00">rows[0]</text>
</g>
<!-- N14 -->
<g id="node15" class="node">
<title>N14</title>
<polygon fill="none" stroke="black" points="956,-123 817,-123 817,-87 956,-87 956,-123"/>
<text text-anchor="middle" x="886.5" y="-101.3" font-family="Times,serif" font-size="14.00">decimal_number (1.0)</text>
</g>
<!-- N13&#45;&gt;N14 -->
<g id="edge11" class="edge">
<title>N13&#45;&gt;N14</title>
<path fill="none" stroke="black" stroke-width="2" d="M1026.09,-173.8C998.6,-160.45 960.33,-141.86 930.81,-127.52"/>
<polygon fill="black" stroke="black" stroke-width="2" points="932.09,-124.25 921.56,-123.03 929.03,-130.55 932.09,-124.25"/>
<text text-anchor="middle" x="1003.5" y="-144.8" font-family="Times,serif" font-size="14.00">cols[0]</text>
</g>
<!-- N15 -->
<g id="node16" class="node">
<title>N15</title>
<polygon fill="none" stroke="black" points="1131,-123 992,-123 992,-87 1131,-87 1131,-123"/>
<text text-anchor="middle" x="1061.5" y="-101.3" font-family="Times,serif" font-size="14.00">decimal_number (2.0)</text>
</g>
<!-- N13&#45;&gt;N15 -->
<g id="edge12" class="edge">
<title>N13&#45;&gt;N15</title>
<path fill="none" stroke="black" stroke-width="2" d="M1061.5,-173.8C1061.5,-162.16 1061.5,-146.55 1061.5,-133.24"/>
<polygon fill="black" stroke="black" stroke-width="2" points="1065,-133.18 1061.5,-123.18 1058,-133.18 1065,-133.18"/>
<text text-anchor="middle" x="1080.5" y="-144.8" font-family="Times,serif" font-size="14.00">cols[1]</text>
</g>
<!-- N16 -->
<g id="node17" class="node">
<title>N16</title>
<polygon fill="none" stroke="black" points="1221.5,-123 1167.5,-123 1167.5,-87 1221.5,-87 1221.5,-123"/>
<text text-anchor="middle" x="1194.5" y="-101.3" font-family="Times,serif" font-size="14.00">oper +</text>
</g>
<!-- N13&#45;&gt;N16 -->
<g id="edge15" class="edge">
<title>N13&#45;&gt;N16</title>
<path fill="none" stroke="black" stroke-width="2" d="M1088.41,-173.8C1108.79,-160.78 1136.95,-142.78 1159.14,-128.6"/>
<polygon fill="black" stroke="black" stroke-width="2" points="1161.08,-131.51 1167.63,-123.18 1157.31,-125.61 1161.08,-131.51"/>
<text text-anchor="middle" x="1155.5" y="-144.8" font-family="Times,serif" font-size="14.00">cols[2]</text>
</g>
<!-- N17 -->
<g id="node18" class="node">
<title>N17</title>
<polygon fill="none" stroke="black" points="1177,-36 1038,-36 1038,0 1177,0 1177,-36"/>
<text text-anchor="middle" x="1107.5" y="-14.3" font-family="Times,serif" font-size="14.00">decimal_number (1.0)</text>
</g>
<!-- N16&#45;&gt;N17 -->
<g id="edge13" class="edge">
<title>N16&#45;&gt;N17</title>
<path fill="none" stroke="black" stroke-width="2" d="M1176.89,-86.8C1164.16,-74.36 1146.77,-57.36 1132.58,-43.5"/>
<polygon fill="black" stroke="black" stroke-width="2" points="1134.68,-40.66 1125.08,-36.18 1129.79,-45.67 1134.68,-40.66"/>
<text text-anchor="middle" x="1166" y="-57.8" font-family="Times,serif" font-size="14.00">left</text>
</g>
<!-- N18 -->
<g id="node19" class="node">
<title>N18</title>
<polygon fill="none" stroke="black" points="1352,-36 1213,-36 1213,0 1352,0 1352,-36"/>
<text text-anchor="middle" x="1282.5" y="-14.3" font-family="Times,serif" font-size="14.00">decimal_number (2.0)</text>
</g>
<!-- N16&#45;&gt;N18 -->
<g id="edge14" class="edge">
<title>N16&#45;&gt;N18</title>
<path fill="none" stroke="black" stroke-width="2" d="M1212.31,-86.8C1225.19,-74.36 1242.78,-57.36 1257.13,-43.5"/>
<polygon fill="black" stroke="black" stroke-width="2" points="1259.96,-45.64 1264.72,-36.18 1255.09,-40.61 1259.96,-45.64"/>
<text text-anchor="middle" x="1258" y="-57.8" font-family="Times,serif" font-size="14.00">right</text>
</g>
<!-- N20 -->
<g id="node21" class="node">
<title>N20</title>
<polygon fill="none" stroke="black" points="1213.5,-297 1143.5,-297 1143.5,-261 1213.5,-261 1213.5,-297"/>
<text text-anchor="middle" x="1178.5" y="-275.3" font-family="Times,serif" font-size="14.00">scalar_ref</text>
</g>
<!-- N19&#45;&gt;N20 -->
<g id="edge20" class="edge">
<title>N19&#45;&gt;N20</title>
<path fill="none" stroke="black" stroke-width="2" d="M1178.5,-347.8C1178.5,-336.16 1178.5,-320.55 1178.5,-307.24"/>
<polygon fill="black" stroke="black" stroke-width="2" points="1182,-307.18 1178.5,-297.18 1175,-307.18 1182,-307.18"/>
<text text-anchor="middle" x="1187.5" y="-318.8" font-family="Times,serif" font-size="14.00">var</text>
</g>
<!-- N22 -->
<g id="node23" class="node">
<title>N22</title>
<polygon fill="none" stroke="black" points="1389,-297 1250,-297 1250,-261 1389,-261 1389,-297"/>
<text text-anchor="middle" x="1319.5" y="-275.3" font-family="Times,serif" font-size="14.00">decimal_number (7.0)</text>
</g>
<!-- N19&#45;&gt;N22 -->
<g id="edge21" class="edge">
<title>N19&#45;&gt;N22</title>
<path fill="none" stroke="black" stroke-width="2" d="M1207.03,-347.8C1228.73,-334.72 1258.75,-316.62 1282.32,-302.41"/>
<polygon fill="black" stroke="black" stroke-width="2" points="1284.25,-305.34 1291.01,-297.18 1280.64,-299.34 1284.25,-305.34"/>
<text text-anchor="middle" x="1270" y="-318.8" font-family="Times,serif" font-size="14.00">expr</text>
</g>
<!-- N21 -->
<g id="node22" class="node">
<title>N21</title>
<polygon fill="none" stroke="black" points="1221,-210 1138,-210 1138,-174 1221,-174 1221,-210"/>
<text text-anchor="middle" x="1179.5" y="-188.3" font-family="Times,serif" font-size="14.00">IDENT (nn)</text>
</g>
<!-- N20&#45;&gt;N21 -->
<g id="edge19" class="edge">
<title>N20&#45;&gt;N21</title>
<path fill="none" stroke="black" stroke-width="2" d="M1178.7,-260.8C1178.84,-249.16 1179.02,-233.55 1179.18,-220.24"/>
<polygon fill="black" stroke="black" stroke-width="2" points="1182.68,-220.22 1179.3,-210.18 1175.68,-220.13 1182.68,-220.22"/>
<text text-anchor="middle" x="1195" y="-231.8" font-family="Times,serif" font-size="14.00">name</text>
</g>
<!-- N24 -->
<g id="node25" class="node">
<title>N24</title>
<polygon fill="none" stroke="black" points="1495.5,-297 1425.5,-297 1425.5,-261 1495.5,-261 1495.5,-297"/>
<text text-anchor="middle" x="1460.5" y="-275.3" font-family="Times,serif" font-size="14.00">scalar_ref</text>
</g>
<!-- N23&#45;&gt;N24 -->
<g id="edge24" class="edge">
<title>N23&#45;&gt;N24</title>
<path fill="none" stroke="black" stroke-width="2" d="M1460.5,-347.8C1460.5,-336.16 1460.5,-320.55 1460.5,-307.24"/>
<polygon fill="black" stroke="black" stroke-width="2" points="1464,-307.18 1460.5,-297.18 1457,-307.18 1464,-307.18"/>
<text text-anchor="middle" x="1469.5" y="-318.8" font-family="Times,serif" font-size="14.00">var</text>
</g>
<!-- N26 -->
<g id="node27" class="node">
<title>N26</title>
<polygon fill="none" stroke="black" points="1585.5,-297 1531.5,-297 1531.5,-261 1585.5,-261 1585.5,-297"/>
<text text-anchor="middle" x="1558.5" y="-275.3" font-family="Times,serif" font-size="14.00">oper +</text>
</g>
<!-- N23&#45;&gt;N26 -->
<g id="edge27" class="edge">
<title>N23&#45;&gt;N26</title>
<path fill="none" stroke="black" stroke-width="2" d="M1480.33,-347.8C1494.94,-335.13 1515,-317.73 1531.13,-303.74"/>
<polygon fill="black" stroke="black" stroke-width="2" points="1533.44,-306.37 1538.7,-297.18 1528.85,-301.08 1533.44,-306.37"/>
<text text-anchor="middle" x="1528" y="-318.8" font-family="Times,serif" font-size="14.00">expr</text>
</g>
<!-- N25 -->
<g id="node26" class="node">
<title>N25</title>
<polygon fill="none" stroke="black" points="1433.5,-210 1319.5,-210 1319.5,-174 1433.5,-174 1433.5,-210"/>
<text text-anchor="middle" x="1376.5" y="-188.3" font-family="Times,serif" font-size="14.00">IDENT (variable)</text>
</g>
<!-- N24&#45;&gt;N25 -->
<g id="edge23" class="edge">
<title>N24&#45;&gt;N25</title>
<path fill="none" stroke="black" stroke-width="2" d="M1443.5,-260.8C1431.2,-248.36 1414.41,-231.36 1400.72,-217.5"/>
<polygon fill="black" stroke="black" stroke-width="2" points="1402.99,-214.83 1393.47,-210.18 1398.01,-219.75 1402.99,-214.83"/>
<text text-anchor="middle" x="1440" y="-231.8" font-family="Times,serif" font-size="14.00">name</text>
</g>
<!-- N27 -->
<g id="node28" class="node">
<title>N27</title>
<polygon fill="none" stroke="black" points="1609,-210 1470,-210 1470,-174 1609,-174 1609,-210"/>
<text text-anchor="middle" x="1539.5" y="-188.3" font-family="Times,serif" font-size="14.00">decimal_number (7.0)</text>
</g>
<!-- N26&#45;&gt;N27 -->
<g id="edge25" class="edge">
<title>N26&#45;&gt;N27</title>
<path fill="none" stroke="black" stroke-width="2" d="M1554.66,-260.8C1552.05,-249.16 1548.56,-233.55 1545.59,-220.24"/>
<polygon fill="black" stroke="black" stroke-width="2" points="1548.94,-219.17 1543.34,-210.18 1542.11,-220.7 1548.94,-219.17"/>
<text text-anchor="middle" x="1560" y="-231.8" font-family="Times,serif" font-size="14.00">left</text>
</g>
<!-- N28 -->
<g id="node29" class="node">
<title>N28</title>
<polygon fill="none" stroke="black" points="1784,-210 1645,-210 1645,-174 1784,-174 1784,-210"/>
<text text-anchor="middle" x="1714.5" y="-188.3" font-family="Times,serif" font-size="14.00">decimal_number (3.0)</text>
</g>
<!-- N26&#45;&gt;N28 -->
<g id="edge26" class="edge">
<title>N26&#45;&gt;N28</title>
<path fill="none" stroke="black" stroke-width="2" d="M1585.67,-263.19C1610.06,-249.9 1646.2,-230.21 1674,-215.07"/>
<polygon fill="black" stroke="black" stroke-width="2" points="1675.97,-217.98 1683.08,-210.12 1672.62,-211.83 1675.97,-217.98"/>
<text text-anchor="middle" x="1660" y="-231.8" font-family="Times,serif" font-size="14.00">right</text>
</g>
<!-- N30 -->
<g id="node31" class="node">
<title>N30</title>
<polygon fill="none" stroke="black" points="1774.5,-297 1658.5,-297 1658.5,-261 1774.5,-261 1774.5,-297"/>
<text text-anchor="middle" x="1716.5" y="-275.3" font-family="Times,serif" font-size="14.00">infostring (Result)</text>
</g>
<!-- N29&#45;&gt;N30 -->
<g id="edge29" class="edge">
<title>N29&#45;&gt;N30</title>
<path fill="none" stroke="black" stroke-width="2" d="M1716.5,-347.8C1716.5,-336.16 1716.5,-320.55 1716.5,-307.24"/>
<polygon fill="black" stroke="black" stroke-width="2" points="1720,-307.18 1716.5,-297.18 1713,-307.18 1720,-307.18"/>
<text text-anchor="middle" x="1734" y="-318.8" font-family="Times,serif" font-size="14.00">infostr</text>
</g>
<!-- N31 -->
<g id="node32" class="node">
<title>N31</title>
<polygon fill="none" stroke="black" points="1882.5,-297 1828.5,-297 1828.5,-261 1882.5,-261 1882.5,-297"/>
<text text-anchor="middle" x="1855.5" y="-275.3" font-family="Times,serif" font-size="14.00">oper +</text>
</g>
<!-- N29&#45;&gt;N31 -->
<g id="edge38" class="edge">
<title>N29&#45;&gt;N31</title>
<path fill="none" stroke="black" stroke-width="2" d="M1744.63,-347.8C1766.29,-334.55 1796.39,-316.14 1819.76,-301.85"/>
<polygon fill="black" stroke="black" stroke-width="2" points="1821.65,-304.8 1828.36,-296.6 1818,-298.83 1821.65,-304.8"/>
<text text-anchor="middle" x="1807" y="-318.8" font-family="Times,serif" font-size="14.00">expr</text>
</g>
<!-- N32 -->
<g id="node33" class="node">
<title>N32</title>
<polygon fill="none" stroke="black" points="1890.5,-210 1820.5,-210 1820.5,-174 1890.5,-174 1890.5,-210"/>
<text text-anchor="middle" x="1855.5" y="-188.3" font-family="Times,serif" font-size="14.00">scalar_ref</text>
</g>
<!-- N31&#45;&gt;N32 -->
<g id="edge31" class="edge">
<title>N31&#45;&gt;N32</title>
<path fill="none" stroke="black" stroke-width="2" d="M1855.5,-260.8C1855.5,-249.16 1855.5,-233.55 1855.5,-220.24"/>
<polygon fill="black" stroke="black" stroke-width="2" points="1859,-220.18 1855.5,-210.18 1852,-220.18 1859,-220.18"/>
<text text-anchor="middle" x="1865" y="-231.8" font-family="Times,serif" font-size="14.00">left</text>
</g>
<!-- N34 -->
<g id="node35" class="node">
<title>N34</title>
<polygon fill="none" stroke="black" points="1996.5,-210 1942.5,-210 1942.5,-174 1996.5,-174 1996.5,-210"/>
<text text-anchor="middle" x="1969.5" y="-188.3" font-family="Times,serif" font-size="14.00">oper *</text>
</g>
<!-- N31&#45;&gt;N34 -->
<g id="edge37" class="edge">
<title>N31&#45;&gt;N34</title>
<path fill="none" stroke="black" stroke-width="2" d="M1878.57,-260.8C1895.8,-247.95 1919.53,-230.26 1938.43,-216.17"/>
<polygon fill="black" stroke="black" stroke-width="2" points="1940.54,-218.96 1946.46,-210.18 1936.36,-213.35 1940.54,-218.96"/>
<text text-anchor="middle" x="1933" y="-231.8" font-family="Times,serif" font-size="14.00">right</text>
</g>
<!-- N33 -->
<g id="node34" class="node">
<title>N33</title>
<polygon fill="none" stroke="black" points="1898,-123 1781,-123 1781,-87 1898,-87 1898,-123"/>
<text text-anchor="middle" x="1839.5" y="-101.3" font-family="Times,serif" font-size="14.00">IDENT (meaning)</text>
</g>
<!-- N32&#45;&gt;N33 -->
<g id="edge30" class="edge">
<title>N32&#45;&gt;N33</title>
<path fill="none" stroke="black" stroke-width="2" d="M1852.26,-173.8C1850.07,-162.16 1847.13,-146.55 1844.63,-133.24"/>
<polygon fill="black" stroke="black" stroke-width="2" points="1848.02,-132.36 1842.73,-123.18 1841.14,-133.65 1848.02,-132.36"/>
<text text-anchor="middle" x="1864" y="-144.8" font-family="Times,serif" font-size="14.00">name</text>
</g>
<!-- N35 -->
<g id="node36" class="node">
<title>N35</title>
<polygon fill="none" stroke="black" points="2004.5,-123 1934.5,-123 1934.5,-87 2004.5,-87 2004.5,-123"/>
<text text-anchor="middle" x="1969.5" y="-101.3" font-family="Times,serif" font-size="14.00">scalar_ref</text>
</g>
<!-- N34&#45;&gt;N35 -->
<g id="edge33" class="edge">
<title>N34&#45;&gt;N35</title>
<path fill="none" stroke="black" stroke-width="2" d="M1969.5,-173.8C1969.5,-162.16 1969.5,-146.55 1969.5,-133.24"/>
<polygon fill="black" stroke="black" stroke-width="2" points="1973,-133.18 1969.5,-123.18 1966,-133.18 1973,-133.18"/>
<text text-anchor="middle" x="1979" y="-144.8" font-family="Times,serif" font-size="14.00">left</text>
</g>
<!-- N37 -->
<g id="node38" class="node">
<title>N37</title>
<polygon fill="none" stroke="black" points="2127.5,-123 2069.5,-123 2069.5,-87 2127.5,-87 2127.5,-123"/>
<text text-anchor="middle" x="2098.5" y="-101.3" font-family="Times,serif" font-size="14.00">cell_ref</text>
</g>
<!-- N34&#45;&gt;N37 -->
<g id="edge36" class="edge">
<title>N34&#45;&gt;N37</title>
<path fill="none" stroke="black" stroke-width="2" d="M1995.61,-173.8C2015.28,-160.84 2042.44,-142.94 2063.91,-128.79"/>
<polygon fill="black" stroke="black" stroke-width="2" points="2066.01,-131.6 2072.43,-123.18 2062.16,-125.75 2066.01,-131.6"/>
<text text-anchor="middle" x="2056" y="-144.8" font-family="Times,serif" font-size="14.00">right</text>
</g>
<!-- N36 -->
<g id="node37" class="node">
<title>N36</title>
<polygon fill="none" stroke="black" points="1982,-36 1899,-36 1899,0 1982,0 1982,-36"/>
<text text-anchor="middle" x="1940.5" y="-14.3" font-family="Times,serif" font-size="14.00">IDENT (nn)</text>
</g>
<!-- N35&#45;&gt;N36 -->
<g id="edge32" class="edge">
<title>N35&#45;&gt;N36</title>
<path fill="none" stroke="black" stroke-width="2" d="M1963.63,-86.8C1959.62,-75.05 1954.23,-59.24 1949.66,-45.84"/>
<polygon fill="black" stroke="black" stroke-width="2" points="1952.9,-44.51 1946.36,-36.18 1946.28,-46.77 1952.9,-44.51"/>
<text text-anchor="middle" x="1973" y="-57.8" font-family="Times,serif" font-size="14.00">name</text>
</g>
<!-- N38 -->
<g id="node39" class="node">
<title>N38</title>
<polygon fill="none" stroke="black" points="2179,-36 2018,-36 2018,0 2179,0 2179,-36"/>
<text text-anchor="middle" x="2098.5" y="-14.3" font-family="Times,serif" font-size="14.00">SHEET_IDENT (SHEET)</text>
</g>
<!-- N37&#45;&gt;N38 -->
<g id="edge34" class="edge">
<title>N37&#45;&gt;N38</title>
<path fill="none" stroke="black" stroke-width="2" d="M2098.5,-86.8C2098.5,-75.16 2098.5,-59.55 2098.5,-46.24"/>
<polygon fill="black" stroke="black" stroke-width="2" points="2102,-46.18 2098.5,-36.18 2095,-46.18 2102,-46.18"/>
<text text-anchor="middle" x="2114" y="-57.8" font-family="Times,serif" font-size="14.00">name</text>
</g>
<!-- N39 -->
<g id="node40" class="node">
<title>N39</title>
<polygon fill="none" stroke="black" points="2333.5,-36 2215.5,-36 2215.5,0 2333.5,0 2333.5,-36"/>
<text text-anchor="middle" x="2274.5" y="-14.3" font-family="Times,serif" font-size="14.00">coord ((1, 1, &#39;B1&#39;))</text>
</g>
<!-- N37&#45;&gt;N39 -->
<g id="edge35" class="edge">
<title>N37&#45;&gt;N39</title>
<path fill="none" stroke="black" stroke-width="2" d="M2127.56,-89.96C2155.38,-76.53 2197.73,-56.08 2229.83,-40.57"/>
<polygon fill="black" stroke="black" stroke-width="2" points="2231.53,-43.64 2239.01,-36.14 2228.49,-37.34 2231.53,-43.64"/>
<text text-anchor="middle" x="2213" y="-57.8" font-family="Times,serif" font-size="14.00">coord</text>
</g>
</g>
</svg>
