<?xml version="1.0" encoding="UTF-8" standalone="no"?>
<!DOCTYPE svg PUBLIC "-//W3C//DTD SVG 1.1//EN"
 "http://www.w3.org/Graphics/SVG/1.1/DTD/svg11.dtd">
<!-- Generated by graphviz version 2.42.3 (0)
 -->
<!-- Title: parsetree Pages: 1 -->
<svg width="1636pt" height="566pt"
 viewBox="0.00 0.00 1635.50 566.00" xmlns="http://www.w3.org/2000/svg" xmlns:xlink="http://www.w3.org/1999/xlink">
<g id="graph0" class="graph" transform="scale(1 1) rotate(0) translate(4 562)">
<title>parsetree</title>
<polygon fill="white" stroke="transparent" points="-4,4 -4,-562 1631.5,-562 1631.5,4 -4,4"/>
<!-- N0 -->
<g id="node1" class="node">
<title>N0</title>
<polygon fill="none" stroke="black" points="911,-558 847,-558 847,-522 911,-522 911,-558"/>
<text text-anchor="middle" x="879" y="-536.3" font-family="Times,serif" font-size="14.00">program</text>
</g>
<!-- N1 -->
<g id="node2" class="node">
<title>N1</title>
<polygon fill="none" stroke="black" points="294.5,-471 191.5,-471 191.5,-435 294.5,-435 294.5,-471"/>
<text text-anchor="middle" x="243" y="-449.3" font-family="Times,serif" font-size="14.00">sheet_definition</text>
</g>
<!-- N0&#45;&gt;N1 -->
<g id="edge3" class="edge">
<title>N0&#45;&gt;N1</title>
<path fill="none" stroke="black" stroke-width="2" d="M846.59,-534.67C745.93,-521.22 437.55,-480 304.82,-462.26"/>
<polygon fill="black" stroke="black" stroke-width="2" points="305.19,-458.78 294.81,-460.92 304.26,-465.72 305.19,-458.78"/>
<text text-anchor="middle" x="637.5" y="-492.8" font-family="Times,serif" font-size="14.00">funcs_vars[0]</text>
</g>
<!-- N4 -->
<g id="node5" class="node">
<title>N4</title>
<polygon fill="none" stroke="black" points="788.5,-471 693.5,-471 693.5,-435 788.5,-435 788.5,-471"/>
<text text-anchor="middle" x="741" y="-449.3" font-family="Times,serif" font-size="14.00">subroutine&#45;def</text>
</g>
<!-- N0&#45;&gt;N4 -->
<g id="edge34" class="edge">
<title>N0&#45;&gt;N4</title>
<path fill="none" stroke="black" stroke-width="2" d="M851.07,-521.8C829.94,-508.78 800.72,-490.78 777.69,-476.6"/>
<polygon fill="black" stroke="black" stroke-width="2" points="779.23,-473.44 768.88,-471.18 775.56,-479.4 779.23,-473.44"/>
<text text-anchor="middle" x="856.5" y="-492.8" font-family="Times,serif" font-size="14.00">funcs_vars[1]</text>
</g>
<!-- N35 -->
<g id="node36" class="node">
<title>N35</title>
<polygon fill="none" stroke="black" points="1152,-471 1052,-471 1052,-435 1152,-435 1152,-471"/>
<text text-anchor="middle" x="1102" y="-449.3" font-family="Times,serif" font-size="14.00">subroutine_call</text>
</g>
<!-- N0&#45;&gt;N35 -->
<g id="edge38" class="edge">
<title>N0&#45;&gt;N35</title>
<path fill="none" stroke="black" stroke-width="2" d="M911.43,-526.64C947.14,-513.03 1005.15,-490.92 1047.8,-474.66"/>
<polygon fill="black" stroke="black" stroke-width="2" points="1049.1,-477.91 1057.2,-471.08 1046.61,-471.37 1049.1,-477.91"/>
<text text-anchor="middle" x="1036" y="-492.8" font-family="Times,serif" font-size="14.00">stmt_list[0]</text>
</g>
<!-- N39 -->
<g id="node40" class="node">
<title>N39</title>
<polygon fill="none" stroke="black" points="1425.5,-471 1348.5,-471 1348.5,-435 1425.5,-435 1425.5,-471"/>
<text text-anchor="middle" x="1387" y="-449.3" font-family="Times,serif" font-size="14.00">print_sheet</text>
</g>
<!-- N0&#45;&gt;N39 -->
<g id="edge42" class="edge">
<title>N0&#45;&gt;N39</title>
<path fill="none" stroke="black" stroke-width="2" d="M911.16,-533.62C997.51,-519.17 1234.83,-479.46 1338.02,-462.2"/>
<polygon fill="black" stroke="black" stroke-width="2" points="1338.88,-465.6 1348.16,-460.5 1337.72,-458.7 1338.88,-465.6"/>
<text text-anchor="middle" x="1196" y="-492.8" font-family="Times,serif" font-size="14.00">stmt_list[1]</text>
</g>
<!-- N2 -->
<g id="node3" class="node">
<title>N2</title>
<polygon fill="none" stroke="black" points="134,-384 0,-384 0,-348 134,-348 134,-384"/>
<text text-anchor="middle" x="67" y="-362.3" font-family="Times,serif" font-size="14.00">SHEET_IDENT (SS)</text>
</g>
<!-- N1&#45;&gt;N2 -->
<g id="edge1" class="edge">
<title>N1&#45;&gt;N2</title>
<path fill="none" stroke="black" stroke-width="2" d="M207.38,-434.8C179.74,-421.45 141.25,-402.86 111.57,-388.52"/>
<polygon fill="black" stroke="black" stroke-width="2" points="112.79,-385.23 102.26,-384.03 109.75,-391.53 112.79,-385.23"/>
<text text-anchor="middle" x="181.5" y="-405.8" font-family="Times,serif" font-size="14.00">name</text>
</g>
<!-- N3 -->
<g id="node4" class="node">
<title>N3</title>
<polygon fill="none" stroke="black" points="316,-384 170,-384 170,-348 316,-348 316,-384"/>
<text text-anchor="middle" x="243" y="-362.3" font-family="Times,serif" font-size="14.00">sheet_init_size ((10, 1))</text>
</g>
<!-- N1&#45;&gt;N3 -->
<g id="edge2" class="edge">
<title>N1&#45;&gt;N3</title>
<path fill="none" stroke="black" stroke-width="2" d="M243,-434.8C243,-423.16 243,-407.55 243,-394.24"/>
<polygon fill="black" stroke="black" stroke-width="2" points="246.5,-394.18 243,-384.18 239.5,-394.18 246.5,-394.18"/>
<text text-anchor="middle" x="252.5" y="-405.8" font-family="Times,serif" font-size="14.00">init</text>
</g>
<!-- N5 -->
<g id="node6" class="node">
<title>N5</title>
<polygon fill="none" stroke="black" points="483.5,-384 352.5,-384 352.5,-348 483.5,-348 483.5,-384"/>
<text text-anchor="middle" x="418" y="-362.3" font-family="Times,serif" font-size="14.00">FUNC_IDENT (Init)</text>
</g>
<!-- N4&#45;&gt;N5 -->
<g id="edge4" class="edge">
<title>N4&#45;&gt;N5</title>
<path fill="none" stroke="black" stroke-width="2" d="M693.3,-442.95C660.66,-436.47 616.49,-427.12 578,-417 544.75,-408.25 508.11,-396.93 478.29,-387.27"/>
<polygon fill="black" stroke="black" stroke-width="2" points="479.05,-383.84 468.46,-384.07 476.88,-390.49 479.05,-383.84"/>
<text text-anchor="middle" x="593.5" y="-405.8" font-family="Times,serif" font-size="14.00">name</text>
</g>
<!-- N6 -->
<g id="node7" class="node">
<title>N6</title>
<polygon fill="none" stroke="black" points="596.5,-384 519.5,-384 519.5,-348 596.5,-348 596.5,-384"/>
<text text-anchor="middle" x="558" y="-362.3" font-family="Times,serif" font-size="14.00">formal_arg</text>
</g>
<!-- N4&#45;&gt;N6 -->
<g id="edge6" class="edge">
<title>N4&#45;&gt;N6</title>
<path fill="none" stroke="black" stroke-width="2" d="M693.44,-436.76C677.48,-431.14 659.74,-424.34 644,-417 626.73,-408.94 608.37,-398.54 593.07,-389.32"/>
<polygon fill="black" stroke="black" stroke-width="2" points="594.8,-386.27 584.44,-384.05 591.15,-392.25 594.8,-386.27"/>
<text text-anchor="middle" x="673" y="-405.8" font-family="Times,serif" font-size="14.00">formals[0]</text>
</g>
<!-- N8 -->
<g id="node9" class="node">
<title>N8</title>
<polygon fill="none" stroke="black" points="739.5,-384 632.5,-384 632.5,-348 739.5,-348 739.5,-384"/>
<text text-anchor="middle" x="686" y="-362.3" font-family="Times,serif" font-size="14.00">scalar_definition</text>
</g>
<!-- N4&#45;&gt;N8 -->
<g id="edge9" class="edge">
<title>N4&#45;&gt;N8</title>
<path fill="none" stroke="black" stroke-width="2" d="M729.87,-434.8C722.04,-422.7 711.43,-406.3 702.61,-392.67"/>
<polygon fill="black" stroke="black" stroke-width="2" points="705.48,-390.67 697.11,-384.18 699.61,-394.47 705.48,-390.67"/>
<text text-anchor="middle" x="736.5" y="-405.8" font-family="Times,serif" font-size="14.00">vars[0]</text>
</g>
<!-- N11 -->
<g id="node12" class="node">
<title>N11</title>
<polygon fill="none" stroke="black" points="880.5,-384 775.5,-384 775.5,-348 880.5,-348 880.5,-384"/>
<text text-anchor="middle" x="828" y="-362.3" font-family="Times,serif" font-size="14.00">range_definition</text>
</g>
<!-- N4&#45;&gt;N11 -->
<g id="edge18" class="edge">
<title>N4&#45;&gt;N11</title>
<path fill="none" stroke="black" stroke-width="2" d="M758.61,-434.8C771.34,-422.36 788.73,-405.36 802.92,-391.5"/>
<polygon fill="black" stroke="black" stroke-width="2" points="805.71,-393.67 810.42,-384.18 800.82,-388.66 805.71,-393.67"/>
<text text-anchor="middle" x="809.5" y="-405.8" font-family="Times,serif" font-size="14.00">vars[1]</text>
</g>
<!-- N20 -->
<g id="node21" class="node">
<title>N20</title>
<polygon fill="none" stroke="black" points="1000,-384 938,-384 938,-348 1000,-348 1000,-384"/>
<text text-anchor="middle" x="969" y="-362.3" font-family="Times,serif" font-size="14.00">for_stmt</text>
</g>
<!-- N4&#45;&gt;N20 -->
<g id="edge33" class="edge">
<title>N4&#45;&gt;N20</title>
<path fill="none" stroke="black" stroke-width="2" d="M788.92,-434.91C804.59,-429.26 822.06,-422.92 838,-417 868.35,-405.73 902.53,-392.68 928.36,-382.73"/>
<polygon fill="black" stroke="black" stroke-width="2" points="929.76,-385.94 937.83,-379.08 927.24,-379.41 929.76,-385.94"/>
<text text-anchor="middle" x="901" y="-405.8" font-family="Times,serif" font-size="14.00">stmts[0]</text>
</g>
<!-- N7 -->
<g id="node8" class="node">
<title>N7</title>
<polygon fill="none" stroke="black" points="335,-297 197,-297 197,-261 335,-261 335,-297"/>
<text text-anchor="middle" x="266" y="-275.3" font-family="Times,serif" font-size="14.00">SHEET_IDENT (XX)</text>
</g>
<!-- N6&#45;&gt;N7 -->
<g id="edge5" class="edge">
<title>N6&#45;&gt;N7</title>
<path fill="none" stroke="black" stroke-width="2" d="M519.38,-353.44C513.23,-351.61 506.94,-349.75 501,-348 445.27,-331.63 382.01,-313.34 335.17,-299.86"/>
<polygon fill="black" stroke="black" stroke-width="2" points="336.01,-296.46 325.44,-297.05 334.08,-303.18 336.01,-296.46"/>
<text text-anchor="middle" x="452.5" y="-318.8" font-family="Times,serif" font-size="14.00">name</text>
</g>
<!-- N9 -->
<g id="node10" class="node">
<title>N9</title>
<polygon fill="none" stroke="black" points="448.5,-297 371.5,-297 371.5,-261 448.5,-261 448.5,-297"/>
<text text-anchor="middle" x="410" y="-275.3" font-family="Times,serif" font-size="14.00">IDENT (ii)</text>
</g>
<!-- N8&#45;&gt;N9 -->
<g id="edge7" class="edge">
<title>N8&#45;&gt;N9</title>
<path fill="none" stroke="black" stroke-width="2" d="M632.46,-348.51C582.01,-332.97 507.09,-309.9 458.39,-294.9"/>
<polygon fill="black" stroke="black" stroke-width="2" points="459.3,-291.52 448.72,-291.92 457.24,-298.21 459.3,-291.52"/>
<text text-anchor="middle" x="580.5" y="-318.8" font-family="Times,serif" font-size="14.00">name</text>
</g>
<!-- N10 -->
<g id="node11" class="node">
<title>N10</title>
<polygon fill="none" stroke="black" points="623.5,-297 484.5,-297 484.5,-261 623.5,-261 623.5,-297"/>
<text text-anchor="middle" x="554" y="-275.3" font-family="Times,serif" font-size="14.00">decimal_number (1.0)</text>
</g>
<!-- N8&#45;&gt;N10 -->
<g id="edge8" class="edge">
<title>N8&#45;&gt;N10</title>
<path fill="none" stroke="black" stroke-width="2" d="M659.29,-347.8C639.07,-334.78 611.12,-316.78 589.1,-302.6"/>
<polygon fill="black" stroke="black" stroke-width="2" points="590.98,-299.65 580.67,-297.18 587.19,-305.53 590.98,-299.65"/>
<text text-anchor="middle" x="637.5" y="-318.8" font-family="Times,serif" font-size="14.00">init</text>
</g>
<!-- N12 -->
<g id="node13" class="node">
<title>N12</title>
<polygon fill="none" stroke="black" points="808.5,-297 659.5,-297 659.5,-261 808.5,-261 808.5,-297"/>
<text text-anchor="middle" x="734" y="-275.3" font-family="Times,serif" font-size="14.00">RANGE_IDENT (_rng)</text>
</g>
<!-- N11&#45;&gt;N12 -->
<g id="edge10" class="edge">
<title>N11&#45;&gt;N12</title>
<path fill="none" stroke="black" stroke-width="2" d="M808.98,-347.8C795.09,-335.24 776.08,-318.05 760.67,-304.12"/>
<polygon fill="black" stroke="black" stroke-width="2" points="762.76,-301.29 752.99,-297.18 758.06,-306.48 762.76,-301.29"/>
<text text-anchor="middle" x="802.5" y="-318.8" font-family="Times,serif" font-size="14.00">name</text>
</g>
<!-- N13 -->
<g id="node14" class="node">
<title>N13</title>
<polygon fill="none" stroke="black" points="899,-297 845,-297 845,-261 899,-261 899,-297"/>
<text text-anchor="middle" x="872" y="-275.3" font-family="Times,serif" font-size="14.00">range</text>
</g>
<!-- N11&#45;&gt;N13 -->
<g id="edge17" class="edge">
<title>N11&#45;&gt;N13</title>
<path fill="none" stroke="black" stroke-width="2" d="M836.9,-347.8C843.11,-335.82 851.49,-319.62 858.51,-306.06"/>
<polygon fill="black" stroke="black" stroke-width="2" points="861.62,-307.67 863.11,-297.18 855.4,-304.45 861.62,-307.67"/>
<text text-anchor="middle" x="862.5" y="-318.8" font-family="Times,serif" font-size="14.00">init</text>
</g>
<!-- N14 -->
<g id="node15" class="node">
<title>N14</title>
<polygon fill="none" stroke="black" points="654,-210 596,-210 596,-174 654,-174 654,-210"/>
<text text-anchor="middle" x="625" y="-188.3" font-family="Times,serif" font-size="14.00">cell_ref</text>
</g>
<!-- N13&#45;&gt;N14 -->
<g id="edge13" class="edge">
<title>N13&#45;&gt;N14</title>
<path fill="none" stroke="black" stroke-width="2" d="M844.8,-267.81C838.63,-265.53 832.1,-263.16 826,-261 769.69,-241.08 704.09,-219.11 663.54,-205.69"/>
<polygon fill="black" stroke="black" stroke-width="2" points="664.64,-202.36 654.05,-202.55 662.44,-209.01 664.64,-202.36"/>
<text text-anchor="middle" x="790" y="-231.8" font-family="Times,serif" font-size="14.00">coord1</text>
</g>
<!-- N17 -->
<g id="node18" class="node">
<title>N17</title>
<polygon fill="none" stroke="black" points="846,-210 788,-210 788,-174 846,-174 846,-210"/>
<text text-anchor="middle" x="817" y="-188.3" font-family="Times,serif" font-size="14.00">cell_ref</text>
</g>
<!-- N13&#45;&gt;N17 -->
<g id="edge16" class="edge">
<title>N13&#45;&gt;N17</title>
<path fill="none" stroke="black" stroke-width="2" d="M860.87,-260.8C853.04,-248.7 842.43,-232.3 833.61,-218.67"/>
<polygon fill="black" stroke="black" stroke-width="2" points="836.48,-216.67 828.11,-210.18 830.61,-220.47 836.48,-216.67"/>
<text text-anchor="middle" x="867" y="-231.8" font-family="Times,serif" font-size="14.00">coord2</text>
</g>
<!-- N15 -->
<g id="node16" class="node">
<title>N15</title>
<polygon fill="none" stroke="black" points="529,-123 395,-123 395,-87 529,-87 529,-123"/>
<text text-anchor="middle" x="462" y="-101.3" font-family="Times,serif" font-size="14.00">SHEET_IDENT (SS)</text>
</g>
<!-- N14&#45;&gt;N15 -->
<g id="edge11" class="edge">
<title>N14&#45;&gt;N15</title>
<path fill="none" stroke="black" stroke-width="2" d="M595.86,-175.8C570.24,-162.45 532.66,-142.85 503.84,-127.82"/>
<polygon fill="black" stroke="black" stroke-width="2" points="505.3,-124.63 494.81,-123.11 502.06,-130.84 505.3,-124.63"/>
<text text-anchor="middle" x="569.5" y="-144.8" font-family="Times,serif" font-size="14.00">name</text>
</g>
<!-- N16 -->
<g id="node17" class="node">
<title>N16</title>
<polygon fill="none" stroke="black" points="684.5,-123 565.5,-123 565.5,-87 684.5,-87 684.5,-123"/>
<text text-anchor="middle" x="625" y="-101.3" font-family="Times,serif" font-size="14.00">coord ((0, 0, &#39;A1&#39;))</text>
</g>
<!-- N14&#45;&gt;N16 -->
<g id="edge12" class="edge">
<title>N14&#45;&gt;N16</title>
<path fill="none" stroke="black" stroke-width="2" d="M625,-173.8C625,-162.16 625,-146.55 625,-133.24"/>
<polygon fill="black" stroke="black" stroke-width="2" points="628.5,-133.18 625,-123.18 621.5,-133.18 628.5,-133.18"/>
<text text-anchor="middle" x="640.5" y="-144.8" font-family="Times,serif" font-size="14.00">coord</text>
</g>
<!-- N18 -->
<g id="node19" class="node">
<title>N18</title>
<polygon fill="none" stroke="black" points="855,-123 721,-123 721,-87 855,-87 855,-123"/>
<text text-anchor="middle" x="788" y="-101.3" font-family="Times,serif" font-size="14.00">SHEET_IDENT (SS)</text>
</g>
<!-- N17&#45;&gt;N18 -->
<g id="edge14" class="edge">
<title>N17&#45;&gt;N18</title>
<path fill="none" stroke="black" stroke-width="2" d="M811.13,-173.8C807.12,-162.05 801.73,-146.24 797.16,-132.84"/>
<polygon fill="black" stroke="black" stroke-width="2" points="800.4,-131.51 793.86,-123.18 793.78,-133.77 800.4,-131.51"/>
<text text-anchor="middle" x="820.5" y="-144.8" font-family="Times,serif" font-size="14.00">name</text>
</g>
<!-- N19 -->
<g id="node20" class="node">
<title>N19</title>
<polygon fill="none" stroke="black" points="1005,-123 891,-123 891,-87 1005,-87 1005,-123"/>
<text text-anchor="middle" x="948" y="-101.3" font-family="Times,serif" font-size="14.00">coord ((9, 0, &#39;J1&#39;))</text>
</g>
<!-- N17&#45;&gt;N19 -->
<g id="edge15" class="edge">
<title>N17&#45;&gt;N19</title>
<path fill="none" stroke="black" stroke-width="2" d="M843.51,-173.8C863.49,-160.84 891.07,-142.94 912.88,-128.79"/>
<polygon fill="black" stroke="black" stroke-width="2" points="915.05,-131.55 921.53,-123.18 911.24,-125.68 915.05,-131.55"/>
<text text-anchor="middle" x="906.5" y="-144.8" font-family="Times,serif" font-size="14.00">coord</text>
</g>
<!-- N21 -->
<g id="node22" class="node">
<title>N21</title>
<polygon fill="none" stroke="black" points="1003,-297 935,-297 935,-261 1003,-261 1003,-297"/>
<text text-anchor="middle" x="969" y="-275.3" font-family="Times,serif" font-size="14.00">range_ref</text>
</g>
<!-- N20&#45;&gt;N21 -->
<g id="edge20" class="edge">
<title>N20&#45;&gt;N21</title>
<path fill="none" stroke="black" stroke-width="2" d="M969,-347.8C969,-336.16 969,-320.55 969,-307.24"/>
<polygon fill="black" stroke="black" stroke-width="2" points="972.5,-307.18 969,-297.18 965.5,-307.18 972.5,-307.18"/>
<text text-anchor="middle" x="995" y="-318.8" font-family="Times,serif" font-size="14.00">ranges[0]</text>
</g>
<!-- N23 -->
<g id="node24" class="node">
<title>N23</title>
<polygon fill="none" stroke="black" points="1134.5,-297 1057.5,-297 1057.5,-261 1134.5,-261 1134.5,-297"/>
<text text-anchor="middle" x="1096" y="-275.3" font-family="Times,serif" font-size="14.00">cell_assign</text>
</g>
<!-- N20&#45;&gt;N23 -->
<g id="edge25" class="edge">
<title>N20&#45;&gt;N23</title>
<path fill="none" stroke="black" stroke-width="2" d="M1000.18,-348.12C1009.89,-342.6 1020.53,-336.27 1030,-330 1042.32,-321.84 1055.39,-312.18 1066.62,-303.53"/>
<polygon fill="black" stroke="black" stroke-width="2" points="1069.07,-306.06 1074.8,-297.15 1064.76,-300.53 1069.07,-306.06"/>
<text text-anchor="middle" x="1074" y="-318.8" font-family="Times,serif" font-size="14.00">stmts[0]</text>
</g>
<!-- N28 -->
<g id="node29" class="node">
<title>N28</title>
<polygon fill="none" stroke="black" points="1263.5,-297 1174.5,-297 1174.5,-261 1263.5,-261 1263.5,-297"/>
<text text-anchor="middle" x="1219" y="-275.3" font-family="Times,serif" font-size="14.00">scalar_assign</text>
</g>
<!-- N20&#45;&gt;N28 -->
<g id="edge32" class="edge">
<title>N20&#45;&gt;N28</title>
<path fill="none" stroke="black" stroke-width="2" d="M1000.17,-353.49C1006.05,-351.52 1012.18,-349.6 1018,-348 1056.5,-337.43 1067.97,-342.15 1106,-330 1129.92,-322.36 1155.6,-311.25 1176.42,-301.44"/>
<polygon fill="black" stroke="black" stroke-width="2" points="1178.11,-304.52 1185.62,-297.05 1175.09,-298.2 1178.11,-304.52"/>
<text text-anchor="middle" x="1168" y="-318.8" font-family="Times,serif" font-size="14.00">stmts[1]</text>
</g>
<!-- N22 -->
<g id="node23" class="node">
<title>N22</title>
<polygon fill="none" stroke="black" points="1030.5,-210 881.5,-210 881.5,-174 1030.5,-174 1030.5,-210"/>
<text text-anchor="middle" x="956" y="-188.3" font-family="Times,serif" font-size="14.00">RANGE_IDENT (_rng)</text>
</g>
<!-- N21&#45;&gt;N22 -->
<g id="edge19" class="edge">
<title>N21&#45;&gt;N22</title>
<path fill="none" stroke="black" stroke-width="2" d="M966.37,-260.8C964.59,-249.16 962.2,-233.55 960.17,-220.24"/>
<polygon fill="black" stroke="black" stroke-width="2" points="963.6,-219.53 958.63,-210.18 956.68,-220.59 963.6,-219.53"/>
<text text-anchor="middle" x="979.5" y="-231.8" font-family="Times,serif" font-size="14.00">name</text>
</g>
<!-- N24 -->
<g id="node25" class="node">
<title>N24</title>
<polygon fill="none" stroke="black" points="1125,-210 1067,-210 1067,-174 1125,-174 1125,-210"/>
<text text-anchor="middle" x="1096" y="-188.3" font-family="Times,serif" font-size="14.00">loopvar</text>
</g>
<!-- N23&#45;&gt;N24 -->
<g id="edge22" class="edge">
<title>N23&#45;&gt;N24</title>
<path fill="none" stroke="black" stroke-width="2" d="M1094.1,-260.88C1093.25,-251.23 1092.53,-238.95 1093,-228 1093.11,-225.44 1093.26,-222.78 1093.45,-220.12"/>
<polygon fill="black" stroke="black" stroke-width="2" points="1096.94,-220.32 1094.24,-210.07 1089.96,-219.76 1096.94,-220.32"/>
<text text-anchor="middle" x="1102" y="-231.8" font-family="Times,serif" font-size="14.00">var</text>
</g>
<!-- N26 -->
<g id="node27" class="node">
<title>N26</title>
<polygon fill="none" stroke="black" points="1231,-210 1161,-210 1161,-174 1231,-174 1231,-210"/>
<text text-anchor="middle" x="1196" y="-188.3" font-family="Times,serif" font-size="14.00">scalar_ref</text>
</g>
<!-- N23&#45;&gt;N26 -->
<g id="edge24" class="edge">
<title>N23&#45;&gt;N26</title>
<path fill="none" stroke="black" stroke-width="2" d="M1116.24,-260.8C1131.15,-248.13 1151.61,-230.73 1168.07,-216.74"/>
<polygon fill="black" stroke="black" stroke-width="2" points="1170.44,-219.32 1175.79,-210.18 1165.91,-213.99 1170.44,-219.32"/>
<text text-anchor="middle" x="1164.5" y="-231.8" font-family="Times,serif" font-size="14.00">expr</text>
</g>
<!-- N25 -->
<g id="node26" class="node">
<title>N25</title>
<ellipse fill="none" stroke="black" cx="1076" cy="-105" rx="35.19" ry="18"/>
<text text-anchor="middle" x="1076" y="-101.3" font-family="Times,serif" font-size="14.00">NONE</text>
</g>
<!-- N24&#45;&gt;N25 -->
<g id="edge21" class="edge">
<title>N24&#45;&gt;N25</title>
<path fill="none" stroke="black" stroke-width="2" d="M1091.95,-173.8C1089.2,-162.09 1085.49,-146.34 1082.35,-132.97"/>
<polygon fill="black" stroke="black" stroke-width="2" points="1085.67,-131.82 1079.97,-122.89 1078.86,-133.42 1085.67,-131.82"/>
<text text-anchor="middle" x="1127.5" y="-144.8" font-family="Times,serif" font-size="14.00">range_selector</text>
</g>
<!-- N27 -->
<g id="node28" class="node">
<title>N27</title>
<polygon fill="none" stroke="black" points="1232.5,-123 1155.5,-123 1155.5,-87 1232.5,-87 1232.5,-123"/>
<text text-anchor="middle" x="1194" y="-101.3" font-family="Times,serif" font-size="14.00">IDENT (ii)</text>
</g>
<!-- N26&#45;&gt;N27 -->
<g id="edge23" class="edge">
<title>N26&#45;&gt;N27</title>
<path fill="none" stroke="black" stroke-width="2" d="M1195.6,-173.8C1195.32,-162.16 1194.95,-146.55 1194.64,-133.24"/>
<polygon fill="black" stroke="black" stroke-width="2" points="1198.14,-133.09 1194.4,-123.18 1191.14,-133.26 1198.14,-133.09"/>
<text text-anchor="middle" x="1211.5" y="-144.8" font-family="Times,serif" font-size="14.00">name</text>
</g>
<!-- N29 -->
<g id="node30" class="node">
<title>N29</title>
<polygon fill="none" stroke="black" points="1340,-210 1270,-210 1270,-174 1340,-174 1340,-210"/>
<text text-anchor="middle" x="1305" y="-188.3" font-family="Times,serif" font-size="14.00">scalar_ref</text>
</g>
<!-- N28&#45;&gt;N29 -->
<g id="edge27" class="edge">
<title>N28&#45;&gt;N29</title>
<path fill="none" stroke="black" stroke-width="2" d="M1236.4,-260.8C1248.99,-248.36 1266.18,-231.36 1280.21,-217.5"/>
<polygon fill="black" stroke="black" stroke-width="2" points="1282.97,-219.69 1287.62,-210.18 1278.05,-214.72 1282.97,-219.69"/>
<text text-anchor="middle" x="1277" y="-231.8" font-family="Times,serif" font-size="14.00">var</text>
</g>
<!-- N31 -->
<g id="node32" class="node">
<title>N31</title>
<polygon fill="none" stroke="black" points="1444,-210 1390,-210 1390,-174 1444,-174 1444,-210"/>
<text text-anchor="middle" x="1417" y="-188.3" font-family="Times,serif" font-size="14.00">oper +</text>
</g>
<!-- N28&#45;&gt;N31 -->
<g id="edge31" class="edge">
<title>N28&#45;&gt;N31</title>
<path fill="none" stroke="black" stroke-width="2" d="M1259.07,-260.8C1294.7,-245.5 1346.35,-223.33 1380.77,-208.55"/>
<polygon fill="black" stroke="black" stroke-width="2" points="1382.19,-211.75 1390,-204.59 1379.43,-205.32 1382.19,-211.75"/>
<text text-anchor="middle" x="1342.5" y="-231.8" font-family="Times,serif" font-size="14.00">expr</text>
</g>
<!-- N30 -->
<g id="node31" class="node">
<title>N30</title>
<polygon fill="none" stroke="black" points="1345.5,-123 1268.5,-123 1268.5,-87 1345.5,-87 1345.5,-123"/>
<text text-anchor="middle" x="1307" y="-101.3" font-family="Times,serif" font-size="14.00">IDENT (ii)</text>
</g>
<!-- N29&#45;&gt;N30 -->
<g id="edge26" class="edge">
<title>N29&#45;&gt;N30</title>
<path fill="none" stroke="black" stroke-width="2" d="M1305.4,-173.8C1305.68,-162.16 1306.05,-146.55 1306.36,-133.24"/>
<polygon fill="black" stroke="black" stroke-width="2" points="1309.86,-133.26 1306.6,-123.18 1302.86,-133.09 1309.86,-133.26"/>
<text text-anchor="middle" x="1322.5" y="-144.8" font-family="Times,serif" font-size="14.00">name</text>
</g>
<!-- N32 -->
<g id="node33" class="node">
<title>N32</title>
<polygon fill="none" stroke="black" points="1452,-123 1382,-123 1382,-87 1452,-87 1452,-123"/>
<text text-anchor="middle" x="1417" y="-101.3" font-family="Times,serif" font-size="14.00">scalar_ref</text>
</g>
<!-- N31&#45;&gt;N32 -->
<g id="edge29" class="edge">
<title>N31&#45;&gt;N32</title>
<path fill="none" stroke="black" stroke-width="2" d="M1417,-173.8C1417,-162.16 1417,-146.55 1417,-133.24"/>
<polygon fill="black" stroke="black" stroke-width="2" points="1420.5,-133.18 1417,-123.18 1413.5,-133.18 1420.5,-133.18"/>
<text text-anchor="middle" x="1426.5" y="-144.8" font-family="Times,serif" font-size="14.00">left</text>
</g>
<!-- N34 -->
<g id="node35" class="node">
<title>N34</title>
<polygon fill="none" stroke="black" points="1627.5,-123 1488.5,-123 1488.5,-87 1627.5,-87 1627.5,-123"/>
<text text-anchor="middle" x="1558" y="-101.3" font-family="Times,serif" font-size="14.00">decimal_number (1.0)</text>
</g>
<!-- N31&#45;&gt;N34 -->
<g id="edge30" class="edge">
<title>N31&#45;&gt;N34</title>
<path fill="none" stroke="black" stroke-width="2" d="M1444.19,-174.61C1465.9,-161.52 1496.56,-143.04 1520.59,-128.55"/>
<polygon fill="black" stroke="black" stroke-width="2" points="1522.69,-131.37 1529.45,-123.21 1519.07,-125.38 1522.69,-131.37"/>
<text text-anchor="middle" x="1509.5" y="-144.8" font-family="Times,serif" font-size="14.00">right</text>
</g>
<!-- N33 -->
<g id="node34" class="node">
<title>N33</title>
<polygon fill="none" stroke="black" points="1455.5,-36 1378.5,-36 1378.5,0 1455.5,0 1455.5,-36"/>
<text text-anchor="middle" x="1417" y="-14.3" font-family="Times,serif" font-size="14.00">IDENT (ii)</text>
</g>
<!-- N32&#45;&gt;N33 -->
<g id="edge28" class="edge">
<title>N32&#45;&gt;N33</title>
<path fill="none" stroke="black" stroke-width="2" d="M1417,-86.8C1417,-75.16 1417,-59.55 1417,-46.24"/>
<polygon fill="black" stroke="black" stroke-width="2" points="1420.5,-46.18 1417,-36.18 1413.5,-46.18 1420.5,-46.18"/>
<text text-anchor="middle" x="1432.5" y="-57.8" font-family="Times,serif" font-size="14.00">name</text>
</g>
<!-- N36 -->
<g id="node37" class="node">
<title>N36</title>
<polygon fill="none" stroke="black" points="1167.5,-384 1036.5,-384 1036.5,-348 1167.5,-348 1167.5,-384"/>
<text text-anchor="middle" x="1102" y="-362.3" font-family="Times,serif" font-size="14.00">FUNC_IDENT (Init)</text>
</g>
<!-- N35&#45;&gt;N36 -->
<g id="edge35" class="edge">
<title>N35&#45;&gt;N36</title>
<path fill="none" stroke="black" stroke-width="2" d="M1102,-434.8C1102,-423.16 1102,-407.55 1102,-394.24"/>
<polygon fill="black" stroke="black" stroke-width="2" points="1105.5,-394.18 1102,-384.18 1098.5,-394.18 1105.5,-394.18"/>
<text text-anchor="middle" x="1117.5" y="-405.8" font-family="Times,serif" font-size="14.00">name</text>
</g>
<!-- N37 -->
<g id="node38" class="node">
<title>N37</title>
<polygon fill="none" stroke="black" points="1270,-384 1204,-384 1204,-348 1270,-348 1270,-384"/>
<text text-anchor="middle" x="1237" y="-362.3" font-family="Times,serif" font-size="14.00">sheet_ref</text>
</g>
<!-- N35&#45;&gt;N37 -->
<g id="edge37" class="edge">
<title>N35&#45;&gt;N37</title>
<path fill="none" stroke="black" stroke-width="2" d="M1129.32,-434.8C1150,-421.78 1178.58,-403.78 1201.11,-389.6"/>
<polygon fill="black" stroke="black" stroke-width="2" points="1203.12,-392.47 1209.72,-384.18 1199.39,-386.54 1203.12,-392.47"/>
<text text-anchor="middle" x="1197.5" y="-405.8" font-family="Times,serif" font-size="14.00">args[0]</text>
</g>
<!-- N38 -->
<g id="node39" class="node">
<title>N38</title>
<polygon fill="none" stroke="black" points="1434,-297 1300,-297 1300,-261 1434,-261 1434,-297"/>
<text text-anchor="middle" x="1367" y="-275.3" font-family="Times,serif" font-size="14.00">SHEET_IDENT (SS)</text>
</g>
<!-- N37&#45;&gt;N38 -->
<g id="edge36" class="edge">
<title>N37&#45;&gt;N38</title>
<path fill="none" stroke="black" stroke-width="2" d="M1263.31,-347.8C1283.13,-334.84 1310.5,-316.94 1332.15,-302.79"/>
<polygon fill="black" stroke="black" stroke-width="2" points="1334.28,-305.58 1340.73,-297.18 1330.45,-299.72 1334.28,-305.58"/>
<text text-anchor="middle" x="1325.5" y="-318.8" font-family="Times,serif" font-size="14.00">name</text>
</g>
<!-- N40 -->
<g id="node41" class="node">
<title>N40</title>
<polygon fill="none" stroke="black" points="1467.5,-384 1306.5,-384 1306.5,-348 1467.5,-348 1467.5,-384"/>
<text text-anchor="middle" x="1387" y="-362.3" font-family="Times,serif" font-size="14.00">infostring (Numbers 1&#45;10)</text>
</g>
<!-- N39&#45;&gt;N40 -->
<g id="edge39" class="edge">
<title>N39&#45;&gt;N40</title>
<path fill="none" stroke="black" stroke-width="2" d="M1387,-434.8C1387,-423.16 1387,-407.55 1387,-394.24"/>
<polygon fill="black" stroke="black" stroke-width="2" points="1390.5,-394.18 1387,-384.18 1383.5,-394.18 1390.5,-394.18"/>
<text text-anchor="middle" x="1404.5" y="-405.8" font-family="Times,serif" font-size="14.00">infostr</text>
</g>
<!-- N41 -->
<g id="node42" class="node">
<title>N41</title>
<polygon fill="none" stroke="black" points="1570,-384 1504,-384 1504,-348 1570,-348 1570,-384"/>
<text text-anchor="middle" x="1537" y="-362.3" font-family="Times,serif" font-size="14.00">sheet_ref</text>
</g>
<!-- N39&#45;&gt;N41 -->
<g id="edge41" class="edge">
<title>N39&#45;&gt;N41</title>
<path fill="none" stroke="black" stroke-width="2" d="M1417.35,-434.8C1440.61,-421.62 1472.87,-403.34 1498.03,-389.08"/>
<polygon fill="black" stroke="black" stroke-width="2" points="1499.97,-392.01 1506.95,-384.03 1496.52,-385.92 1499.97,-392.01"/>
<text text-anchor="middle" x="1483.5" y="-405.8" font-family="Times,serif" font-size="14.00">expr</text>
</g>
<!-- N42 -->
<g id="node43" class="node">
<title>N42</title>
<polygon fill="none" stroke="black" points="1604,-297 1470,-297 1470,-261 1604,-261 1604,-297"/>
<text text-anchor="middle" x="1537" y="-275.3" font-family="Times,serif" font-size="14.00">SHEET_IDENT (SS)</text>
</g>
<!-- N41&#45;&gt;N42 -->
<g id="edge40" class="edge">
<title>N41&#45;&gt;N42</title>
<path fill="none" stroke="black" stroke-width="2" d="M1537,-347.8C1537,-336.16 1537,-320.55 1537,-307.24"/>
<polygon fill="black" stroke="black" stroke-width="2" points="1540.5,-307.18 1537,-297.18 1533.5,-307.18 1540.5,-307.18"/>
<text text-anchor="middle" x="1552.5" y="-318.8" font-family="Times,serif" font-size="14.00">name</text>
</g>
</g>
</svg>
