<?xml version="1.0" encoding="UTF-8" standalone="no"?>
<!DOCTYPE svg PUBLIC "-//W3C//DTD SVG 1.1//EN"
 "http://www.w3.org/Graphics/SVG/1.1/DTD/svg11.dtd">
<!-- Generated by graphviz version 2.42.3 (0)
 -->
<!-- Title: parsetree Pages: 1 -->
<svg width="1629pt" height="566pt"
 viewBox="0.00 0.00 1628.50 566.00" xmlns="http://www.w3.org/2000/svg" xmlns:xlink="http://www.w3.org/1999/xlink">
<g id="graph0" class="graph" transform="scale(1 1) rotate(0) translate(4 562)">
<title>parsetree</title>
<polygon fill="white" stroke="transparent" points="-4,4 -4,-562 1624.5,-562 1624.5,4 -4,4"/>
<!-- N0 -->
<g id="node1" class="node">
<title>N0</title>
<polygon fill="none" stroke="black" points="918,-558 854,-558 854,-522 918,-522 918,-558"/>
<text text-anchor="middle" x="886" y="-536.3" font-family="Times,serif" font-size="14.00">program</text>
</g>
<!-- N1 -->
<g id="node2" class="node">
<title>N1</title>
<polygon fill="none" stroke="black" points="294.5,-471 191.5,-471 191.5,-435 294.5,-435 294.5,-471"/>
<text text-anchor="middle" x="243" y="-449.3" font-family="Times,serif" font-size="14.00">sheet_definition</text>
</g>
<!-- N0&#45;&gt;N1 -->
<g id="edge3" class="edge">
<title>N0&#45;&gt;N1</title>
<path fill="none" stroke="black" stroke-width="2" d="M853.67,-534.73C752.16,-521.31 438.56,-479.85 304.65,-462.15"/>
<polygon fill="black" stroke="black" stroke-width="2" points="304.93,-458.66 294.55,-460.81 304.01,-465.6 304.93,-458.66"/>
<text text-anchor="middle" x="640.5" y="-492.8" font-family="Times,serif" font-size="14.00">funcs_vars[0]</text>
</g>
<!-- N4 -->
<g id="node5" class="node">
<title>N4</title>
<polygon fill="none" stroke="black" points="799.5,-471 704.5,-471 704.5,-435 799.5,-435 799.5,-471"/>
<text text-anchor="middle" x="752" y="-449.3" font-family="Times,serif" font-size="14.00">subroutine&#45;def</text>
</g>
<!-- N0&#45;&gt;N4 -->
<g id="edge34" class="edge">
<title>N0&#45;&gt;N4</title>
<path fill="none" stroke="black" stroke-width="2" d="M858.88,-521.8C838.36,-508.78 809.98,-490.78 787.63,-476.6"/>
<polygon fill="black" stroke="black" stroke-width="2" points="789.4,-473.58 779.08,-471.18 785.65,-479.49 789.4,-473.58"/>
<text text-anchor="middle" x="865.5" y="-492.8" font-family="Times,serif" font-size="14.00">funcs_vars[1]</text>
</g>
<!-- N35 -->
<g id="node36" class="node">
<title>N35</title>
<polygon fill="none" stroke="black" points="1152,-471 1052,-471 1052,-435 1152,-435 1152,-471"/>
<text text-anchor="middle" x="1102" y="-449.3" font-family="Times,serif" font-size="14.00">subroutine_call</text>
</g>
<!-- N0&#45;&gt;N35 -->
<g id="edge38" class="edge">
<title>N0&#45;&gt;N35</title>
<path fill="none" stroke="black" stroke-width="2" d="M918.34,-526.27C952.88,-512.68 1008.16,-490.93 1049.06,-474.83"/>
<polygon fill="black" stroke="black" stroke-width="2" points="1050.58,-478 1058.6,-471.08 1048.02,-471.48 1050.58,-478"/>
<text text-anchor="middle" x="1039" y="-492.8" font-family="Times,serif" font-size="14.00">stmt_list[0]</text>
</g>
<!-- N39 -->
<g id="node40" class="node">
<title>N39</title>
<polygon fill="none" stroke="black" points="1425.5,-471 1348.5,-471 1348.5,-435 1425.5,-435 1425.5,-471"/>
<text text-anchor="middle" x="1387" y="-449.3" font-family="Times,serif" font-size="14.00">print_sheet</text>
</g>
<!-- N0&#45;&gt;N39 -->
<g id="edge42" class="edge">
<title>N0&#45;&gt;N39</title>
<path fill="none" stroke="black" stroke-width="2" d="M918.1,-533.55C1003.5,-519.06 1236.67,-479.51 1338.42,-462.24"/>
<polygon fill="black" stroke="black" stroke-width="2" points="1339.16,-465.67 1348.43,-460.54 1337.99,-458.77 1339.16,-465.67"/>
<text text-anchor="middle" x="1199" y="-492.8" font-family="Times,serif" font-size="14.00">stmt_list[1]</text>
</g>
<!-- N2 -->
<g id="node3" class="node">
<title>N2</title>
<polygon fill="none" stroke="black" points="134,-384 0,-384 0,-348 134,-348 134,-384"/>
<text text-anchor="middle" x="67" y="-362.3" font-family="Times,serif" font-size="14.00">SHEET_IDENT (SS)</text>
</g>
<!-- N1&#45;&gt;N2 -->
<g id="edge1" class="edge">
<title>N1&#45;&gt;N2</title>
<path fill="none" stroke="black" stroke-width="2" d="M207.38,-434.8C179.74,-421.45 141.25,-402.86 111.57,-388.52"/>
<polygon fill="black" stroke="black" stroke-width="2" points="112.79,-385.23 102.26,-384.03 109.75,-391.53 112.79,-385.23"/>
<text text-anchor="middle" x="181.5" y="-405.8" font-family="Times,serif" font-size="14.00">name</text>
</g>
<!-- N3 -->
<g id="node4" class="node">
<title>N3</title>
<polygon fill="none" stroke="black" points="316,-384 170,-384 170,-348 316,-348 316,-384"/>
<text text-anchor="middle" x="243" y="-362.3" font-family="Times,serif" font-size="14.00">sheet_init_size ((10, 1))</text>
</g>
<!-- N1&#45;&gt;N3 -->
<g id="edge2" class="edge">
<title>N1&#45;&gt;N3</title>
<path fill="none" stroke="black" stroke-width="2" d="M243,-434.8C243,-423.16 243,-407.55 243,-394.24"/>
<polygon fill="black" stroke="black" stroke-width="2" points="246.5,-394.18 243,-384.18 239.5,-394.18 246.5,-394.18"/>
<text text-anchor="middle" x="252.5" y="-405.8" font-family="Times,serif" font-size="14.00">init</text>
</g>
<!-- N5 -->
<g id="node6" class="node">
<title>N5</title>
<polygon fill="none" stroke="black" points="483.5,-384 352.5,-384 352.5,-348 483.5,-348 483.5,-384"/>
<text text-anchor="middle" x="418" y="-362.3" font-family="Times,serif" font-size="14.00">FUNC_IDENT (Init)</text>
</g>
<!-- N4&#45;&gt;N5 -->
<g id="edge4" class="edge">
<title>N4&#45;&gt;N5</title>
<path fill="none" stroke="black" stroke-width="2" d="M704.34,-443.71C669.43,-437.3 621.01,-427.74 579,-417 545.23,-408.36 508.03,-396.94 477.9,-387.19"/>
<polygon fill="black" stroke="black" stroke-width="2" points="478.98,-383.86 468.38,-384.09 476.81,-390.52 478.98,-383.86"/>
<text text-anchor="middle" x="594.5" y="-405.8" font-family="Times,serif" font-size="14.00">name</text>
</g>
<!-- N6 -->
<g id="node7" class="node">
<title>N6</title>
<polygon fill="none" stroke="black" points="596.5,-384 519.5,-384 519.5,-348 596.5,-348 596.5,-384"/>
<text text-anchor="middle" x="558" y="-362.3" font-family="Times,serif" font-size="14.00">formal_arg</text>
</g>
<!-- N4&#45;&gt;N6 -->
<g id="edge6" class="edge">
<title>N4&#45;&gt;N6</title>
<path fill="none" stroke="black" stroke-width="2" d="M704.42,-437.76C686.76,-431.97 666.72,-424.8 649,-417 630.63,-408.91 611.02,-398.39 594.72,-389.09"/>
<polygon fill="black" stroke="black" stroke-width="2" points="596.45,-386.05 586.04,-384.08 592.95,-392.11 596.45,-386.05"/>
<text text-anchor="middle" x="678" y="-405.8" font-family="Times,serif" font-size="14.00">formals[0]</text>
</g>
<!-- N8 -->
<g id="node9" class="node">
<title>N8</title>
<polygon fill="none" stroke="black" points="739.5,-384 632.5,-384 632.5,-348 739.5,-348 739.5,-384"/>
<text text-anchor="middle" x="686" y="-362.3" font-family="Times,serif" font-size="14.00">scalar_definition</text>
</g>
<!-- N4&#45;&gt;N8 -->
<g id="edge9" class="edge">
<title>N4&#45;&gt;N8</title>
<path fill="none" stroke="black" stroke-width="2" d="M738.64,-434.8C729.16,-422.59 716.28,-405.99 705.63,-392.28"/>
<polygon fill="black" stroke="black" stroke-width="2" points="708.23,-389.93 699.34,-384.18 702.7,-394.22 708.23,-389.93"/>
<text text-anchor="middle" x="742.5" y="-405.8" font-family="Times,serif" font-size="14.00">vars[0]</text>
</g>
<!-- N11 -->
<g id="node12" class="node">
<title>N11</title>
<polygon fill="none" stroke="black" points="880.5,-384 775.5,-384 775.5,-348 880.5,-348 880.5,-384"/>
<text text-anchor="middle" x="828" y="-362.3" font-family="Times,serif" font-size="14.00">range_definition</text>
</g>
<!-- N4&#45;&gt;N11 -->
<g id="edge18" class="edge">
<title>N4&#45;&gt;N11</title>
<path fill="none" stroke="black" stroke-width="2" d="M767.38,-434.8C778.4,-422.47 793.42,-405.68 805.75,-391.89"/>
<polygon fill="black" stroke="black" stroke-width="2" points="808.59,-393.96 812.64,-384.18 803.37,-389.3 808.59,-393.96"/>
<text text-anchor="middle" x="814.5" y="-405.8" font-family="Times,serif" font-size="14.00">vars[1]</text>
</g>
<!-- N20 -->
<g id="node21" class="node">
<title>N20</title>
<polygon fill="none" stroke="black" points="1000,-384 938,-384 938,-348 1000,-348 1000,-384"/>
<text text-anchor="middle" x="969" y="-362.3" font-family="Times,serif" font-size="14.00">for_stmt</text>
</g>
<!-- N4&#45;&gt;N20 -->
<g id="edge33" class="edge">
<title>N4&#45;&gt;N20</title>
<path fill="none" stroke="black" stroke-width="2" d="M796.93,-434.83C811.63,-429.18 828.02,-422.85 843,-417 871.64,-405.81 903.87,-393.02 928.56,-383.17"/>
<polygon fill="black" stroke="black" stroke-width="2" points="929.98,-386.38 937.97,-379.42 927.38,-379.88 929.98,-386.38"/>
<text text-anchor="middle" x="905" y="-405.8" font-family="Times,serif" font-size="14.00">stmts[0]</text>
</g>
<!-- N7 -->
<g id="node8" class="node">
<title>N7</title>
<polygon fill="none" stroke="black" points="335,-297 197,-297 197,-261 335,-261 335,-297"/>
<text text-anchor="middle" x="266" y="-275.3" font-family="Times,serif" font-size="14.00">SHEET_IDENT (XX)</text>
</g>
<!-- N6&#45;&gt;N7 -->
<g id="edge5" class="edge">
<title>N6&#45;&gt;N7</title>
<path fill="none" stroke="black" stroke-width="2" d="M519.38,-353.44C513.23,-351.61 506.94,-349.75 501,-348 445.27,-331.63 382.01,-313.34 335.17,-299.86"/>
<polygon fill="black" stroke="black" stroke-width="2" points="336.01,-296.46 325.44,-297.05 334.08,-303.18 336.01,-296.46"/>
<text text-anchor="middle" x="452.5" y="-318.8" font-family="Times,serif" font-size="14.00">name</text>
</g>
<!-- N9 -->
<g id="node10" class="node">
<title>N9</title>
<polygon fill="none" stroke="black" points="448.5,-297 371.5,-297 371.5,-261 448.5,-261 448.5,-297"/>
<text text-anchor="middle" x="410" y="-275.3" font-family="Times,serif" font-size="14.00">IDENT (ii)</text>
</g>
<!-- N8&#45;&gt;N9 -->
<g id="edge7" class="edge">
<title>N8&#45;&gt;N9</title>
<path fill="none" stroke="black" stroke-width="2" d="M632.46,-348.51C582.01,-332.97 507.09,-309.9 458.39,-294.9"/>
<polygon fill="black" stroke="black" stroke-width="2" points="459.3,-291.52 448.72,-291.92 457.24,-298.21 459.3,-291.52"/>
<text text-anchor="middle" x="580.5" y="-318.8" font-family="Times,serif" font-size="14.00">name</text>
</g>
<!-- N10 -->
<g id="node11" class="node">
<title>N10</title>
<polygon fill="none" stroke="black" points="623.5,-297 484.5,-297 484.5,-261 623.5,-261 623.5,-297"/>
<text text-anchor="middle" x="554" y="-275.3" font-family="Times,serif" font-size="14.00">decimal_number (1.0)</text>
</g>
<!-- N8&#45;&gt;N10 -->
<g id="edge8" class="edge">
<title>N8&#45;&gt;N10</title>
<path fill="none" stroke="black" stroke-width="2" d="M659.29,-347.8C639.07,-334.78 611.12,-316.78 589.1,-302.6"/>
<polygon fill="black" stroke="black" stroke-width="2" points="590.98,-299.65 580.67,-297.18 587.19,-305.53 590.98,-299.65"/>
<text text-anchor="middle" x="637.5" y="-318.8" font-family="Times,serif" font-size="14.00">init</text>
</g>
<!-- N12 -->
<g id="node13" class="node">
<title>N12</title>
<polygon fill="none" stroke="black" points="808.5,-297 659.5,-297 659.5,-261 808.5,-261 808.5,-297"/>
<text text-anchor="middle" x="734" y="-275.3" font-family="Times,serif" font-size="14.00">RANGE_IDENT (_rng)</text>
</g>
<!-- N11&#45;&gt;N12 -->
<g id="edge10" class="edge">
<title>N11&#45;&gt;N12</title>
<path fill="none" stroke="black" stroke-width="2" d="M808.98,-347.8C795.09,-335.24 776.08,-318.05 760.67,-304.12"/>
<polygon fill="black" stroke="black" stroke-width="2" points="762.76,-301.29 752.99,-297.18 758.06,-306.48 762.76,-301.29"/>
<text text-anchor="middle" x="802.5" y="-318.8" font-family="Times,serif" font-size="14.00">name</text>
</g>
<!-- N13 -->
<g id="node14" class="node">
<title>N13</title>
<polygon fill="none" stroke="black" points="899,-297 845,-297 845,-261 899,-261 899,-297"/>
<text text-anchor="middle" x="872" y="-275.3" font-family="Times,serif" font-size="14.00">range</text>
</g>
<!-- N11&#45;&gt;N13 -->
<g id="edge17" class="edge">
<title>N11&#45;&gt;N13</title>
<path fill="none" stroke="black" stroke-width="2" d="M836.9,-347.8C843.11,-335.82 851.49,-319.62 858.51,-306.06"/>
<polygon fill="black" stroke="black" stroke-width="2" points="861.62,-307.67 863.11,-297.18 855.4,-304.45 861.62,-307.67"/>
<text text-anchor="middle" x="862.5" y="-318.8" font-family="Times,serif" font-size="14.00">init</text>
</g>
<!-- N14 -->
<g id="node15" class="node">
<title>N14</title>
<polygon fill="none" stroke="black" points="643,-210 585,-210 585,-174 643,-174 643,-210"/>
<text text-anchor="middle" x="614" y="-188.3" font-family="Times,serif" font-size="14.00">cell_ref</text>
</g>
<!-- N13&#45;&gt;N14 -->
<g id="edge13" class="edge">
<title>N13&#45;&gt;N14</title>
<path fill="none" stroke="black" stroke-width="2" d="M844.83,-267.73C838.66,-265.47 832.12,-263.11 826,-261 765.96,-240.29 695.65,-218.15 652.99,-204.95"/>
<polygon fill="black" stroke="black" stroke-width="2" points="653.87,-201.56 643.28,-201.95 651.8,-208.24 653.87,-201.56"/>
<text text-anchor="middle" x="788" y="-231.8" font-family="Times,serif" font-size="14.00">coord1</text>
</g>
<!-- N17 -->
<g id="node18" class="node">
<title>N17</title>
<polygon fill="none" stroke="black" points="839,-210 781,-210 781,-174 839,-174 839,-210"/>
<text text-anchor="middle" x="810" y="-188.3" font-family="Times,serif" font-size="14.00">cell_ref</text>
</g>
<!-- N13&#45;&gt;N17 -->
<g id="edge16" class="edge">
<title>N13&#45;&gt;N17</title>
<path fill="none" stroke="black" stroke-width="2" d="M859.45,-260.8C850.55,-248.59 838.44,-231.99 828.44,-218.28"/>
<polygon fill="black" stroke="black" stroke-width="2" points="831.25,-216.19 822.53,-210.18 825.59,-220.32 831.25,-216.19"/>
<text text-anchor="middle" x="864" y="-231.8" font-family="Times,serif" font-size="14.00">coord2</text>
</g>
<!-- N15 -->
<g id="node16" class="node">
<title>N15</title>
<polygon fill="none" stroke="black" points="518,-123 380,-123 380,-87 518,-87 518,-123"/>
<text text-anchor="middle" x="449" y="-101.3" font-family="Times,serif" font-size="14.00">SHEET_IDENT (XX)</text>
</g>
<!-- N14&#45;&gt;N15 -->
<g id="edge11" class="edge">
<title>N14&#45;&gt;N15</title>
<path fill="none" stroke="black" stroke-width="2" d="M584.88,-176C558.92,-162.62 520.6,-142.88 491.26,-127.77"/>
<polygon fill="black" stroke="black" stroke-width="2" points="492.57,-124.51 482.08,-123.04 489.37,-130.73 492.57,-124.51"/>
<text text-anchor="middle" x="557.5" y="-144.8" font-family="Times,serif" font-size="14.00">name</text>
</g>
<!-- N16 -->
<g id="node17" class="node">
<title>N16</title>
<polygon fill="none" stroke="black" points="673.5,-123 554.5,-123 554.5,-87 673.5,-87 673.5,-123"/>
<text text-anchor="middle" x="614" y="-101.3" font-family="Times,serif" font-size="14.00">coord ((0, 0, &#39;A1&#39;))</text>
</g>
<!-- N14&#45;&gt;N16 -->
<g id="edge12" class="edge">
<title>N14&#45;&gt;N16</title>
<path fill="none" stroke="black" stroke-width="2" d="M614,-173.8C614,-162.16 614,-146.55 614,-133.24"/>
<polygon fill="black" stroke="black" stroke-width="2" points="617.5,-133.18 614,-123.18 610.5,-133.18 617.5,-133.18"/>
<text text-anchor="middle" x="629.5" y="-144.8" font-family="Times,serif" font-size="14.00">coord</text>
</g>
<!-- N18 -->
<g id="node19" class="node">
<title>N18</title>
<polygon fill="none" stroke="black" points="848,-123 710,-123 710,-87 848,-87 848,-123"/>
<text text-anchor="middle" x="779" y="-101.3" font-family="Times,serif" font-size="14.00">SHEET_IDENT (XX)</text>
</g>
<!-- N17&#45;&gt;N18 -->
<g id="edge14" class="edge">
<title>N17&#45;&gt;N18</title>
<path fill="none" stroke="black" stroke-width="2" d="M803.73,-173.8C799.44,-162.05 793.68,-146.24 788.79,-132.84"/>
<polygon fill="black" stroke="black" stroke-width="2" points="791.98,-131.37 785.26,-123.18 785.4,-133.77 791.98,-131.37"/>
<text text-anchor="middle" x="812.5" y="-144.8" font-family="Times,serif" font-size="14.00">name</text>
</g>
<!-- N19 -->
<g id="node20" class="node">
<title>N19</title>
<polygon fill="none" stroke="black" points="998,-123 884,-123 884,-87 998,-87 998,-123"/>
<text text-anchor="middle" x="941" y="-101.3" font-family="Times,serif" font-size="14.00">coord ((9, 0, &#39;J1&#39;))</text>
</g>
<!-- N17&#45;&gt;N19 -->
<g id="edge15" class="edge">
<title>N17&#45;&gt;N19</title>
<path fill="none" stroke="black" stroke-width="2" d="M836.51,-173.8C856.49,-160.84 884.07,-142.94 905.88,-128.79"/>
<polygon fill="black" stroke="black" stroke-width="2" points="908.05,-131.55 914.53,-123.18 904.24,-125.68 908.05,-131.55"/>
<text text-anchor="middle" x="899.5" y="-144.8" font-family="Times,serif" font-size="14.00">coord</text>
</g>
<!-- N21 -->
<g id="node22" class="node">
<title>N21</title>
<polygon fill="none" stroke="black" points="1003,-297 935,-297 935,-261 1003,-261 1003,-297"/>
<text text-anchor="middle" x="969" y="-275.3" font-family="Times,serif" font-size="14.00">range_ref</text>
</g>
<!-- N20&#45;&gt;N21 -->
<g id="edge20" class="edge">
<title>N20&#45;&gt;N21</title>
<path fill="none" stroke="black" stroke-width="2" d="M969,-347.8C969,-336.16 969,-320.55 969,-307.24"/>
<polygon fill="black" stroke="black" stroke-width="2" points="972.5,-307.18 969,-297.18 965.5,-307.18 972.5,-307.18"/>
<text text-anchor="middle" x="995" y="-318.8" font-family="Times,serif" font-size="14.00">ranges[0]</text>
</g>
<!-- N23 -->
<g id="node24" class="node">
<title>N23</title>
<polygon fill="none" stroke="black" points="1127.5,-297 1050.5,-297 1050.5,-261 1127.5,-261 1127.5,-297"/>
<text text-anchor="middle" x="1089" y="-275.3" font-family="Times,serif" font-size="14.00">cell_assign</text>
</g>
<!-- N20&#45;&gt;N23 -->
<g id="edge25" class="edge">
<title>N20&#45;&gt;N23</title>
<path fill="none" stroke="black" stroke-width="2" d="M1000.08,-348.61C1009.89,-343.06 1020.61,-336.59 1030,-330 1041.27,-322.09 1052.99,-312.49 1062.97,-303.82"/>
<polygon fill="black" stroke="black" stroke-width="2" points="1065.39,-306.36 1070.57,-297.13 1060.76,-301.11 1065.39,-306.36"/>
<text text-anchor="middle" x="1072" y="-318.8" font-family="Times,serif" font-size="14.00">stmts[0]</text>
</g>
<!-- N28 -->
<g id="node29" class="node">
<title>N28</title>
<polygon fill="none" stroke="black" points="1261.5,-297 1172.5,-297 1172.5,-261 1261.5,-261 1261.5,-297"/>
<text text-anchor="middle" x="1217" y="-275.3" font-family="Times,serif" font-size="14.00">scalar_assign</text>
</g>
<!-- N20&#45;&gt;N28 -->
<g id="edge32" class="edge">
<title>N20&#45;&gt;N28</title>
<path fill="none" stroke="black" stroke-width="2" d="M1000.18,-353.52C1006.06,-351.54 1012.19,-349.61 1018,-348 1055.63,-337.58 1066.83,-341.97 1104,-330 1127.91,-322.3 1153.58,-311.19 1174.4,-301.39"/>
<polygon fill="black" stroke="black" stroke-width="2" points="1176.09,-304.47 1183.61,-297 1173.07,-298.15 1176.09,-304.47"/>
<text text-anchor="middle" x="1166" y="-318.8" font-family="Times,serif" font-size="14.00">stmts[1]</text>
</g>
<!-- N22 -->
<g id="node23" class="node">
<title>N22</title>
<polygon fill="none" stroke="black" points="1023.5,-210 874.5,-210 874.5,-174 1023.5,-174 1023.5,-210"/>
<text text-anchor="middle" x="949" y="-188.3" font-family="Times,serif" font-size="14.00">RANGE_IDENT (_rng)</text>
</g>
<!-- N21&#45;&gt;N22 -->
<g id="edge19" class="edge">
<title>N21&#45;&gt;N22</title>
<path fill="none" stroke="black" stroke-width="2" d="M964.95,-260.8C962.21,-249.16 958.54,-233.55 955.41,-220.24"/>
<polygon fill="black" stroke="black" stroke-width="2" points="958.74,-219.11 953.04,-210.18 951.92,-220.71 958.74,-219.11"/>
<text text-anchor="middle" x="976.5" y="-231.8" font-family="Times,serif" font-size="14.00">name</text>
</g>
<!-- N24 -->
<g id="node25" class="node">
<title>N24</title>
<polygon fill="none" stroke="black" points="1118,-210 1060,-210 1060,-174 1118,-174 1118,-210"/>
<text text-anchor="middle" x="1089" y="-188.3" font-family="Times,serif" font-size="14.00">loopvar</text>
</g>
<!-- N23&#45;&gt;N24 -->
<g id="edge22" class="edge">
<title>N23&#45;&gt;N24</title>
<path fill="none" stroke="black" stroke-width="2" d="M1089,-260.8C1089,-249.16 1089,-233.55 1089,-220.24"/>
<polygon fill="black" stroke="black" stroke-width="2" points="1092.5,-220.18 1089,-210.18 1085.5,-220.18 1092.5,-220.18"/>
<text text-anchor="middle" x="1098" y="-231.8" font-family="Times,serif" font-size="14.00">var</text>
</g>
<!-- N26 -->
<g id="node27" class="node">
<title>N26</title>
<polygon fill="none" stroke="black" points="1224,-210 1154,-210 1154,-174 1224,-174 1224,-210"/>
<text text-anchor="middle" x="1189" y="-188.3" font-family="Times,serif" font-size="14.00">scalar_ref</text>
</g>
<!-- N23&#45;&gt;N26 -->
<g id="edge24" class="edge">
<title>N23&#45;&gt;N26</title>
<path fill="none" stroke="black" stroke-width="2" d="M1109.24,-260.8C1124.15,-248.13 1144.61,-230.73 1161.07,-216.74"/>
<polygon fill="black" stroke="black" stroke-width="2" points="1163.44,-219.32 1168.79,-210.18 1158.91,-213.99 1163.44,-219.32"/>
<text text-anchor="middle" x="1157.5" y="-231.8" font-family="Times,serif" font-size="14.00">expr</text>
</g>
<!-- N25 -->
<g id="node26" class="node">
<title>N25</title>
<ellipse fill="none" stroke="black" cx="1069" cy="-105" rx="35.19" ry="18"/>
<text text-anchor="middle" x="1069" y="-101.3" font-family="Times,serif" font-size="14.00">NONE</text>
</g>
<!-- N24&#45;&gt;N25 -->
<g id="edge21" class="edge">
<title>N24&#45;&gt;N25</title>
<path fill="none" stroke="black" stroke-width="2" d="M1084.95,-173.8C1082.2,-162.09 1078.49,-146.34 1075.35,-132.97"/>
<polygon fill="black" stroke="black" stroke-width="2" points="1078.67,-131.82 1072.97,-122.89 1071.86,-133.42 1078.67,-131.82"/>
<text text-anchor="middle" x="1120.5" y="-144.8" font-family="Times,serif" font-size="14.00">range_selector</text>
</g>
<!-- N27 -->
<g id="node28" class="node">
<title>N27</title>
<polygon fill="none" stroke="black" points="1225.5,-123 1148.5,-123 1148.5,-87 1225.5,-87 1225.5,-123"/>
<text text-anchor="middle" x="1187" y="-101.3" font-family="Times,serif" font-size="14.00">IDENT (ii)</text>
</g>
<!-- N26&#45;&gt;N27 -->
<g id="edge23" class="edge">
<title>N26&#45;&gt;N27</title>
<path fill="none" stroke="black" stroke-width="2" d="M1188.6,-173.8C1188.32,-162.16 1187.95,-146.55 1187.64,-133.24"/>
<polygon fill="black" stroke="black" stroke-width="2" points="1191.14,-133.09 1187.4,-123.18 1184.14,-133.26 1191.14,-133.09"/>
<text text-anchor="middle" x="1204.5" y="-144.8" font-family="Times,serif" font-size="14.00">name</text>
</g>
<!-- N29 -->
<g id="node30" class="node">
<title>N29</title>
<polygon fill="none" stroke="black" points="1332,-210 1262,-210 1262,-174 1332,-174 1332,-210"/>
<text text-anchor="middle" x="1297" y="-188.3" font-family="Times,serif" font-size="14.00">scalar_ref</text>
</g>
<!-- N28&#45;&gt;N29 -->
<g id="edge27" class="edge">
<title>N28&#45;&gt;N29</title>
<path fill="none" stroke="black" stroke-width="2" d="M1233.19,-260.8C1244.9,-248.36 1260.89,-231.36 1273.94,-217.5"/>
<polygon fill="black" stroke="black" stroke-width="2" points="1276.53,-219.86 1280.83,-210.18 1271.43,-215.06 1276.53,-219.86"/>
<text text-anchor="middle" x="1271" y="-231.8" font-family="Times,serif" font-size="14.00">var</text>
</g>
<!-- N31 -->
<g id="node32" class="node">
<title>N31</title>
<polygon fill="none" stroke="black" points="1437,-210 1383,-210 1383,-174 1437,-174 1437,-210"/>
<text text-anchor="middle" x="1410" y="-188.3" font-family="Times,serif" font-size="14.00">oper +</text>
</g>
<!-- N28&#45;&gt;N31 -->
<g id="edge31" class="edge">
<title>N28&#45;&gt;N31</title>
<path fill="none" stroke="black" stroke-width="2" d="M1256.06,-260.8C1290.34,-245.7 1339.84,-223.9 1373.38,-209.13"/>
<polygon fill="black" stroke="black" stroke-width="2" points="1375.07,-212.21 1382.81,-204.97 1372.25,-205.8 1375.07,-212.21"/>
<text text-anchor="middle" x="1338.5" y="-231.8" font-family="Times,serif" font-size="14.00">expr</text>
</g>
<!-- N30 -->
<g id="node31" class="node">
<title>N30</title>
<polygon fill="none" stroke="black" points="1338.5,-123 1261.5,-123 1261.5,-87 1338.5,-87 1338.5,-123"/>
<text text-anchor="middle" x="1300" y="-101.3" font-family="Times,serif" font-size="14.00">IDENT (ii)</text>
</g>
<!-- N29&#45;&gt;N30 -->
<g id="edge26" class="edge">
<title>N29&#45;&gt;N30</title>
<path fill="none" stroke="black" stroke-width="2" d="M1297.61,-173.8C1298.02,-162.16 1298.57,-146.55 1299.04,-133.24"/>
<polygon fill="black" stroke="black" stroke-width="2" points="1302.54,-133.29 1299.39,-123.18 1295.54,-133.05 1302.54,-133.29"/>
<text text-anchor="middle" x="1314.5" y="-144.8" font-family="Times,serif" font-size="14.00">name</text>
</g>
<!-- N32 -->
<g id="node33" class="node">
<title>N32</title>
<polygon fill="none" stroke="black" points="1445,-123 1375,-123 1375,-87 1445,-87 1445,-123"/>
<text text-anchor="middle" x="1410" y="-101.3" font-family="Times,serif" font-size="14.00">scalar_ref</text>
</g>
<!-- N31&#45;&gt;N32 -->
<g id="edge29" class="edge">
<title>N31&#45;&gt;N32</title>
<path fill="none" stroke="black" stroke-width="2" d="M1410,-173.8C1410,-162.16 1410,-146.55 1410,-133.24"/>
<polygon fill="black" stroke="black" stroke-width="2" points="1413.5,-133.18 1410,-123.18 1406.5,-133.18 1413.5,-133.18"/>
<text text-anchor="middle" x="1419.5" y="-144.8" font-family="Times,serif" font-size="14.00">left</text>
</g>
<!-- N34 -->
<g id="node35" class="node">
<title>N34</title>
<polygon fill="none" stroke="black" points="1620.5,-123 1481.5,-123 1481.5,-87 1620.5,-87 1620.5,-123"/>
<text text-anchor="middle" x="1551" y="-101.3" font-family="Times,serif" font-size="14.00">decimal_number (1.0)</text>
</g>
<!-- N31&#45;&gt;N34 -->
<g id="edge30" class="edge">
<title>N31&#45;&gt;N34</title>
<path fill="none" stroke="black" stroke-width="2" d="M1437.19,-174.61C1458.9,-161.52 1489.56,-143.04 1513.59,-128.55"/>
<polygon fill="black" stroke="black" stroke-width="2" points="1515.69,-131.37 1522.45,-123.21 1512.07,-125.38 1515.69,-131.37"/>
<text text-anchor="middle" x="1502.5" y="-144.8" font-family="Times,serif" font-size="14.00">right</text>
</g>
<!-- N33 -->
<g id="node34" class="node">
<title>N33</title>
<polygon fill="none" stroke="black" points="1448.5,-36 1371.5,-36 1371.5,0 1448.5,0 1448.5,-36"/>
<text text-anchor="middle" x="1410" y="-14.3" font-family="Times,serif" font-size="14.00">IDENT (ii)</text>
</g>
<!-- N32&#45;&gt;N33 -->
<g id="edge28" class="edge">
<title>N32&#45;&gt;N33</title>
<path fill="none" stroke="black" stroke-width="2" d="M1410,-86.8C1410,-75.16 1410,-59.55 1410,-46.24"/>
<polygon fill="black" stroke="black" stroke-width="2" points="1413.5,-46.18 1410,-36.18 1406.5,-46.18 1413.5,-46.18"/>
<text text-anchor="middle" x="1425.5" y="-57.8" font-family="Times,serif" font-size="14.00">name</text>
</g>
<!-- N36 -->
<g id="node37" class="node">
<title>N36</title>
<polygon fill="none" stroke="black" points="1167.5,-384 1036.5,-384 1036.5,-348 1167.5,-348 1167.5,-384"/>
<text text-anchor="middle" x="1102" y="-362.3" font-family="Times,serif" font-size="14.00">FUNC_IDENT (Init)</text>
</g>
<!-- N35&#45;&gt;N36 -->
<g id="edge35" class="edge">
<title>N35&#45;&gt;N36</title>
<path fill="none" stroke="black" stroke-width="2" d="M1102,-434.8C1102,-423.16 1102,-407.55 1102,-394.24"/>
<polygon fill="black" stroke="black" stroke-width="2" points="1105.5,-394.18 1102,-384.18 1098.5,-394.18 1105.5,-394.18"/>
<text text-anchor="middle" x="1117.5" y="-405.8" font-family="Times,serif" font-size="14.00">name</text>
</g>
<!-- N37 -->
<g id="node38" class="node">
<title>N37</title>
<polygon fill="none" stroke="black" points="1270,-384 1204,-384 1204,-348 1270,-348 1270,-384"/>
<text text-anchor="middle" x="1237" y="-362.3" font-family="Times,serif" font-size="14.00">sheet_ref</text>
</g>
<!-- N35&#45;&gt;N37 -->
<g id="edge37" class="edge">
<title>N35&#45;&gt;N37</title>
<path fill="none" stroke="black" stroke-width="2" d="M1129.32,-434.8C1150,-421.78 1178.58,-403.78 1201.11,-389.6"/>
<polygon fill="black" stroke="black" stroke-width="2" points="1203.12,-392.47 1209.72,-384.18 1199.39,-386.54 1203.12,-392.47"/>
<text text-anchor="middle" x="1197.5" y="-405.8" font-family="Times,serif" font-size="14.00">args[0]</text>
</g>
<!-- N38 -->
<g id="node39" class="node">
<title>N38</title>
<polygon fill="none" stroke="black" points="1432,-297 1298,-297 1298,-261 1432,-261 1432,-297"/>
<text text-anchor="middle" x="1365" y="-275.3" font-family="Times,serif" font-size="14.00">SHEET_IDENT (SS)</text>
</g>
<!-- N37&#45;&gt;N38 -->
<g id="edge36" class="edge">
<title>N37&#45;&gt;N38</title>
<path fill="none" stroke="black" stroke-width="2" d="M1262.9,-347.8C1282.42,-334.84 1309.37,-316.94 1330.68,-302.79"/>
<polygon fill="black" stroke="black" stroke-width="2" points="1332.74,-305.62 1339.14,-297.18 1328.87,-299.79 1332.74,-305.62"/>
<text text-anchor="middle" x="1324.5" y="-318.8" font-family="Times,serif" font-size="14.00">name</text>
</g>
<!-- N40 -->
<g id="node41" class="node">
<title>N40</title>
<polygon fill="none" stroke="black" points="1467.5,-384 1306.5,-384 1306.5,-348 1467.5,-348 1467.5,-384"/>
<text text-anchor="middle" x="1387" y="-362.3" font-family="Times,serif" font-size="14.00">infostring (Numbers 1&#45;10)</text>
</g>
<!-- N39&#45;&gt;N40 -->
<g id="edge39" class="edge">
<title>N39&#45;&gt;N40</title>
<path fill="none" stroke="black" stroke-width="2" d="M1387,-434.8C1387,-423.16 1387,-407.55 1387,-394.24"/>
<polygon fill="black" stroke="black" stroke-width="2" points="1390.5,-394.18 1387,-384.18 1383.5,-394.18 1390.5,-394.18"/>
<text text-anchor="middle" x="1404.5" y="-405.8" font-family="Times,serif" font-size="14.00">infostr</text>
</g>
<!-- N41 -->
<g id="node42" class="node">
<title>N41</title>
<polygon fill="none" stroke="black" points="1570,-384 1504,-384 1504,-348 1570,-348 1570,-384"/>
<text text-anchor="middle" x="1537" y="-362.3" font-family="Times,serif" font-size="14.00">sheet_ref</text>
</g>
<!-- N39&#45;&gt;N41 -->
<g id="edge41" class="edge">
<title>N39&#45;&gt;N41</title>
<path fill="none" stroke="black" stroke-width="2" d="M1417.35,-434.8C1440.61,-421.62 1472.87,-403.34 1498.03,-389.08"/>
<polygon fill="black" stroke="black" stroke-width="2" points="1499.97,-392.01 1506.95,-384.03 1496.52,-385.92 1499.97,-392.01"/>
<text text-anchor="middle" x="1483.5" y="-405.8" font-family="Times,serif" font-size="14.00">expr</text>
</g>
<!-- N42 -->
<g id="node43" class="node">
<title>N42</title>
<polygon fill="none" stroke="black" points="1604,-297 1470,-297 1470,-261 1604,-261 1604,-297"/>
<text text-anchor="middle" x="1537" y="-275.3" font-family="Times,serif" font-size="14.00">SHEET_IDENT (SS)</text>
</g>
<!-- N41&#45;&gt;N42 -->
<g id="edge40" class="edge">
<title>N41&#45;&gt;N42</title>
<path fill="none" stroke="black" stroke-width="2" d="M1537,-347.8C1537,-336.16 1537,-320.55 1537,-307.24"/>
<polygon fill="black" stroke="black" stroke-width="2" points="1540.5,-307.18 1537,-297.18 1533.5,-307.18 1540.5,-307.18"/>
<text text-anchor="middle" x="1552.5" y="-318.8" font-family="Times,serif" font-size="14.00">name</text>
</g>
</g>
</svg>
