<?xml version="1.0" encoding="UTF-8" standalone="no"?>
<!DOCTYPE svg PUBLIC "-//W3C//DTD SVG 1.1//EN"
 "http://www.w3.org/Graphics/SVG/1.1/DTD/svg11.dtd">
<!-- Generated by graphviz version 2.42.3 (0)
 -->
<!-- Title: parsetree Pages: 1 -->
<svg width="3174pt" height="653pt"
 viewBox="0.00 0.00 3174.00 653.00" xmlns="http://www.w3.org/2000/svg" xmlns:xlink="http://www.w3.org/1999/xlink">
<g id="graph0" class="graph" transform="scale(1 1) rotate(0) translate(4 649)">
<title>parsetree</title>
<polygon fill="white" stroke="transparent" points="-4,4 -4,-649 3170,-649 3170,4 -4,4"/>
<!-- N0 -->
<g id="node1" class="node">
<title>N0</title>
<polygon fill="none" stroke="black" points="1719,-645 1655,-645 1655,-609 1719,-609 1719,-645"/>
<text text-anchor="middle" x="1687" y="-623.3" font-family="Times,serif" font-size="14.00">program</text>
</g>
<!-- N1 -->
<g id="node2" class="node">
<title>N1</title>
<polygon fill="none" stroke="black" points="569.5,-558 486.5,-558 486.5,-522 569.5,-522 569.5,-558"/>
<text text-anchor="middle" x="528" y="-536.3" font-family="Times,serif" font-size="14.00">function&#45;def</text>
</g>
<!-- N0&#45;&gt;N1 -->
<g id="edge28" class="edge">
<title>N0&#45;&gt;N1</title>
<path fill="none" stroke="black" stroke-width="2" d="M1654.79,-623.64C1494.15,-611.86 779.38,-559.44 579.87,-544.8"/>
<polygon fill="black" stroke="black" stroke-width="2" points="579.89,-541.3 569.66,-544.06 579.38,-548.28 579.89,-541.3"/>
<text text-anchor="middle" x="1214.5" y="-579.8" font-family="Times,serif" font-size="14.00">funcs_vars[0]</text>
</g>
<!-- N29 -->
<g id="node30" class="node">
<title>N29</title>
<polygon fill="none" stroke="black" points="1626.5,-558 1545.5,-558 1545.5,-522 1626.5,-522 1626.5,-558"/>
<text text-anchor="middle" x="1586" y="-536.3" font-family="Times,serif" font-size="14.00">print_scalar</text>
</g>
<!-- N0&#45;&gt;N29 -->
<g id="edge35" class="edge">
<title>N0&#45;&gt;N29</title>
<path fill="none" stroke="black" stroke-width="2" d="M1666.56,-608.8C1651.5,-596.13 1630.84,-578.73 1614.21,-564.74"/>
<polygon fill="black" stroke="black" stroke-width="2" points="1616.31,-561.94 1606.41,-558.18 1611.81,-567.29 1616.31,-561.94"/>
<text text-anchor="middle" x="1675" y="-579.8" font-family="Times,serif" font-size="14.00">stmt_list[0]</text>
</g>
<!-- N36 -->
<g id="node37" class="node">
<title>N36</title>
<polygon fill="none" stroke="black" points="1857.5,-558 1776.5,-558 1776.5,-522 1857.5,-522 1857.5,-558"/>
<text text-anchor="middle" x="1817" y="-536.3" font-family="Times,serif" font-size="14.00">print_scalar</text>
</g>
<!-- N0&#45;&gt;N36 -->
<g id="edge42" class="edge">
<title>N0&#45;&gt;N36</title>
<path fill="none" stroke="black" stroke-width="2" d="M1713.31,-608.8C1733.13,-595.84 1760.5,-577.94 1782.15,-563.79"/>
<polygon fill="black" stroke="black" stroke-width="2" points="1784.28,-566.58 1790.73,-558.18 1780.45,-560.72 1784.28,-566.58"/>
<text text-anchor="middle" x="1792" y="-579.8" font-family="Times,serif" font-size="14.00">stmt_list[1]</text>
</g>
<!-- N43 -->
<g id="node44" class="node">
<title>N43</title>
<polygon fill="none" stroke="black" points="2403.5,-558 2322.5,-558 2322.5,-522 2403.5,-522 2403.5,-558"/>
<text text-anchor="middle" x="2363" y="-536.3" font-family="Times,serif" font-size="14.00">print_scalar</text>
</g>
<!-- N0&#45;&gt;N43 -->
<g id="edge49" class="edge">
<title>N0&#45;&gt;N43</title>
<path fill="none" stroke="black" stroke-width="2" d="M1719.15,-621.96C1827.47,-608.34 2179.68,-564.05 2312.07,-547.4"/>
<polygon fill="black" stroke="black" stroke-width="2" points="2312.85,-550.83 2322.34,-546.11 2311.98,-543.89 2312.85,-550.83"/>
<text text-anchor="middle" x="2098" y="-579.8" font-family="Times,serif" font-size="14.00">stmt_list[2]</text>
</g>
<!-- N2 -->
<g id="node3" class="node">
<title>N2</title>
<polygon fill="none" stroke="black" points="176,-471 0,-471 0,-435 176,-435 176,-471"/>
<text text-anchor="middle" x="88" y="-449.3" font-family="Times,serif" font-size="14.00">FUNC_IDENT (To_seconds)</text>
</g>
<!-- N1&#45;&gt;N2 -->
<g id="edge1" class="edge">
<title>N1&#45;&gt;N2</title>
<path fill="none" stroke="black" stroke-width="2" d="M486.1,-534.81C435.7,-529.4 348.67,-518.89 275,-504 234.5,-495.82 189.77,-483.96 154.22,-473.85"/>
<polygon fill="black" stroke="black" stroke-width="2" points="155.02,-470.44 144.44,-471.05 153.09,-477.17 155.02,-470.44"/>
<text text-anchor="middle" x="290.5" y="-492.8" font-family="Times,serif" font-size="14.00">name</text>
</g>
<!-- N3 -->
<g id="node4" class="node">
<title>N3</title>
<polygon fill="none" stroke="black" points="289.5,-471 212.5,-471 212.5,-435 289.5,-435 289.5,-471"/>
<text text-anchor="middle" x="251" y="-449.3" font-family="Times,serif" font-size="14.00">formal_arg</text>
</g>
<!-- N1&#45;&gt;N3 -->
<g id="edge3" class="edge">
<title>N1&#45;&gt;N3</title>
<path fill="none" stroke="black" stroke-width="2" d="M486.5,-534.44C449.22,-529.54 393.39,-520.18 347,-504 326.45,-496.83 304.85,-485.92 287.35,-476.11"/>
<polygon fill="black" stroke="black" stroke-width="2" points="289.02,-473.03 278.6,-471.11 285.54,-479.11 289.02,-473.03"/>
<text text-anchor="middle" x="376" y="-492.8" font-family="Times,serif" font-size="14.00">formals[0]</text>
</g>
<!-- N5 -->
<g id="node6" class="node">
<title>N5</title>
<polygon fill="none" stroke="black" points="402.5,-471 325.5,-471 325.5,-435 402.5,-435 402.5,-471"/>
<text text-anchor="middle" x="364" y="-449.3" font-family="Times,serif" font-size="14.00">formal_arg</text>
</g>
<!-- N1&#45;&gt;N5 -->
<g id="edge5" class="edge">
<title>N1&#45;&gt;N5</title>
<path fill="none" stroke="black" stroke-width="2" d="M486.42,-524.75C471.19,-518.99 454.01,-511.84 439,-504 423.98,-496.15 408.25,-486 395.09,-476.9"/>
<polygon fill="black" stroke="black" stroke-width="2" points="397.05,-473.99 386.86,-471.1 393.02,-479.71 397.05,-473.99"/>
<text text-anchor="middle" x="468" y="-492.8" font-family="Times,serif" font-size="14.00">formals[1]</text>
</g>
<!-- N7 -->
<g id="node8" class="node">
<title>N7</title>
<polygon fill="none" stroke="black" points="537,-471 439,-471 439,-435 537,-435 537,-471"/>
<text text-anchor="middle" x="488" y="-449.3" font-family="Times,serif" font-size="14.00">rettype (scalar)</text>
</g>
<!-- N1&#45;&gt;N7 -->
<g id="edge6" class="edge">
<title>N1&#45;&gt;N7</title>
<path fill="none" stroke="black" stroke-width="2" d="M519.91,-521.8C514.32,-509.93 506.79,-493.93 500.45,-480.45"/>
<polygon fill="black" stroke="black" stroke-width="2" points="503.51,-478.73 496.08,-471.18 497.17,-481.71 503.51,-478.73"/>
<text text-anchor="middle" x="530" y="-492.8" font-family="Times,serif" font-size="14.00">rettype</text>
</g>
<!-- N8 -->
<g id="node9" class="node">
<title>N8</title>
<polygon fill="none" stroke="black" points="680.5,-471 573.5,-471 573.5,-435 680.5,-435 680.5,-471"/>
<text text-anchor="middle" x="627" y="-449.3" font-family="Times,serif" font-size="14.00">scalar_definition</text>
</g>
<!-- N1&#45;&gt;N8 -->
<g id="edge9" class="edge">
<title>N1&#45;&gt;N8</title>
<path fill="none" stroke="black" stroke-width="2" d="M548.03,-521.8C562.79,-509.13 583.05,-491.73 599.35,-477.74"/>
<polygon fill="black" stroke="black" stroke-width="2" points="601.69,-480.35 607,-471.18 597.13,-475.03 601.69,-480.35"/>
<text text-anchor="middle" x="603.5" y="-492.8" font-family="Times,serif" font-size="14.00">vars[0]</text>
</g>
<!-- N11 -->
<g id="node12" class="node">
<title>N11</title>
<polygon fill="none" stroke="black" points="805.5,-471 716.5,-471 716.5,-435 805.5,-435 805.5,-471"/>
<text text-anchor="middle" x="761" y="-449.3" font-family="Times,serif" font-size="14.00">scalar_assign</text>
</g>
<!-- N1&#45;&gt;N11 -->
<g id="edge23" class="edge">
<title>N1&#45;&gt;N11</title>
<path fill="none" stroke="black" stroke-width="2" d="M569.65,-525.46C588.72,-519.14 611.58,-511.39 632,-504 657.51,-494.77 685.62,-483.95 709.07,-474.74"/>
<polygon fill="black" stroke="black" stroke-width="2" points="710.45,-477.96 718.48,-471.04 707.89,-471.45 710.45,-477.96"/>
<text text-anchor="middle" x="695" y="-492.8" font-family="Times,serif" font-size="14.00">stmts[0]</text>
</g>
<!-- N25 -->
<g id="node26" class="node">
<title>N25</title>
<polygon fill="none" stroke="black" points="957,-471 903,-471 903,-435 957,-435 957,-471"/>
<text text-anchor="middle" x="930" y="-449.3" font-family="Times,serif" font-size="14.00">return</text>
</g>
<!-- N1&#45;&gt;N25 -->
<g id="edge27" class="edge">
<title>N1&#45;&gt;N25</title>
<path fill="none" stroke="black" stroke-width="2" d="M569.7,-532.51C610.07,-526.02 672.94,-515.4 727,-504 785.44,-491.68 852.63,-474.54 893.17,-463.86"/>
<polygon fill="black" stroke="black" stroke-width="2" points="894.11,-467.24 902.88,-461.3 892.32,-460.47 894.11,-467.24"/>
<text text-anchor="middle" x="812" y="-492.8" font-family="Times,serif" font-size="14.00">stmts[1]</text>
</g>
<!-- N4 -->
<g id="node5" class="node">
<title>N4</title>
<polygon fill="none" stroke="black" points="270,-384 170,-384 170,-348 270,-348 270,-384"/>
<text text-anchor="middle" x="220" y="-362.3" font-family="Times,serif" font-size="14.00">IDENT (hours)</text>
</g>
<!-- N3&#45;&gt;N4 -->
<g id="edge2" class="edge">
<title>N3&#45;&gt;N4</title>
<path fill="none" stroke="black" stroke-width="2" d="M244.73,-434.8C240.44,-423.05 234.68,-407.24 229.79,-393.84"/>
<polygon fill="black" stroke="black" stroke-width="2" points="232.98,-392.37 226.26,-384.18 226.4,-394.77 232.98,-392.37"/>
<text text-anchor="middle" x="253.5" y="-405.8" font-family="Times,serif" font-size="14.00">name</text>
</g>
<!-- N6 -->
<g id="node7" class="node">
<title>N6</title>
<polygon fill="none" stroke="black" points="419.5,-384 306.5,-384 306.5,-348 419.5,-348 419.5,-384"/>
<text text-anchor="middle" x="363" y="-362.3" font-family="Times,serif" font-size="14.00">IDENT (minutes)</text>
</g>
<!-- N5&#45;&gt;N6 -->
<g id="edge4" class="edge">
<title>N5&#45;&gt;N6</title>
<path fill="none" stroke="black" stroke-width="2" d="M363.8,-434.8C363.66,-423.16 363.48,-407.55 363.32,-394.24"/>
<polygon fill="black" stroke="black" stroke-width="2" points="366.82,-394.13 363.2,-384.18 359.82,-394.22 366.82,-394.13"/>
<text text-anchor="middle" x="379.5" y="-405.8" font-family="Times,serif" font-size="14.00">name</text>
</g>
<!-- N9 -->
<g id="node10" class="node">
<title>N9</title>
<polygon fill="none" stroke="black" points="556.5,-384 455.5,-384 455.5,-348 556.5,-348 556.5,-384"/>
<text text-anchor="middle" x="506" y="-362.3" font-family="Times,serif" font-size="14.00">IDENT (retval)</text>
</g>
<!-- N8&#45;&gt;N9 -->
<g id="edge7" class="edge">
<title>N8&#45;&gt;N9</title>
<path fill="none" stroke="black" stroke-width="2" d="M602.51,-434.8C584.15,-421.9 558.81,-404.1 538.71,-389.98"/>
<polygon fill="black" stroke="black" stroke-width="2" points="540.64,-387.06 530.45,-384.18 536.62,-392.79 540.64,-387.06"/>
<text text-anchor="middle" x="589.5" y="-405.8" font-family="Times,serif" font-size="14.00">name</text>
</g>
<!-- N10 -->
<g id="node11" class="node">
<title>N10</title>
<ellipse fill="none" stroke="black" cx="628" cy="-366" rx="35.19" ry="18"/>
<text text-anchor="middle" x="628" y="-362.3" font-family="Times,serif" font-size="14.00">NONE</text>
</g>
<!-- N8&#45;&gt;N10 -->
<g id="edge8" class="edge">
<title>N8&#45;&gt;N10</title>
<path fill="none" stroke="black" stroke-width="2" d="M627.2,-434.8C627.34,-423.16 627.52,-407.55 627.68,-394.24"/>
<polygon fill="black" stroke="black" stroke-width="2" points="631.18,-394.22 627.8,-384.18 624.18,-394.13 631.18,-394.22"/>
<text text-anchor="middle" x="637.5" y="-405.8" font-family="Times,serif" font-size="14.00">init</text>
</g>
<!-- N12 -->
<g id="node13" class="node">
<title>N12</title>
<polygon fill="none" stroke="black" points="769,-384 699,-384 699,-348 769,-348 769,-384"/>
<text text-anchor="middle" x="734" y="-362.3" font-family="Times,serif" font-size="14.00">scalar_ref</text>
</g>
<!-- N11&#45;&gt;N12 -->
<g id="edge11" class="edge">
<title>N11&#45;&gt;N12</title>
<path fill="none" stroke="black" stroke-width="2" d="M755.54,-434.8C751.8,-423.05 746.78,-407.24 742.53,-393.84"/>
<polygon fill="black" stroke="black" stroke-width="2" points="745.82,-392.65 739.46,-384.18 739.15,-394.77 745.82,-392.65"/>
<text text-anchor="middle" x="759" y="-405.8" font-family="Times,serif" font-size="14.00">var</text>
</g>
<!-- N14 -->
<g id="node15" class="node">
<title>N14</title>
<polygon fill="none" stroke="black" points="859,-384 805,-384 805,-348 859,-348 859,-384"/>
<text text-anchor="middle" x="832" y="-362.3" font-family="Times,serif" font-size="14.00">oper +</text>
</g>
<!-- N11&#45;&gt;N14 -->
<g id="edge22" class="edge">
<title>N11&#45;&gt;N14</title>
<path fill="none" stroke="black" stroke-width="2" d="M775.37,-434.8C785.67,-422.47 799.69,-405.68 811.21,-391.89"/>
<polygon fill="black" stroke="black" stroke-width="2" points="813.93,-394.09 817.65,-384.18 808.56,-389.61 813.93,-394.09"/>
<text text-anchor="middle" x="813.5" y="-405.8" font-family="Times,serif" font-size="14.00">expr</text>
</g>
<!-- N13 -->
<g id="node14" class="node">
<title>N13</title>
<polygon fill="none" stroke="black" points="706.5,-297 605.5,-297 605.5,-261 706.5,-261 706.5,-297"/>
<text text-anchor="middle" x="656" y="-275.3" font-family="Times,serif" font-size="14.00">IDENT (retval)</text>
</g>
<!-- N12&#45;&gt;N13 -->
<g id="edge10" class="edge">
<title>N12&#45;&gt;N13</title>
<path fill="none" stroke="black" stroke-width="2" d="M718.22,-347.8C706.9,-335.47 691.49,-318.68 678.84,-304.89"/>
<polygon fill="black" stroke="black" stroke-width="2" points="681.1,-302.18 671.76,-297.18 675.94,-306.91 681.1,-302.18"/>
<text text-anchor="middle" x="715.5" y="-318.8" font-family="Times,serif" font-size="14.00">name</text>
</g>
<!-- N15 -->
<g id="node16" class="node">
<title>N15</title>
<polygon fill="none" stroke="black" points="797,-297 743,-297 743,-261 797,-261 797,-297"/>
<text text-anchor="middle" x="770" y="-275.3" font-family="Times,serif" font-size="14.00">oper *</text>
</g>
<!-- N14&#45;&gt;N15 -->
<g id="edge17" class="edge">
<title>N14&#45;&gt;N15</title>
<path fill="none" stroke="black" stroke-width="2" d="M819.45,-347.8C810.55,-335.59 798.44,-318.99 788.44,-305.28"/>
<polygon fill="black" stroke="black" stroke-width="2" points="791.25,-303.19 782.53,-297.18 785.59,-307.32 791.25,-303.19"/>
<text text-anchor="middle" x="814.5" y="-318.8" font-family="Times,serif" font-size="14.00">left</text>
</g>
<!-- N21 -->
<g id="node22" class="node">
<title>N21</title>
<polygon fill="none" stroke="black" points="914,-297 860,-297 860,-261 914,-261 914,-297"/>
<text text-anchor="middle" x="887" y="-275.3" font-family="Times,serif" font-size="14.00">oper *</text>
</g>
<!-- N14&#45;&gt;N21 -->
<g id="edge21" class="edge">
<title>N14&#45;&gt;N21</title>
<path fill="none" stroke="black" stroke-width="2" d="M843.13,-347.8C850.96,-335.7 861.57,-319.3 870.39,-305.67"/>
<polygon fill="black" stroke="black" stroke-width="2" points="873.39,-307.47 875.89,-297.18 867.52,-303.67 873.39,-307.47"/>
<text text-anchor="middle" x="876.5" y="-318.8" font-family="Times,serif" font-size="14.00">right</text>
</g>
<!-- N16 -->
<g id="node17" class="node">
<title>N16</title>
<polygon fill="none" stroke="black" points="654,-210 600,-210 600,-174 654,-174 654,-210"/>
<text text-anchor="middle" x="627" y="-188.3" font-family="Times,serif" font-size="14.00">oper *</text>
</g>
<!-- N15&#45;&gt;N16 -->
<g id="edge15" class="edge">
<title>N15&#45;&gt;N16</title>
<path fill="none" stroke="black" stroke-width="2" d="M742.77,-261.81C720.1,-248.34 687.66,-229.06 662.88,-214.33"/>
<polygon fill="black" stroke="black" stroke-width="2" points="664.52,-211.23 654.13,-209.13 660.94,-217.25 664.52,-211.23"/>
<text text-anchor="middle" x="717.5" y="-231.8" font-family="Times,serif" font-size="14.00">left</text>
</g>
<!-- N20 -->
<g id="node21" class="node">
<title>N20</title>
<polygon fill="none" stroke="black" points="836,-210 690,-210 690,-174 836,-174 836,-210"/>
<text text-anchor="middle" x="763" y="-188.3" font-family="Times,serif" font-size="14.00">decimal_number (60.0)</text>
</g>
<!-- N15&#45;&gt;N20 -->
<g id="edge16" class="edge">
<title>N15&#45;&gt;N20</title>
<path fill="none" stroke="black" stroke-width="2" d="M768.58,-260.8C767.63,-249.16 766.34,-233.55 765.24,-220.24"/>
<polygon fill="black" stroke="black" stroke-width="2" points="768.72,-219.85 764.41,-210.18 761.75,-220.43 768.72,-219.85"/>
<text text-anchor="middle" x="780.5" y="-231.8" font-family="Times,serif" font-size="14.00">right</text>
</g>
<!-- N17 -->
<g id="node18" class="node">
<title>N17</title>
<polygon fill="none" stroke="black" points="598,-123 528,-123 528,-87 598,-87 598,-123"/>
<text text-anchor="middle" x="563" y="-101.3" font-family="Times,serif" font-size="14.00">scalar_ref</text>
</g>
<!-- N16&#45;&gt;N17 -->
<g id="edge13" class="edge">
<title>N16&#45;&gt;N17</title>
<path fill="none" stroke="black" stroke-width="2" d="M614.05,-173.8C604.85,-161.59 592.36,-144.99 582.03,-131.28"/>
<polygon fill="black" stroke="black" stroke-width="2" points="584.74,-129.06 575.93,-123.18 579.15,-133.27 584.74,-129.06"/>
<text text-anchor="middle" x="608.5" y="-144.8" font-family="Times,serif" font-size="14.00">left</text>
</g>
<!-- N19 -->
<g id="node20" class="node">
<title>N19</title>
<polygon fill="none" stroke="black" points="780,-123 634,-123 634,-87 780,-87 780,-123"/>
<text text-anchor="middle" x="707" y="-101.3" font-family="Times,serif" font-size="14.00">decimal_number (60.0)</text>
</g>
<!-- N16&#45;&gt;N19 -->
<g id="edge14" class="edge">
<title>N16&#45;&gt;N19</title>
<path fill="none" stroke="black" stroke-width="2" d="M643.19,-173.8C654.9,-161.36 670.89,-144.36 683.94,-130.5"/>
<polygon fill="black" stroke="black" stroke-width="2" points="686.53,-132.86 690.83,-123.18 681.43,-128.06 686.53,-132.86"/>
<text text-anchor="middle" x="685.5" y="-144.8" font-family="Times,serif" font-size="14.00">right</text>
</g>
<!-- N18 -->
<g id="node19" class="node">
<title>N18</title>
<polygon fill="none" stroke="black" points="613,-36 513,-36 513,0 613,0 613,-36"/>
<text text-anchor="middle" x="563" y="-14.3" font-family="Times,serif" font-size="14.00">IDENT (hours)</text>
</g>
<!-- N17&#45;&gt;N18 -->
<g id="edge12" class="edge">
<title>N17&#45;&gt;N18</title>
<path fill="none" stroke="black" stroke-width="2" d="M563,-86.8C563,-75.16 563,-59.55 563,-46.24"/>
<polygon fill="black" stroke="black" stroke-width="2" points="566.5,-46.18 563,-36.18 559.5,-46.18 566.5,-46.18"/>
<text text-anchor="middle" x="578.5" y="-57.8" font-family="Times,serif" font-size="14.00">name</text>
</g>
<!-- N22 -->
<g id="node23" class="node">
<title>N22</title>
<polygon fill="none" stroke="black" points="942,-210 872,-210 872,-174 942,-174 942,-210"/>
<text text-anchor="middle" x="907" y="-188.3" font-family="Times,serif" font-size="14.00">scalar_ref</text>
</g>
<!-- N21&#45;&gt;N22 -->
<g id="edge19" class="edge">
<title>N21&#45;&gt;N22</title>
<path fill="none" stroke="black" stroke-width="2" d="M891.05,-260.8C893.79,-249.16 897.46,-233.55 900.59,-220.24"/>
<polygon fill="black" stroke="black" stroke-width="2" points="904.08,-220.71 902.96,-210.18 897.26,-219.11 904.08,-220.71"/>
<text text-anchor="middle" x="908.5" y="-231.8" font-family="Times,serif" font-size="14.00">left</text>
</g>
<!-- N24 -->
<g id="node25" class="node">
<title>N24</title>
<polygon fill="none" stroke="black" points="1124,-210 978,-210 978,-174 1124,-174 1124,-210"/>
<text text-anchor="middle" x="1051" y="-188.3" font-family="Times,serif" font-size="14.00">decimal_number (60.0)</text>
</g>
<!-- N21&#45;&gt;N24 -->
<g id="edge20" class="edge">
<title>N21&#45;&gt;N24</title>
<path fill="none" stroke="black" stroke-width="2" d="M914.08,-263.96C939.89,-250.59 979.12,-230.25 1008.99,-214.77"/>
<polygon fill="black" stroke="black" stroke-width="2" points="1010.66,-217.85 1017.93,-210.14 1007.44,-211.63 1010.66,-217.85"/>
<text text-anchor="middle" x="992.5" y="-231.8" font-family="Times,serif" font-size="14.00">right</text>
</g>
<!-- N23 -->
<g id="node24" class="node">
<title>N23</title>
<polygon fill="none" stroke="black" points="963.5,-123 850.5,-123 850.5,-87 963.5,-87 963.5,-123"/>
<text text-anchor="middle" x="907" y="-101.3" font-family="Times,serif" font-size="14.00">IDENT (minutes)</text>
</g>
<!-- N22&#45;&gt;N23 -->
<g id="edge18" class="edge">
<title>N22&#45;&gt;N23</title>
<path fill="none" stroke="black" stroke-width="2" d="M907,-173.8C907,-162.16 907,-146.55 907,-133.24"/>
<polygon fill="black" stroke="black" stroke-width="2" points="910.5,-133.18 907,-123.18 903.5,-133.18 910.5,-133.18"/>
<text text-anchor="middle" x="922.5" y="-144.8" font-family="Times,serif" font-size="14.00">name</text>
</g>
<!-- N26 -->
<g id="node27" class="node">
<title>N26</title>
<polygon fill="none" stroke="black" points="965,-384 895,-384 895,-348 965,-348 965,-384"/>
<text text-anchor="middle" x="930" y="-362.3" font-family="Times,serif" font-size="14.00">scalar_ref</text>
</g>
<!-- N25&#45;&gt;N26 -->
<g id="edge25" class="edge">
<title>N25&#45;&gt;N26</title>
<path fill="none" stroke="black" stroke-width="2" d="M930,-434.8C930,-423.16 930,-407.55 930,-394.24"/>
<polygon fill="black" stroke="black" stroke-width="2" points="933.5,-394.18 930,-384.18 926.5,-394.18 933.5,-394.18"/>
<text text-anchor="middle" x="942.5" y="-405.8" font-family="Times,serif" font-size="14.00">expr</text>
</g>
<!-- N28 -->
<g id="node29" class="node">
<title>N28</title>
<polygon fill="none" stroke="black" points="1093,-384 1001,-384 1001,-348 1093,-348 1093,-384"/>
<text text-anchor="middle" x="1047" y="-362.3" font-family="Times,serif" font-size="14.00">usage (scalar)</text>
</g>
<!-- N25&#45;&gt;N28 -->
<g id="edge26" class="edge">
<title>N25&#45;&gt;N28</title>
<path fill="none" stroke="black" stroke-width="2" d="M953.68,-434.8C971.36,-421.95 995.72,-404.26 1015.11,-390.17"/>
<polygon fill="black" stroke="black" stroke-width="2" points="1017.33,-392.88 1023.36,-384.18 1013.21,-387.22 1017.33,-392.88"/>
<text text-anchor="middle" x="1011.5" y="-405.8" font-family="Times,serif" font-size="14.00">usage</text>
</g>
<!-- N27 -->
<g id="node28" class="node">
<title>N27</title>
<polygon fill="none" stroke="black" points="1051.5,-297 950.5,-297 950.5,-261 1051.5,-261 1051.5,-297"/>
<text text-anchor="middle" x="1001" y="-275.3" font-family="Times,serif" font-size="14.00">IDENT (retval)</text>
</g>
<!-- N26&#45;&gt;N27 -->
<g id="edge24" class="edge">
<title>N26&#45;&gt;N27</title>
<path fill="none" stroke="black" stroke-width="2" d="M944.37,-347.8C954.67,-335.47 968.69,-318.68 980.21,-304.89"/>
<polygon fill="black" stroke="black" stroke-width="2" points="982.93,-307.09 986.65,-297.18 977.56,-302.61 982.93,-307.09"/>
<text text-anchor="middle" x="985.5" y="-318.8" font-family="Times,serif" font-size="14.00">name</text>
</g>
<!-- N30 -->
<g id="node31" class="node">
<title>N30</title>
<polygon fill="none" stroke="black" points="1505.5,-471 1290.5,-471 1290.5,-435 1505.5,-435 1505.5,-471"/>
<text text-anchor="middle" x="1398" y="-449.3" font-family="Times,serif" font-size="14.00">infostring (1 hour 3 minutes (3780))</text>
</g>
<!-- N29&#45;&gt;N30 -->
<g id="edge29" class="edge">
<title>N29&#45;&gt;N30</title>
<path fill="none" stroke="black" stroke-width="2" d="M1547.96,-521.8C1518.17,-508.33 1476.6,-489.54 1444.78,-475.15"/>
<polygon fill="black" stroke="black" stroke-width="2" points="1446.22,-471.96 1435.67,-471.03 1443.34,-478.34 1446.22,-471.96"/>
<text text-anchor="middle" x="1521.5" y="-492.8" font-family="Times,serif" font-size="14.00">infostr</text>
</g>
<!-- N31 -->
<g id="node32" class="node">
<title>N31</title>
<polygon fill="none" stroke="black" points="1630,-471 1542,-471 1542,-435 1630,-435 1630,-471"/>
<text text-anchor="middle" x="1586" y="-449.3" font-family="Times,serif" font-size="14.00">function_call</text>
</g>
<!-- N29&#45;&gt;N31 -->
<g id="edge34" class="edge">
<title>N29&#45;&gt;N31</title>
<path fill="none" stroke="black" stroke-width="2" d="M1586,-521.8C1586,-510.16 1586,-494.55 1586,-481.24"/>
<polygon fill="black" stroke="black" stroke-width="2" points="1589.5,-481.18 1586,-471.18 1582.5,-481.18 1589.5,-481.18"/>
<text text-anchor="middle" x="1598.5" y="-492.8" font-family="Times,serif" font-size="14.00">expr</text>
</g>
<!-- N32 -->
<g id="node33" class="node">
<title>N32</title>
<polygon fill="none" stroke="black" points="1305,-384 1129,-384 1129,-348 1305,-348 1305,-384"/>
<text text-anchor="middle" x="1217" y="-362.3" font-family="Times,serif" font-size="14.00">FUNC_IDENT (To_seconds)</text>
</g>
<!-- N31&#45;&gt;N32 -->
<g id="edge30" class="edge">
<title>N31&#45;&gt;N32</title>
<path fill="none" stroke="black" stroke-width="2" d="M1541.66,-439.77C1535.41,-438.12 1529.05,-436.49 1523,-435 1451.16,-417.34 1369.34,-399.26 1308.39,-386.19"/>
<polygon fill="black" stroke="black" stroke-width="2" points="1308.92,-382.72 1298.41,-384.05 1307.46,-389.57 1308.92,-382.72"/>
<text text-anchor="middle" x="1455.5" y="-405.8" font-family="Times,serif" font-size="14.00">name</text>
</g>
<!-- N33 -->
<g id="node34" class="node">
<title>N33</title>
<polygon fill="none" stroke="black" points="1480.5,-384 1341.5,-384 1341.5,-348 1480.5,-348 1480.5,-384"/>
<text text-anchor="middle" x="1411" y="-362.3" font-family="Times,serif" font-size="14.00">decimal_number (1.0)</text>
</g>
<!-- N31&#45;&gt;N33 -->
<g id="edge31" class="edge">
<title>N31&#45;&gt;N33</title>
<path fill="none" stroke="black" stroke-width="2" d="M1550.59,-434.8C1523.1,-421.45 1484.83,-402.86 1455.31,-388.52"/>
<polygon fill="black" stroke="black" stroke-width="2" points="1456.59,-385.25 1446.06,-384.03 1453.53,-391.55 1456.59,-385.25"/>
<text text-anchor="middle" x="1528.5" y="-405.8" font-family="Times,serif" font-size="14.00">args[0]</text>
</g>
<!-- N34 -->
<g id="node35" class="node">
<title>N34</title>
<polygon fill="none" stroke="black" points="1655.5,-384 1516.5,-384 1516.5,-348 1655.5,-348 1655.5,-384"/>
<text text-anchor="middle" x="1586" y="-362.3" font-family="Times,serif" font-size="14.00">decimal_number (3.0)</text>
</g>
<!-- N31&#45;&gt;N34 -->
<g id="edge32" class="edge">
<title>N31&#45;&gt;N34</title>
<path fill="none" stroke="black" stroke-width="2" d="M1586,-434.8C1586,-423.16 1586,-407.55 1586,-394.24"/>
<polygon fill="black" stroke="black" stroke-width="2" points="1589.5,-394.18 1586,-384.18 1582.5,-394.18 1589.5,-394.18"/>
<text text-anchor="middle" x="1605.5" y="-405.8" font-family="Times,serif" font-size="14.00">args[1]</text>
</g>
<!-- N35 -->
<g id="node36" class="node">
<title>N35</title>
<polygon fill="none" stroke="black" points="1784,-384 1692,-384 1692,-348 1784,-348 1784,-384"/>
<text text-anchor="middle" x="1738" y="-362.3" font-family="Times,serif" font-size="14.00">usage (scalar)</text>
</g>
<!-- N31&#45;&gt;N35 -->
<g id="edge33" class="edge">
<title>N31&#45;&gt;N35</title>
<path fill="none" stroke="black" stroke-width="2" d="M1616.76,-434.8C1640.32,-421.62 1673.01,-403.34 1698.51,-389.08"/>
<polygon fill="black" stroke="black" stroke-width="2" points="1700.53,-391.97 1707.55,-384.03 1697.11,-385.86 1700.53,-391.97"/>
<text text-anchor="middle" x="1687.5" y="-405.8" font-family="Times,serif" font-size="14.00">usage</text>
</g>
<!-- N37 -->
<g id="node38" class="node">
<title>N37</title>
<polygon fill="none" stroke="black" points="1898,-471 1736,-471 1736,-435 1898,-435 1898,-471"/>
<text text-anchor="middle" x="1817" y="-449.3" font-family="Times,serif" font-size="14.00">infostring (2 hours (7200))</text>
</g>
<!-- N36&#45;&gt;N37 -->
<g id="edge36" class="edge">
<title>N36&#45;&gt;N37</title>
<path fill="none" stroke="black" stroke-width="2" d="M1817,-521.8C1817,-510.16 1817,-494.55 1817,-481.24"/>
<polygon fill="black" stroke="black" stroke-width="2" points="1820.5,-481.18 1817,-471.18 1813.5,-481.18 1820.5,-481.18"/>
<text text-anchor="middle" x="1834.5" y="-492.8" font-family="Times,serif" font-size="14.00">infostr</text>
</g>
<!-- N38 -->
<g id="node39" class="node">
<title>N38</title>
<polygon fill="none" stroke="black" points="2146,-471 2058,-471 2058,-435 2146,-435 2146,-471"/>
<text text-anchor="middle" x="2102" y="-449.3" font-family="Times,serif" font-size="14.00">function_call</text>
</g>
<!-- N36&#45;&gt;N38 -->
<g id="edge41" class="edge">
<title>N36&#45;&gt;N38</title>
<path fill="none" stroke="black" stroke-width="2" d="M1857.53,-526.91C1907.55,-511.99 1992.76,-486.58 2048.21,-470.04"/>
<polygon fill="black" stroke="black" stroke-width="2" points="2049.28,-473.38 2057.86,-467.16 2047.28,-466.67 2049.28,-473.38"/>
<text text-anchor="middle" x="1989.5" y="-492.8" font-family="Times,serif" font-size="14.00">expr</text>
</g>
<!-- N39 -->
<g id="node40" class="node">
<title>N39</title>
<polygon fill="none" stroke="black" points="1996,-384 1820,-384 1820,-348 1996,-348 1996,-384"/>
<text text-anchor="middle" x="1908" y="-362.3" font-family="Times,serif" font-size="14.00">FUNC_IDENT (To_seconds)</text>
</g>
<!-- N38&#45;&gt;N39 -->
<g id="edge37" class="edge">
<title>N38&#45;&gt;N39</title>
<path fill="none" stroke="black" stroke-width="2" d="M2062.74,-434.8C2032.01,-421.33 1989.11,-402.54 1956.28,-388.15"/>
<polygon fill="black" stroke="black" stroke-width="2" points="1957.43,-384.84 1946.87,-384.03 1954.62,-391.25 1957.43,-384.84"/>
<text text-anchor="middle" x="2032.5" y="-405.8" font-family="Times,serif" font-size="14.00">name</text>
</g>
<!-- N40 -->
<g id="node41" class="node">
<title>N40</title>
<polygon fill="none" stroke="black" points="2171.5,-384 2032.5,-384 2032.5,-348 2171.5,-348 2171.5,-384"/>
<text text-anchor="middle" x="2102" y="-362.3" font-family="Times,serif" font-size="14.00">decimal_number (2.0)</text>
</g>
<!-- N38&#45;&gt;N40 -->
<g id="edge38" class="edge">
<title>N38&#45;&gt;N40</title>
<path fill="none" stroke="black" stroke-width="2" d="M2102,-434.8C2102,-423.16 2102,-407.55 2102,-394.24"/>
<polygon fill="black" stroke="black" stroke-width="2" points="2105.5,-394.18 2102,-384.18 2098.5,-394.18 2105.5,-394.18"/>
<text text-anchor="middle" x="2121.5" y="-405.8" font-family="Times,serif" font-size="14.00">args[0]</text>
</g>
<!-- N41 -->
<g id="node42" class="node">
<title>N41</title>
<polygon fill="none" stroke="black" points="2346.5,-384 2207.5,-384 2207.5,-348 2346.5,-348 2346.5,-384"/>
<text text-anchor="middle" x="2277" y="-362.3" font-family="Times,serif" font-size="14.00">decimal_number (0.0)</text>
</g>
<!-- N38&#45;&gt;N41 -->
<g id="edge39" class="edge">
<title>N38&#45;&gt;N41</title>
<path fill="none" stroke="black" stroke-width="2" d="M2137.41,-434.8C2164.9,-421.45 2203.17,-402.86 2232.69,-388.52"/>
<polygon fill="black" stroke="black" stroke-width="2" points="2234.47,-391.55 2241.94,-384.03 2231.41,-385.25 2234.47,-391.55"/>
<text text-anchor="middle" x="2219.5" y="-405.8" font-family="Times,serif" font-size="14.00">args[1]</text>
</g>
<!-- N42 -->
<g id="node43" class="node">
<title>N42</title>
<polygon fill="none" stroke="black" points="2475,-384 2383,-384 2383,-348 2475,-348 2475,-384"/>
<text text-anchor="middle" x="2429" y="-362.3" font-family="Times,serif" font-size="14.00">usage (scalar)</text>
</g>
<!-- N38&#45;&gt;N42 -->
<g id="edge40" class="edge">
<title>N38&#45;&gt;N42</title>
<path fill="none" stroke="black" stroke-width="2" d="M2146.18,-441.82C2175.19,-435.04 2213.93,-425.79 2248,-417 2290.13,-406.14 2337.52,-393.01 2373.24,-382.93"/>
<polygon fill="black" stroke="black" stroke-width="2" points="2374.32,-386.27 2382.99,-380.18 2372.42,-379.53 2374.32,-386.27"/>
<text text-anchor="middle" x="2318.5" y="-405.8" font-family="Times,serif" font-size="14.00">usage</text>
</g>
<!-- N44 -->
<g id="node45" class="node">
<title>N44</title>
<polygon fill="none" stroke="black" points="2425.5,-471 2300.5,-471 2300.5,-435 2425.5,-435 2425.5,-471"/>
<text text-anchor="middle" x="2363" y="-449.3" font-family="Times,serif" font-size="14.00">infostring (zero (0))</text>
</g>
<!-- N43&#45;&gt;N44 -->
<g id="edge43" class="edge">
<title>N43&#45;&gt;N44</title>
<path fill="none" stroke="black" stroke-width="2" d="M2363,-521.8C2363,-510.16 2363,-494.55 2363,-481.24"/>
<polygon fill="black" stroke="black" stroke-width="2" points="2366.5,-481.18 2363,-471.18 2359.5,-481.18 2366.5,-481.18"/>
<text text-anchor="middle" x="2380.5" y="-492.8" font-family="Times,serif" font-size="14.00">infostr</text>
</g>
<!-- N45 -->
<g id="node46" class="node">
<title>N45</title>
<polygon fill="none" stroke="black" points="2837,-471 2749,-471 2749,-435 2837,-435 2837,-471"/>
<text text-anchor="middle" x="2793" y="-449.3" font-family="Times,serif" font-size="14.00">function_call</text>
</g>
<!-- N43&#45;&gt;N45 -->
<g id="edge48" class="edge">
<title>N43&#45;&gt;N45</title>
<path fill="none" stroke="black" stroke-width="2" d="M2403.84,-530.93C2481.78,-515.52 2651.72,-481.93 2738.96,-464.68"/>
<polygon fill="black" stroke="black" stroke-width="2" points="2739.79,-468.09 2748.92,-462.71 2738.43,-461.22 2739.79,-468.09"/>
<text text-anchor="middle" x="2616.5" y="-492.8" font-family="Times,serif" font-size="14.00">expr</text>
</g>
<!-- N46 -->
<g id="node47" class="node">
<title>N46</title>
<polygon fill="none" stroke="black" points="2687,-384 2511,-384 2511,-348 2687,-348 2687,-384"/>
<text text-anchor="middle" x="2599" y="-362.3" font-family="Times,serif" font-size="14.00">FUNC_IDENT (To_seconds)</text>
</g>
<!-- N45&#45;&gt;N46 -->
<g id="edge44" class="edge">
<title>N45&#45;&gt;N46</title>
<path fill="none" stroke="black" stroke-width="2" d="M2753.74,-434.8C2723.01,-421.33 2680.11,-402.54 2647.28,-388.15"/>
<polygon fill="black" stroke="black" stroke-width="2" points="2648.43,-384.84 2637.87,-384.03 2645.62,-391.25 2648.43,-384.84"/>
<text text-anchor="middle" x="2723.5" y="-405.8" font-family="Times,serif" font-size="14.00">name</text>
</g>
<!-- N47 -->
<g id="node48" class="node">
<title>N47</title>
<polygon fill="none" stroke="black" points="2862.5,-384 2723.5,-384 2723.5,-348 2862.5,-348 2862.5,-384"/>
<text text-anchor="middle" x="2793" y="-362.3" font-family="Times,serif" font-size="14.00">decimal_number (0.0)</text>
</g>
<!-- N45&#45;&gt;N47 -->
<g id="edge45" class="edge">
<title>N45&#45;&gt;N47</title>
<path fill="none" stroke="black" stroke-width="2" d="M2793,-434.8C2793,-423.16 2793,-407.55 2793,-394.24"/>
<polygon fill="black" stroke="black" stroke-width="2" points="2796.5,-394.18 2793,-384.18 2789.5,-394.18 2796.5,-394.18"/>
<text text-anchor="middle" x="2812.5" y="-405.8" font-family="Times,serif" font-size="14.00">args[0]</text>
</g>
<!-- N48 -->
<g id="node49" class="node">
<title>N48</title>
<polygon fill="none" stroke="black" points="3037.5,-384 2898.5,-384 2898.5,-348 3037.5,-348 3037.5,-384"/>
<text text-anchor="middle" x="2968" y="-362.3" font-family="Times,serif" font-size="14.00">decimal_number (0.0)</text>
</g>
<!-- N45&#45;&gt;N48 -->
<g id="edge46" class="edge">
<title>N45&#45;&gt;N48</title>
<path fill="none" stroke="black" stroke-width="2" d="M2828.41,-434.8C2855.9,-421.45 2894.17,-402.86 2923.69,-388.52"/>
<polygon fill="black" stroke="black" stroke-width="2" points="2925.47,-391.55 2932.94,-384.03 2922.41,-385.25 2925.47,-391.55"/>
<text text-anchor="middle" x="2910.5" y="-405.8" font-family="Times,serif" font-size="14.00">args[1]</text>
</g>
<!-- N49 -->
<g id="node50" class="node">
<title>N49</title>
<polygon fill="none" stroke="black" points="3166,-384 3074,-384 3074,-348 3166,-348 3166,-384"/>
<text text-anchor="middle" x="3120" y="-362.3" font-family="Times,serif" font-size="14.00">usage (scalar)</text>
</g>
<!-- N45&#45;&gt;N49 -->
<g id="edge47" class="edge">
<title>N45&#45;&gt;N49</title>
<path fill="none" stroke="black" stroke-width="2" d="M2837.18,-441.82C2866.19,-435.04 2904.93,-425.79 2939,-417 2981.13,-406.14 3028.52,-393.01 3064.24,-382.93"/>
<polygon fill="black" stroke="black" stroke-width="2" points="3065.32,-386.27 3073.99,-380.18 3063.42,-379.53 3065.32,-386.27"/>
<text text-anchor="middle" x="3009.5" y="-405.8" font-family="Times,serif" font-size="14.00">usage</text>
</g>
</g>
</svg>
